Wengdings1.glyphspackage
{
glyphname = uni0001;
layers = (
{
layerId = m01;
shapes = (
{
closed = 1;
nodes = (
(896,1480,l),
(128,1480,l),
(128,0,l),
(896,0,l)
);
},
{
closed = 1;
nodes = (
(804,1390,l),
(804,90,l),
(220,90,l),
(220,1390,l)
);
}
);
userData = {
assembly = "NPUSHB[ ]	/* 15 values pushed */
7 212 1 4 212 1 163 0 0 4 255 0 5 255 3
PUSHW[ ]	/* 2 values pushed */
485 0
MDAP[1]	/* MoveDirectAbsPt */
MIRP[11110]	/* MoveIndirectRelPt */
MIRP[01101]	/* MoveIndirectRelPt */
SRP0[ ]	/* SetRefPoint0 */
MIRP[01101]	/* MoveIndirectRelPt */
SVTCA[0]	/* SetFreedomAndProjectionVectorToAxis */
MIAP[1]	/* MoveIndirectAbsPt */
MIRP[01110]	/* MoveIndirectRelPt */
MIRP[01101]	/* MoveIndirectRelPt */
SRP0[ ]	/* SetRefPoint0 */
MIRP[01101]	/* MoveIndirectRelPt */
IUP[1]	/* InterpolateUntPts */
IUP[0]	/* InterpolateUntPts */";
};
width = 1024;
}
);
note = uni0012;
unicode = (1,2,3,4,5,6,7,10,11,12,14,15,16,17,18,19,20,21,22,23,24,25,26,27,28,30,31,127);
}
{
glyphname = exclam;
layers = (
{
layerId = m01;
shapes = (
{
closed = 1;
nodes = (
(272,-45,o),
(653,78,o),
(777,127,cs),
(793,134,o),
(803,147,o),
(814,158,cs),
(1719,1038,ls),
(1747,1065,o),
(1758,1116,o),
(1758,1174,cs),
(1758,1225,o),
(1755,1296,o),
(1732,1323,cs),
(1698,1363,o),
(1651,1399,o),
(1609,1436,cs),
(1568,1472,o),
(1537,1510,o),
(1465,1510,cs),
(1421,1510,o),
(1332,1505,o),
(1286,1459,cs),
(399,588,ls),
(360,549,o),
(332,521,o),
(321,481,cs),
(213,101,ls),
(197,46,o),
(189,2,o),
(189,-9,cs),
(189,-40,o),
(212,-45,o),
(225,-45,cs)
);
},
{
closed = 1;
nodes = (
(363,118,o),
(342,139,o),
(309,153,c),
(400,459,l),
(402,459,o),
(415,459,o),
(431,459,cs),
(457,459,o),
(490,458,o),
(495,451,cs),
(501,442,o),
(510,350,o),
(518,331,cs),
(529,303,o),
(567,300,o),
(599,300,cs),
(614,300,o),
(627,300,o),
(635,300,cs),
(653,300,o),
(679,297,o),
(689,290,cs),
(694,287,o),
(695,262,o),
(697,235,cs),
(698,215,o),
(697,194,o),
(697,178,c),
(381,88,l),
(381,88,l)
);
},
{
closed = 1;
nodes = (
(508,530,o),
(475,525,o),
(448,528,c),
(1320,1384,ls),
(1355,1417,o),
(1366,1420,o),
(1446,1427,c),
(537,520,l),
(537,520,l)
);
},
{
closed = 1;
nodes = (
(760,254,o),
(755,318,o),
(749,337,c),
(1664,1236,l),
(1669,1199,o),
(1679,1165,o),
(1679,1129,cs),
(1679,1109,o),
(1661,1088,o),
(1643,1072,cs),
(762,212,l),
(762,212,l)
);
},
{
closed = 1;
nodes = (
(692,367,o),
(661,373,o),
(630,373,cs),
(611,373,o),
(573,375,o),
(573,381,cs),
(573,398,o),
(570,419,o),
(568,438,cs),
(567,461,o),
(565,481,o),
(565,490,c),
(1491,1415,l),
(1532,1381,o),
(1599,1319,o),
(1646,1274,c),
(716,362,l),
(716,362,l)
);
}
);
userData = {
assembly = "NPUSHB[ ]	/* 40 values pushed */
4 6 8 9 11 18 20 24 26 33 35 11 2 14 17 21 59 3 57 23 27 52 3 50 5 32 36 37 38 45 6 43 0 50 130 12 1 57 104 14
PUSHW[ ]	/* 1 value pushed */
565
PUSHB[ ]	/* 3 values pushed */
43 43 2
PUSHW[ ]	/* 1 value pushed */
389
NPUSHB[ ]	/* 44 values pushed */
0 2 6 8 9 11 18 20 24 26 33 35 11 4 30 38 21 47 16 1 12 36 37 52 59 6 54 0 32 27 40 116 30 45 17 16 116 54 5 23 116 47 143 30
PUSHW[ ]	/* 1 value pushed */
564
PUSHB[ ]	/* 3 values pushed */
54 54 4
PUSHW[ ]	/* 2 values pushed */
288 0
MDAP[1]	/* MoveDirectAbsPt */
MIRP[01101]	/* MoveIndirectRelPt */
IP[ ]	/* InterpolatePts */
MDAP[1]	/* MoveDirectAbsPt */
MIRP[11101]	/* MoveIndirectRelPt */
MIRP[11101]	/* MoveIndirectRelPt */
MIRP[01101]	/* MoveIndirectRelPt */
IP[ ]	/* InterpolatePts */
SRP0[ ]	/* SetRefPoint0 */
MIRP[01101]	/* MoveIndirectRelPt */
IP[ ]	/* InterpolatePts */
IP[ ]	/* InterpolatePts */
SRP0[ ]	/* SetRefPoint0 */
MIRP[01101]	/* MoveIndirectRelPt */
IP[ ]	/* InterpolatePts */
IP[ ]	/* InterpolatePts */
SRP1[ ]	/* SetRefPoint1 */
SRP2[ ]	/* SetRefPoint2 */
SLOOP[ ]	/* SetLoopVariable */
IP[ ]	/* InterpolatePts */
SRP1[ ]	/* SetRefPoint1 */
SRP2[ ]	/* SetRefPoint2 */
IP[ ]	/* InterpolatePts */
IP[ ]	/* InterpolatePts */
SRP1[ ]	/* SetRefPoint1 */
SRP2[ ]	/* SetRefPoint2 */
SLOOP[ ]	/* SetLoopVariable */
IP[ ]	/* InterpolatePts */
SVTCA[0]	/* SetFreedomAndProjectionVectorToAxis */
MDAP[1]	/* MoveDirectAbsPt */
MIRP[01101]	/* MoveIndirectRelPt */
IP[ ]	/* InterpolatePts */
MDAP[1]	/* MoveDirectAbsPt */
MIRP[11101]	/* MoveIndirectRelPt */
MIRP[01101]	/* MoveIndirectRelPt */
IP[ ]	/* InterpolatePts */
IP[ ]	/* InterpolatePts */
MIRP[01101]	/* MoveIndirectRelPt */
SRP1[ ]	/* SetRefPoint1 */
SRP2[ ]	/* SetRefPoint2 */
SLOOP[ ]	/* SetLoopVariable */
IP[ ]	/* InterpolatePts */
SRP1[ ]	/* SetRefPoint1 */
SLOOP[ ]	/* SetLoopVariable */
IP[ ]	/* InterpolatePts */
SRP2[ ]	/* SetRefPoint2 */
SLOOP[ ]	/* SetLoopVariable */
IP[ ]	/* InterpolatePts */
SRP1[ ]	/* SetRefPoint1 */
SRP2[ ]	/* SetRefPoint2 */
SLOOP[ ]	/* SetLoopVariable */
IP[ ]	/* InterpolatePts */
IUP[1]	/* InterpolateUntPts */
IUP[0]	/* InterpolateUntPts */";
};
width = 2110;
}
);
note = uni0021;
unicode = 33;
}
{
glyphname = quotedbl;
layers = (
{
layerId = m01;
shapes = (
{
closed = 1;
nodes = (
(651,93,o),
(810,213,o),
(810,383,cs),
(810,415,o),
(801,446,o),
(783,478,c),
(787,487,l),
(898,492,o),
(1082,580,o),
(1104,600,c),
(1802,328,ls),
(1904,288,o),
(2000,267,o),
(2088,267,cs),
(2208,267,o),
(2285,322,o),
(2324,383,c),
(1399,736,l),
(2324,1076,l),
(2285,1131,o),
(2163,1187,o),
(2079,1187,cs),
(2006,1187,o),
(1913,1169,o),
(1798,1126,cs),
(1104,868,l),
(989,929,o),
(810,986,o),
(660,999,c),
(685,1024,o),
(701,1081,o),
(701,1149,cs),
(701,1289,o),
(579,1407,o),
(411,1407,cs),
(261,1407,o),
(148,1305,o),
(148,1158,cs),
(148,1008,o),
(300,913,o),
(479,904,cs),
(656,895,o),
(866,825,o),
(950,736,c),
(885,677,o),
(753,600,o),
(692,600,cs),
(665,600,o),
(635,603,o),
(606,607,cs),
(576,612,o),
(540,612,o),
(502,612,cs),
(273,612,o),
(148,512,o),
(148,328,cs),
(148,190,o),
(284,93,o),
(461,93,cs)
);
},
{
closed = 1;
nodes = (
(323,179,o),
(248,236,o),
(248,338,cs),
(248,437,o),
(329,496,o),
(479,496,cs),
(570,496,o),
(633,487,o),
(669,471,cs),
(706,455,o),
(724,424,o),
(724,383,cs),
(724,279,o),
(613,179,o),
(465,179,cs)
);
},
{
closed = 1;
nodes = (
(343,1011,o),
(248,1076,o),
(248,1181,cs),
(248,1274,o),
(309,1335,o),
(402,1335,cs),
(522,1335,o),
(610,1242,o),
(610,1140,cs),
(610,1042,o),
(572,1011,o),
(497,1011,cs)
);
}
);
userData = {
assembly = "NPUSHB[ ]	/* 14 values pushed */
56 62 53 1 89 85 54 56 58 3 78 52 24 85
PUSHW[ ]	/* 1 value pushed */
565
PUSHB[ ]	/* 8 values pushed */
83 0 2 25 29 62 5 89
PUSHW[ ]	/* 1 value pushed */
567
PUSHB[ ]	/* 4 values pushed */
27 47 134 73
PUSHW[ ]	/* 1 value pushed */
566
NPUSHB[ ]	/* 32 values pushed */
78 134 42 67 134 10 27 83 10 128 42 0 87 25 29 52 53 58 87 6 54 0 91 39 1 36 50 24 2 81 14 91
PUSHW[ ]	/* 1 value pushed */
322
NPUSHB[ ]	/* 20 values pushed */
50 19 120 14 120 64 36 120 39 143 81 70 7 75 120 64 81 50 3 54
PUSHW[ ]	/* 2 values pushed */
289 45
MDAP[1]	/* MoveDirectAbsPt */
MIRP[01101]	/* MoveIndirectRelPt */
SLOOP[ ]	/* SetLoopVariable */
IP[ ]	/* InterpolatePts */
MIRP[01101]	/* MoveIndirectRelPt */
IP[ ]	/* InterpolatePts */
IP[ ]	/* InterpolatePts */
MDAP[1]	/* MoveDirectAbsPt */
MIRP[01101]	/* MoveIndirectRelPt */
MIRP[01101]	/* MoveIndirectRelPt */
MDAP[1]	/* MoveDirectAbsPt */
MIRP[01101]	/* MoveIndirectRelPt */
MIRP[01101]	/* MoveIndirectRelPt */
MDAP[1]	/* MoveDirectAbsPt */
MIRP[01101]	/* MoveIndirectRelPt */
SRP1[ ]	/* SetRefPoint1 */
SRP2[ ]	/* SetRefPoint2 */
IP[ ]	/* InterpolatePts */
IP[ ]	/* InterpolatePts */
SRP1[ ]	/* SetRefPoint1 */
SRP2[ ]	/* SetRefPoint2 */
IP[ ]	/* InterpolatePts */
SRP1[ ]	/* SetRefPoint1 */
SRP2[ ]	/* SetRefPoint2 */
IP[ ]	/* InterpolatePts */
SRP1[ ]	/* SetRefPoint1 */
SLOOP[ ]	/* SetLoopVariable */
IP[ ]	/* InterpolatePts */
MDAP[1]	/* MoveDirectAbsPt */
SVTCA[0]	/* SetFreedomAndProjectionVectorToAxis */
MIAP[1]	/* MoveIndirectAbsPt */
MIRP[01101]	/* MoveIndirectRelPt */
IP[ ]	/* InterpolatePts */
IP[ ]	/* InterpolatePts */
SRP0[ ]	/* SetRefPoint0 */
MIRP[01101]	/* MoveIndirectRelPt */
SRP0[ ]	/* SetRefPoint0 */
MIRP[11101]	/* MoveIndirectRelPt */
MIRP[10110]	/* MoveIndirectRelPt */
MIRP[01101]	/* MoveIndirectRelPt */
MDAP[1]	/* MoveDirectAbsPt */
MIRP[01101]	/* MoveIndirectRelPt */
SLOOP[ ]	/* SetLoopVariable */
IP[ ]	/* InterpolatePts */
MDAP[1]	/* MoveDirectAbsPt */
MIRP[01101]	/* MoveIndirectRelPt */
IP[ ]	/* InterpolatePts */
IP[ ]	/* InterpolatePts */
SRP2[ ]	/* SetRefPoint2 */
SLOOP[ ]	/* SetLoopVariable */
IP[ ]	/* InterpolatePts */
SRP1[ ]	/* SetRefPoint1 */
SRP2[ ]	/* SetRefPoint2 */
IP[ ]	/* InterpolatePts */
IP[ ]	/* InterpolatePts */
MDAP[1]	/* MoveDirectAbsPt */
MDAP[1]	/* MoveDirectAbsPt */
IUP[1]	/* InterpolateUntPts */
IUP[0]	/* InterpolateUntPts */";
};
width = 2344;
}
);
note = uni0022;
unicode = 34;
}
{
glyphname = numbersign;
layers = (
{
layerId = m01;
shapes = (
{
closed = 1;
nodes = (
(709,-94,o),
(859,0,o),
(859,143,cs),
(859,197,o),
(830,260,o),
(805,280,c),
(842,280,ls),
(1005,280,o),
(1121,293,o),
(1190,315,c),
(1450,0,l),
(1776,0,l),
(1495,340,l),
(2544,463,l),
(2394,588,o),
(2247,630,o),
(1958,630,cs),
(1798,630,o),
(1490,617,o),
(1278,596,c),
(1187,687,o),
(852,852,o),
(722,896,c),
(716,935,l),
(739,948,o),
(775,1025,o),
(775,1078,cs),
(775,1249,o),
(638,1379,o),
(480,1379,cs),
(345,1379,o),
(239,1288,o),
(239,1158,cs),
(239,1091,o),
(261,1034,o),
(303,987,cs),
(347,938,o),
(453,889,o),
(631,842,cs),
(805,795,o),
(956,679,o),
(1081,497,c),
(1015,438,o),
(845,379,o),
(746,379,cs),
(719,379,o),
(677,384,o),
(623,396,cs),
(569,409,o),
(512,413,o),
(456,413,cs),
(266,413,o),
(145,325,o),
(145,182,cs),
(145,17,o),
(285,-94,o),
(498,-94,cs)
);
},
{
closed = 1;
nodes = (
(350,-7,o),
(236,66,o),
(236,177,cs),
(236,276,o),
(330,330,o),
(485,330,cs),
(670,330,o),
(785,260,o),
(785,152,cs),
(785,46,o),
(690,-7,o),
(500,-7,cs)
);
},
{
closed = 1;
nodes = (
(418,945,o),
(327,1039,o),
(327,1158,cs),
(327,1243,o),
(376,1295,o),
(475,1295,cs),
(579,1295,o),
(692,1200,o),
(692,1074,cs),
(692,1002,o),
(631,945,o),
(544,945,cs)
);
}
);
userData = {
assembly = "NPUSHB[ ]	/* 33 values pushed */
36 58 80 86 0 1 2 25 26 28 58 86 8 64 82 51 52 80 3 31 75 134 41 36 82 104 31 64 134 12 31 41 12
PUSHW[ ]	/* 1 value pushed */
568
NPUSHB[ ]	/* 30 values pushed */
54 0 84 0 26 51 52 53 54 84 7 28 88 1 61 20 25 2 4 78 67 120 9 20 116 4 15 120 61 88
PUSHW[ ]	/* 1 value pushed */
265
NPUSHB[ ]	/* 9 values pushed */
78 72 120 9 78 4 61 4 28
PUSHW[ ]	/* 2 values pushed */
550 44
MDAP[1]	/* MoveDirectAbsPt */
MIRP[01101]	/* MoveIndirectRelPt */
SLOOP[ ]	/* SetLoopVariable */
IP[ ]	/* InterpolatePts */
MIRP[01101]	/* MoveIndirectRelPt */
MDAP[1]	/* MoveDirectAbsPt */
MIRP[01101]	/* MoveIndirectRelPt */
MDAP[1]	/* MoveDirectAbsPt */
MIRP[01101]	/* MoveIndirectRelPt */
MDAP[1]	/* MoveDirectAbsPt */
MIRP[01101]	/* MoveIndirectRelPt */
MDAP[1]	/* MoveDirectAbsPt */
MIRP[01101]	/* MoveIndirectRelPt */
SRP1[ ]	/* SetRefPoint1 */
SRP2[ ]	/* SetRefPoint2 */
IP[ ]	/* InterpolatePts */
IP[ ]	/* InterpolatePts */
SRP1[ ]	/* SetRefPoint1 */
SRP2[ ]	/* SetRefPoint2 */
IP[ ]	/* InterpolatePts */
SRP1[ ]	/* SetRefPoint1 */
SRP2[ ]	/* SetRefPoint2 */
SLOOP[ ]	/* SetLoopVariable */
IP[ ]	/* InterpolatePts */
MDAP[1]	/* MoveDirectAbsPt */
SVTCA[0]	/* SetFreedomAndProjectionVectorToAxis */
MIAP[1]	/* MoveIndirectAbsPt */
MIRP[01101]	/* MoveIndirectRelPt */
IP[ ]	/* InterpolatePts */
IP[ ]	/* InterpolatePts */
SRP0[ ]	/* SetRefPoint0 */
MIRP[01101]	/* MoveIndirectRelPt */
MDAP[1]	/* MoveDirectAbsPt */
MIRP[01101]	/* MoveIndirectRelPt */
IP[ ]	/* InterpolatePts */
MDAP[1]	/* MoveDirectAbsPt */
MIRP[11101]	/* MoveIndirectRelPt */
SRP1[ ]	/* SetRefPoint1 */
SLOOP[ ]	/* SetLoopVariable */
IP[ ]	/* InterpolatePts */
SRP1[ ]	/* SetRefPoint1 */
SRP2[ ]	/* SetRefPoint2 */
SLOOP[ ]	/* SetLoopVariable */
IP[ ]	/* InterpolatePts */
MDAP[1]	/* MoveDirectAbsPt */
MDAP[1]	/* MoveDirectAbsPt */
MDAP[1]	/* MoveDirectAbsPt */
MDAP[1]	/* MoveDirectAbsPt */
IUP[1]	/* InterpolateUntPts */
IUP[0]	/* InterpolateUntPts */";
};
width = 2665;
}
);
note = uni0023;
unicode = 35;
}
{
glyphname = dollar;
layers = (
{
layerId = m01;
shapes = (
{
closed = 1;
nodes = (
(1627,-16,o),
(1721,28,o),
(1778,100,cs),
(1809,138,o),
(1831,185,o),
(1840,232,cs),
(1844,254,o),
(1846,279,o),
(1853,300,cs),
(1865,332,o),
(1893,363,o),
(1893,400,cs),
(1893,410,o),
(1888,421,o),
(1888,431,cs),
(1888,447,o),
(1903,468,o),
(1912,482,cs),
(1950,545,o),
(1979,626,o),
(2022,681,c),
(2026,688,o),
(2040,704,o),
(2048,704,cs),
(2059,704,o),
(2060,691,o),
(2060,682,cs),
(2060,669,ls),
(2060,640,o),
(2073,598,o),
(2106,598,cs),
(2154,598,o),
(2166,642,o),
(2166,679,cs),
(2166,723,o),
(2159,767,o),
(2140,807,cs),
(2126,835,o),
(2109,845,o),
(2090,845,cs),
(2034,845,o),
(1966,764,o),
(1938,731,cs),
(1909,694,o),
(1878,659,o),
(1847,620,cs),
(1827,594,o),
(1793,529,o),
(1757,529,cs),
(1746,529,o),
(1666,563,o),
(1649,568,cs),
(1565,588,o),
(1481,604,o),
(1394,604,cs),
(1336,604,o),
(1281,601,o),
(1227,590,cs),
(1192,582,o),
(1168,568,o),
(1130,568,cs),
(1111,568,o),
(1090,569,o),
(1071,575,cs),
(1048,582,o),
(1036,598,o),
(1017,613,cs),
(983,638,o),
(958,667,o),
(920,688,cs),
(893,703,o),
(864,715,o),
(833,725,cs),
(809,732,o),
(754,739,o),
(754,762,cs),
(754,767,o),
(762,772,o),
(767,775,c),
(840,826,o),
(912,875,o),
(989,922,cs),
(1056,963,o),
(1122,1001,o),
(1208,1001,cs),
(1300,1001,o),
(1302,960,o),
(1334,910,cs),
(1349,888,o),
(1372,873,o),
(1399,873,cs),
(1449,873,o),
(1471,919,o),
(1471,959,cs),
(1471,1094,o),
(1255,1104,o),
(1206,1104,cs),
(1017,1104,o),
(861,976,o),
(699,900,cs),
(643,873,o),
(583,853,o),
(529,820,c),
(468,803,o),
(414,773,o),
(414,723,cs),
(414,687,o),
(446,659,o),
(446,623,cs),
(446,615,o),
(445,606,o),
(445,595,cs),
(445,396,o),
(557,152,o),
(780,152,cs),
(883,152,o),
(967,194,o),
(1017,293,cs),
(1031,322,o),
(1030,369,o),
(1070,369,cs),
(1118,369,o),
(1111,313,o),
(1117,281,cs),
(1128,215,o),
(1159,144,o),
(1217,102,cs),
(1311,31,o),
(1424,-16,o),
(1540,-16,cs)
);
},
{
closed = 1;
nodes = (
(745,274,o),
(692,290,o),
(652,325,cs),
(595,375,o),
(560,469,o),
(560,548,cs),
(560,570,o),
(560,600,o),
(570,619,cs),
(582,641,o),
(617,647,o),
(652,647,cs),
(712,647,o),
(808,616,o),
(871,570,cs),
(924,532,o),
(939,444,o),
(939,419,cs),
(939,406,o),
(937,393,o),
(934,379,cs),
(918,307,o),
(858,274,o),
(793,274,cs)
);
},
{
closed = 1;
nodes = (
(1462,99,o),
(1361,113,o),
(1297,169,cs),
(1247,213,o),
(1212,282,o),
(1212,350,cs),
(1212,385,o),
(1224,422,o),
(1255,441,cs),
(1290,463,o),
(1341,468,o),
(1387,468,cs),
(1444,468,o),
(1511,457,o),
(1546,448,cs),
(1632,426,o),
(1710,382,o),
(1710,287,cs),
(1710,234,o),
(1685,175,o),
(1646,137,cs),
(1613,106,o),
(1574,99,o),
(1534,99,cs)
);
}
);
userData = {
assembly = "PUSHB[ ]	/* 8 values pushed */
8 8 50 63 21 78 84 50
PUSHW[ ]	/* 1 value pushed */
344
NPUSHB[ ]	/* 22 values pushed */
18 104 3 27 36 42 76 91 5 63 104 78 60 104 45 97 24 84 104 39 3 45
PUSHW[ ]	/* 1 value pushed */
273
PUSHB[ ]	/* 5 values pushed */
69 104 32 78 32
PUSHW[ ]	/* 1 value pushed */
570
NPUSHB[ ]	/* 22 values pushed */
39 0 100 0 21 100 3 10 48 36 27 29 34 63 87 81 74 116 94 120 29 52
PUSHW[ ]	/* 1 value pushed */
569
NPUSHB[ ]	/* 9 values pushed */
48 120 57 66 116 34 120 87 10
PUSHW[ ]	/* 1 value pushed */
569
NPUSHB[ ]	/* 12 values pushed */
15 81 120 42 15 120 6 87 29 57 3 6
PUSHW[ ]	/* 2 values pushed */
401 42
MDAP[1]	/* MoveDirectAbsPt */
MIRP[01101]	/* MoveIndirectRelPt */
SLOOP[ ]	/* SetLoopVariable */
IP[ ]	/* InterpolatePts */
SRP0[ ]	/* SetRefPoint0 */
MIRP[01101]	/* MoveIndirectRelPt */
SRP0[ ]	/* SetRefPoint0 */
MIRP[01101]	/* MoveIndirectRelPt */
SRP0[ ]	/* SetRefPoint0 */
MIRP[00100]	/* MoveIndirectRelPt */
MDAP[1]	/* MoveDirectAbsPt */
MIRP[11101]	/* MoveIndirectRelPt */
MIRP[01101]	/* MoveIndirectRelPt */
MDAP[1]	/* MoveDirectAbsPt */
MIRP[01101]	/* MoveIndirectRelPt */
MIRP[00100]	/* MoveIndirectRelPt */
MDAP[1]	/* MoveDirectAbsPt */
MIRP[01101]	/* MoveIndirectRelPt */
MIRP[01101]	/* MoveIndirectRelPt */
SRP1[ ]	/* SetRefPoint1 */
SRP2[ ]	/* SetRefPoint2 */
IP[ ]	/* InterpolatePts */
SRP1[ ]	/* SetRefPoint1 */
SRP2[ ]	/* SetRefPoint2 */
IP[ ]	/* InterpolatePts */
IP[ ]	/* InterpolatePts */
SRP1[ ]	/* SetRefPoint1 */
SRP2[ ]	/* SetRefPoint2 */
SLOOP[ ]	/* SetLoopVariable */
IP[ ]	/* InterpolatePts */
MDAP[1]	/* MoveDirectAbsPt */
SVTCA[0]	/* SetFreedomAndProjectionVectorToAxis */
MIAP[1]	/* MoveIndirectAbsPt */
MIRP[00100]	/* MoveIndirectRelPt */
IP[ ]	/* InterpolatePts */
SRP0[ ]	/* SetRefPoint0 */
MIRP[11101]	/* MoveIndirectRelPt */
MIRP[00100]	/* MoveIndirectRelPt */
IP[ ]	/* InterpolatePts */
SRP0[ ]	/* SetRefPoint0 */
MIRP[01101]	/* MoveIndirectRelPt */
IP[ ]	/* InterpolatePts */
IP[ ]	/* InterpolatePts */
SRP0[ ]	/* SetRefPoint0 */
MIRP[01101]	/* MoveIndirectRelPt */
MDAP[1]	/* MoveDirectAbsPt */
MIRP[01101]	/* MoveIndirectRelPt */
SLOOP[ ]	/* SetLoopVariable */
IP[ ]	/* InterpolatePts */
MDAP[1]	/* MoveDirectAbsPt */
MIRP[01101]	/* MoveIndirectRelPt */
MIRP[01101]	/* MoveIndirectRelPt */
SRP1[ ]	/* SetRefPoint1 */
SRP2[ ]	/* SetRefPoint2 */
IP[ ]	/* InterpolatePts */
SRP1[ ]	/* SetRefPoint1 */
SRP2[ ]	/* SetRefPoint2 */
IP[ ]	/* InterpolatePts */
MDAP[1]	/* MoveDirectAbsPt */
IUP[1]	/* InterpolateUntPts */
IUP[0]	/* InterpolateUntPts */";
};
width = 2752;
}
);
note = uni0024;
unicode = 36;
}
{
glyphname = percent;
layers = (
{
layerId = m01;
shapes = (
{
closed = 1;
nodes = (
(1059,-37,o),
(1280,16,o),
(1440,120,cs),
(1531,179,o),
(1621,273,o),
(1621,378,cs),
(1621,465,o),
(1569,552,o),
(1522,619,c),
(1512,635,l),
(1457,720,o),
(1394,802,o),
(1348,891,cs),
(1302,986,o),
(1262,1084,o),
(1204,1175,cs),
(1157,1248,o),
(1082,1305,o),
(999,1339,c),
(993,1431,o),
(921,1503,o),
(828,1503,cs),
(730,1503,o),
(650,1413,o),
(657,1321,c),
(625,1302,o),
(563,1267,o),
(528,1222,cs),
(502,1183,o),
(472,1137,o),
(456,1089,cs),
(406,956,o),
(377,821,o),
(327,686,cs),
(300,616,o),
(270,557,o),
(240,472,cs),
(222,421,o),
(208,366,o),
(208,315,cs),
(208,173,o),
(323,74,o),
(474,22,cs),
(587,-18,o),
(714,-37,o),
(842,-37,cs)
);
},
{
closed = 1;
nodes = (
(728,33,o),
(604,50,o),
(500,90,cs),
(402,126,o),
(291,190,o),
(291,268,cs),
(291,277,o),
(291,288,o),
(297,297,c),
(314,341,o),
(354,384,o),
(425,426,cs),
(514,480,o),
(630,520,o),
(767,544,c),
(764,533,l),
(754,508,o),
(750,478,o),
(750,448,cs),
(750,303,o),
(862,193,o),
(1001,193,cs),
(1134,193,o),
(1254,301,o),
(1254,448,cs),
(1254,486,o),
(1246,524,o),
(1230,558,c),
(1370,536,o),
(1547,481,o),
(1547,371,cs),
(1547,205,o),
(1216,65,o),
(980,38,cs),
(947,35,o),
(891,33,o),
(853,33,cs)
);
},
{
closed = 1;
nodes = (
(309,443,o),
(307,446,o),
(307,448,cs),
(307,451,o),
(307,453,o),
(309,456,c),
(346,555,o),
(372,597,o),
(395,662,cs),
(443,796,o),
(472,932,o),
(522,1064,cs),
(545,1128,o),
(575,1180,o),
(634,1222,c),
(638,1222,l),
(645,1222,o),
(638,1203,o),
(638,1198,cs),
(567,986,o),
(572,805,o),
(500,616,cs),
(483,566,o),
(463,524,o),
(415,503,c),
(380,486,o),
(323,437,o),
(314,441,c)
);
},
{
closed = 1;
nodes = (
(760,1365,o),
(756,1366,o),
(756,1372,cs),
(756,1376,l),
(767,1403,o),
(801,1418,o),
(832,1418,cs),
(841,1418,o),
(851,1416,o),
(859,1413,c),
(872,1408,o),
(885,1397,o),
(895,1385,c),
(897,1383,o),
(899,1381,o),
(899,1376,cs),
(899,1372,l),
(895,1368,o),
(885,1366,o),
(871,1366,cs),
(860,1366,o),
(845,1368,o),
(837,1368,cs),
(834,1368,o),
(830,1368,o),
(827,1366,c),
(767,1365,ls)
);
}
);
userData = {
assembly = "NPUSHB[ ]	/* 17 values pushed */
59 0 72 34 38 54 59 67 72 6 19 36 104 65 4 0 46
PUSHW[ ]	/* 1 value pushed */
571
PUSHB[ ]	/* 3 values pushed */
2 65 2
PUSHW[ ]	/* 1 value pushed */
389
NPUSHB[ ]	/* 11 values pushed */
19 38 62 10 67 69 50 34 28 56 69
PUSHW[ ]	/* 1 value pushed */
265
NPUSHB[ ]	/* 21 values pushed */
54 41 116 42 116 10 51 116 50 116 28 56 116 22 62 116 16 10 16 233 4
PUSHW[ ]	/* 1 value pushed */
313
PUSHB[ ]	/* 6 values pushed */
0 54 28 0 233 22
MDAP[1]	/* MoveDirectAbsPt */
MIRP[00100]	/* MoveIndirectRelPt */
IP[ ]	/* InterpolatePts */
IP[ ]	/* InterpolatePts */
SRP0[ ]	/* SetRefPoint0 */
MIRP[11101]	/* MoveIndirectRelPt */
MIRP[00100]	/* MoveIndirectRelPt */
IP[ ]	/* InterpolatePts */
SRP0[ ]	/* SetRefPoint0 */
MIRP[01101]	/* MoveIndirectRelPt */
SRP0[ ]	/* SetRefPoint0 */
MIRP[01101]	/* MoveIndirectRelPt */
MDAP[1]	/* MoveDirectAbsPt */
MIRP[01101]	/* MoveIndirectRelPt */
MIRP[01101]	/* MoveIndirectRelPt */
MDAP[1]	/* MoveDirectAbsPt */
MIRP[01101]	/* MoveIndirectRelPt */
MIRP[01101]	/* MoveIndirectRelPt */
MDAP[1]	/* MoveDirectAbsPt */
MIRP[01101]	/* MoveIndirectRelPt */
SRP1[ ]	/* SetRefPoint1 */
SRP2[ ]	/* SetRefPoint2 */
IP[ ]	/* InterpolatePts */
SRP1[ ]	/* SetRefPoint1 */
SRP2[ ]	/* SetRefPoint2 */
IP[ ]	/* InterpolatePts */
SRP1[ ]	/* SetRefPoint1 */
SRP2[ ]	/* SetRefPoint2 */
IP[ ]	/* InterpolatePts */
SVTCA[0]	/* SetFreedomAndProjectionVectorToAxis */
MDAP[1]	/* MoveDirectAbsPt */
MIRP[01101]	/* MoveIndirectRelPt */
IP[ ]	/* InterpolatePts */
SRP0[ ]	/* SetRefPoint0 */
MIRP[01101]	/* MoveIndirectRelPt */
IP[ ]	/* InterpolatePts */
IP[ ]	/* InterpolatePts */
MDAP[1]	/* MoveDirectAbsPt */
MIRP[01101]	/* MoveIndirectRelPt */
SRP2[ ]	/* SetRefPoint2 */
SLOOP[ ]	/* SetLoopVariable */
IP[ ]	/* InterpolatePts */
MDAP[1]	/* MoveDirectAbsPt */
MIAP[1]	/* MoveIndirectAbsPt */
IUP[1]	/* InterpolateUntPts */
IUP[0]	/* InterpolateUntPts */";
};
width = 1830;
}
);
note = uni0025;
unicode = 37;
}
{
glyphname = ampersand;
layers = (
{
layerId = m01;
shapes = (
{
closed = 1;
nodes = (
(1279,-3,o),
(1345,10,o),
(1406,31,cs),
(1557,84,o),
(1724,101,o),
(1891,101,cs),
(2021,101,o),
(2150,86,o),
(2266,48,cs),
(2281,41,o),
(2300,37,o),
(2317,37,cs),
(2345,37,o),
(2374,67,o),
(2374,90,cs),
(2374,92,o),
(2374,94,o),
(2374,101,c),
(2374,109,o),
(2374,118,o),
(2374,128,cs),
(2374,149,o),
(2374,171,o),
(2374,209,cs),
(2374,232,o),
(2387,304,o),
(2387,317,cs),
(2385,490,o),
(2275,1066,o),
(2256,1208,cs),
(2247,1274,o),
(2247,1340,o),
(2226,1388,cs),
(2203,1441,o),
(2139,1463,o),
(2093,1479,cs),
(1951,1530,o),
(1800,1579,o),
(1650,1579,cs),
(1504,1579,o),
(1351,1535,o),
(1248,1407,c),
(1144,1535,o),
(989,1579,o),
(843,1579,cs),
(695,1579,o),
(542,1532,o),
(400,1479,cs),
(354,1463,o),
(288,1441,o),
(267,1388,cs),
(248,1340,o),
(246,1278,o),
(237,1208,cs),
(218,1066,o),
(110,490,o),
(106,317,cs),
(106,304,o),
(121,232,o),
(121,209,cs),
(121,185,ls),
(121,164,o),
(119,143,o),
(119,122,cs),
(119,105,o),
(117,97,o),
(117,90,cs),
(117,56,o),
(159,37,o),
(176,37,cs),
(193,37,o),
(210,44,o),
(225,48,cs),
(343,88,o),
(475,101,o),
(602,101,cs),
(769,101,o),
(940,84,o),
(1087,31,cs),
(1148,8,o),
(1216,-3,o),
(1248,-3,cs)
);
},
{
closed = 1;
nodes = (
(1021,592,o),
(1040,615,o),
(1040,634,cs),
(1040,649,o),
(1034,658,o),
(1017,666,cs),
(924,711,o),
(826,730,o),
(724,730,cs),
(619,730,o),
(511,709,o),
(409,673,cs),
(392,666,o),
(388,654,o),
(388,643,cs),
(388,624,o),
(400,607,o),
(419,607,cs),
(424,607,o),
(426,607,o),
(430,609,cs),
(521,637,o),
(600,662,o),
(697,662,cs),
(790,662,o),
(894,630,o),
(979,596,cs),
(985,594,o),
(991,592,o),
(998,592,cs)
);
},
{
closed = 1;
nodes = (
(1040,800,o),
(1051,819,o),
(1051,838,cs),
(1051,848,o),
(1048,857,o),
(1040,865,cs),
(1036,870,ls),
(1017,886,o),
(989,893,o),
(966,901,cs),
(888,931,o),
(794,946,o),
(703,946,cs),
(604,946,o),
(500,927,o),
(415,882,cs),
(403,876,o),
(398,867,o),
(398,857,cs),
(398,840,o),
(415,821,o),
(434,821,cs),
(436,821,o),
(441,821,o),
(443,823,cs),
(536,848,o),
(623,863,o),
(720,863,cs),
(786,863,o),
(847,853,o),
(911,836,cs),
(932,829,o),
(951,825,o),
(970,817,cs),
(985,810,o),
(1006,800,o),
(1021,800,cs)
);
},
{
closed = 1;
nodes = (
(1163,323,o),
(1127,346,o),
(1101,359,cs),
(991,412,o),
(873,444,o),
(701,444,cs),
(564,444,o),
(430,423,o),
(299,385,cs),
(275,378,o),
(239,361,o),
(231,361,cs),
(220,361,o),
(214,376,o),
(214,389,cs),
(214,431,o),
(225,482,o),
(233,526,cs),
(259,675,o),
(286,825,o),
(307,975,cs),
(322,1075,o),
(328,1179,o),
(345,1278,cs),
(352,1321,o),
(358,1350,o),
(392,1376,cs),
(458,1422,o),
(540,1437,o),
(616,1456,cs),
(695,1475,o),
(767,1490,o),
(845,1490,cs),
(938,1490,o),
(1032,1458,o),
(1108,1397,cs),
(1150,1363,o),
(1197,1331,o),
(1201,1283,c),
(1192,1130,o),
(1192,842,o),
(1192,626,cs),
(1192,478,o),
(1192,361,o),
(1192,342,cs),
(1192,327,o),
(1188,323,o),
(1182,323,cs)
);
},
{
closed = 1;
nodes = (
(1048,1003,o),
(1063,1026,o),
(1063,1047,cs),
(1063,1060,o),
(1059,1073,o),
(1044,1079,cs),
(943,1124,o),
(824,1151,o),
(708,1151,cs),
(619,1151,o),
(530,1136,o),
(449,1094,cs),
(436,1088,o),
(432,1077,o),
(432,1066,cs),
(432,1050,o),
(449,1033,o),
(468,1033,cs),
(475,1033,o),
(477,1033,o),
(483,1035,cs),
(547,1062,o),
(614,1075,o),
(682,1075,cs),
(794,1075,o),
(911,1043,o),
(1012,1005,cs),
(1017,1005,o),
(1021,1003,o),
(1025,1003,cs)
);
},
{
closed = 1;
nodes = (
(1051,1208,o),
(1074,1232,o),
(1074,1255,cs),
(1074,1268,o),
(1065,1283,o),
(1051,1289,cs),
(964,1327,o),
(862,1350,o),
(760,1350,cs),
(661,1350,o),
(566,1329,o),
(481,1289,cs),
(466,1283,o),
(462,1274,o),
(462,1261,cs),
(462,1240,o),
(479,1219,o),
(504,1219,cs),
(508,1219,o),
(515,1221,o),
(521,1223,cs),
(587,1255,o),
(665,1270,o),
(744,1270,cs),
(837,1270,o),
(930,1249,o),
(1006,1213,cs),
(1012,1208,o),
(1019,1208,o),
(1025,1208,cs)
);
},
{
closed = 1;
nodes = (
(1502,592,o),
(1508,594,o),
(1514,596,cs),
(1599,630,o),
(1703,662,o),
(1798,662,cs),
(1893,662,o),
(1972,634,o),
(2063,609,cs),
(2067,607,o),
(2069,607,o),
(2074,607,cs),
(2095,607,o),
(2105,624,o),
(2105,641,cs),
(2105,654,o),
(2101,666,o),
(2084,673,cs),
(1982,709,o),
(1874,730,o),
(1766,730,cs),
(1667,730,o),
(1569,711,o),
(1476,666,cs),
(1459,658,o),
(1453,649,o),
(1453,634,cs),
(1453,615,o),
(1472,592,o),
(1495,592,cs)
);
},
{
closed = 1;
nodes = (
(1489,800,o),
(1508,810,o),
(1523,817,cs),
(1544,827,o),
(1561,829,o),
(1582,836,cs),
(1650,855,o),
(1716,863,o),
(1788,863,cs),
(1879,863,o),
(1961,846,o),
(2050,823,cs),
(2052,821,o),
(2054,821,o),
(2059,821,cs),
(2078,821,o),
(2095,840,o),
(2095,857,cs),
(2095,867,o),
(2090,876,o),
(2078,882,cs),
(1993,927,o),
(1889,946,o),
(1790,946,cs),
(1699,946,o),
(1603,931,o),
(1527,901,cs),
(1504,893,o),
(1476,884,o),
(1457,870,c),
(1453,865,ls),
(1447,857,o),
(1442,846,o),
(1442,836,cs),
(1442,817,o),
(1453,800,o),
(1472,800,cs)
);
},
{
closed = 1;
nodes = (
(1303,323,o),
(1301,325,o),
(1301,342,cs),
(1301,359,o),
(1301,469,o),
(1301,609,cs),
(1301,827,o),
(1301,1126,o),
(1292,1283,c),
(1296,1331,o),
(1343,1363,o),
(1385,1397,cs),
(1461,1458,o),
(1555,1490,o),
(1648,1490,cs),
(1724,1490,o),
(1800,1475,o),
(1879,1456,cs),
(1955,1437,o),
(2035,1422,o),
(2101,1376,cs),
(2135,1350,o),
(2141,1321,o),
(2148,1278,cs),
(2162,1179,o),
(2173,1075,o),
(2186,975,cs),
(2211,791,o),
(2251,609,o),
(2273,425,cs),
(2275,414,o),
(2279,402,o),
(2279,389,cs),
(2279,380,o),
(2277,372,o),
(2273,365,cs),
(2268,361,o),
(2266,361,o),
(2262,361,cs),
(2254,361,o),
(2215,378,o),
(2194,385,cs),
(2065,423,o),
(1929,444,o),
(1794,444,cs),
(1629,444,o),
(1485,412,o),
(1339,332,cs),
(1330,327,o),
(1320,323,o),
(1311,323,cs)
);
},
{
closed = 1;
nodes = (
(1472,1003,o),
(1476,1005,o),
(1481,1005,cs),
(1582,1043,o),
(1699,1075,o),
(1811,1075,cs),
(1879,1075,o),
(1946,1062,o),
(2010,1035,cs),
(2016,1033,o),
(2021,1033,o),
(2023,1033,cs),
(2044,1033,o),
(2063,1052,o),
(2063,1066,cs),
(2063,1077,o),
(2057,1088,o),
(2044,1094,cs),
(1965,1136,o),
(1877,1151,o),
(1785,1151,cs),
(1669,1151,o),
(1550,1124,o),
(1449,1079,cs),
(1434,1073,o),
(1430,1060,o),
(1430,1047,cs),
(1430,1026,o),
(1447,1003,o),
(1468,1003,cs)
);
},
{
closed = 1;
nodes = (
(1472,1208,o),
(1481,1208,o),
(1487,1213,cs),
(1563,1249,o),
(1656,1270,o),
(1749,1270,cs),
(1828,1270,o),
(1906,1255,o),
(1974,1223,cs),
(1978,1221,o),
(1985,1219,o),
(1991,1219,cs),
(2014,1219,o),
(2031,1240,o),
(2031,1261,cs),
(2031,1272,o),
(2027,1283,o),
(2012,1289,cs),
(1929,1329,o),
(1832,1350,o),
(1733,1350,cs),
(1641,1350,o),
(1419,1319,o),
(1419,1255,cs),
(1419,1232,o),
(1440,1208,o),
(1468,1208,cs)
);
}
);
userData = {
assembly = "NPUSHB[ ]	/* 52 values pushed */
86 65 1 33 11 17 23 24 51 52 87 88 8 84 10 25 27 28 29 37 38 39 48 55 8 9 78 1 7 30 31 33 35 36 41 47 49 54 56 57 59 65 66 67 72 74 80 96 21 62 44 9
PUSHW[ ]	/* 1 value pushed */
519
NPUSHB[ ]	/* 18 values pushed */
8 50 53 70 75 99 102 6 78 104 62 40 26 44 104 4 0 25
PUSHW[ ]	/* 1 value pushed */
519
NPUSHB[ ]	/* 11 values pushed */
0 91 20 84 104 14 8 4 62 3 14
PUSHW[ ]	/* 1 value pushed */
287
NPUSHB[ ]	/* 54 values pushed */
0 0 96 23 24 66 3 54 53 1 7 17 31 35 41 47 57 59 74 96 11 102 75 10 11 56 3 50 49 28 54 116 30 38 49 116 36 67 102 116 53 65 75 116 50 40 116 8 26 116 0 30 53 0
PUSHW[ ]	/* 1 value pushed */
281
PUSHB[ ]	/* 6 values pushed */
72 116 80 50 36 80
PUSHW[ ]	/* 2 values pushed */
281 8
MDAP[1]	/* MoveDirectAbsPt */
MIRP[01101]	/* MoveIndirectRelPt */
IP[ ]	/* InterpolatePts */
IP[ ]	/* InterpolatePts */
SRP0[ ]	/* SetRefPoint0 */
MIRP[11101]	/* MoveIndirectRelPt */
MIRP[01101]	/* MoveIndirectRelPt */
IP[ ]	/* InterpolatePts */
IP[ ]	/* InterpolatePts */
SRP0[ ]	/* SetRefPoint0 */
MIRP[01101]	/* MoveIndirectRelPt */
SRP0[ ]	/* SetRefPoint0 */
MIRP[01101]	/* MoveIndirectRelPt */
MDAP[1]	/* MoveDirectAbsPt */
MIRP[01101]	/* MoveIndirectRelPt */
IP[ ]	/* InterpolatePts */
MDAP[1]	/* MoveDirectAbsPt */
MIRP[01101]	/* MoveIndirectRelPt */
IP[ ]	/* InterpolatePts */
MDAP[1]	/* MoveDirectAbsPt */
MIRP[01101]	/* MoveIndirectRelPt */
IP[ ]	/* InterpolatePts */
MDAP[1]	/* MoveDirectAbsPt */
MIRP[01101]	/* MoveIndirectRelPt */
IP[ ]	/* InterpolatePts */
SRP1[ ]	/* SetRefPoint1 */
SRP2[ ]	/* SetRefPoint2 */
SLOOP[ ]	/* SetLoopVariable */
IP[ ]	/* InterpolatePts */
SRP1[ ]	/* SetRefPoint1 */
SRP2[ ]	/* SetRefPoint2 */
SLOOP[ ]	/* SetLoopVariable */
IP[ ]	/* InterpolatePts */
SRP1[ ]	/* SetRefPoint1 */
SRP2[ ]	/* SetRefPoint2 */
SLOOP[ ]	/* SetLoopVariable */
IP[ ]	/* InterpolatePts */
MDAP[1]	/* MoveDirectAbsPt */
SVTCA[0]	/* SetFreedomAndProjectionVectorToAxis */
MIAP[1]	/* MoveIndirectAbsPt */
MIRP[01101]	/* MoveIndirectRelPt */
SLOOP[ ]	/* SetLoopVariable */
IP[ ]	/* InterpolatePts */
SRP0[ ]	/* SetRefPoint0 */
MIRP[01101]	/* MoveIndirectRelPt */
IP[ ]	/* InterpolatePts */
IP[ ]	/* InterpolatePts */
SRP0[ ]	/* SetRefPoint0 */
MIRP[01110]	/* MoveIndirectRelPt */
MIAP[1]	/* MoveIndirectAbsPt */
MIRP[01101]	/* MoveIndirectRelPt */
IP[ ]	/* InterpolatePts */
IP[ ]	/* InterpolatePts */
MDAP[1]	/* MoveDirectAbsPt */
MIRP[01101]	/* MoveIndirectRelPt */
SLOOP[ ]	/* SetLoopVariable */
IP[ ]	/* InterpolatePts */
SRP0[ ]	/* SetRefPoint0 */
MIRP[01110]	/* MoveIndirectRelPt */
SRP1[ ]	/* SetRefPoint1 */
SRP2[ ]	/* SetRefPoint2 */
SLOOP[ ]	/* SetLoopVariable */
IP[ ]	/* InterpolatePts */
SRP1[ ]	/* SetRefPoint1 */
SRP2[ ]	/* SetRefPoint2 */
SLOOP[ ]	/* SetLoopVariable */
IP[ ]	/* InterpolatePts */
SRP1[ ]	/* SetRefPoint1 */
IP[ ]	/* InterpolatePts */
SRP2[ ]	/* SetRefPoint2 */
SLOOP[ ]	/* SetLoopVariable */
IP[ ]	/* InterpolatePts */
MDAP[1]	/* MoveDirectAbsPt */
IUP[1]	/* InterpolateUntPts */
IUP[0]	/* InterpolateUntPts */
SVTCA[1]	/* SetFreedomAndProjectionVectorToAxis */
DELTAP1[ ]	/* DeltaExceptionP1 */";
};
width = 2492;
}
);
note = uni0026;
unicode = 38;
}
{
glyphname = quotesingle;
layers = (
{
layerId = m01;
shapes = (
{
closed = 1;
nodes = (
(610,-36,o),
(722,-4,o),
(738,37,c),
(736,266,o),
(733,495,o),
(731,724,c),
(784,737,o),
(807,783,o),
(807,836,cs),
(807,906,o),
(767,948,o),
(729,957,cs),
(722,959,o),
(715,961,o),
(706,961,cs),
(651,961,o),
(621,915,o),
(591,897,cs),
(555,875,o),
(514,863,o),
(475,861,c),
(468,861,ls),
(438,861,o),
(409,870,o),
(372,891,cs),
(326,918,o),
(303,929,o),
(258,929,cs),
(203,929,o),
(155,891,o),
(145,840,cs),
(143,831,o),
(141,820,o),
(141,811,cs),
(141,799,o),
(143,787,o),
(145,774,c),
(145,769,o),
(148,753,o),
(148,739,cs),
(148,721,o),
(145,700,o),
(143,682,cs),
(141,660,o),
(138,641,o),
(138,621,cs),
(138,584,o),
(146,545,o),
(184,545,cs),
(187,545,o),
(191,545,o),
(194,545,cs),
(200,545,l),
(200,389,o),
(202,234,o),
(202,79,cs),
(202,51,o),
(214,24,o),
(246,5,cs),
(303,-31,o),
(349,-36,o),
(470,-36,cs)
);
},
{
closed = 1;
nodes = (
(324,302,o),
(306,318,o),
(306,348,cs),
(306,367,o),
(310,394,o),
(319,426,cs),
(326,449,o),
(329,470,o),
(331,488,cs),
(338,566,o),
(345,591,o),
(345,662,cs),
(345,712,o),
(337,739,o),
(312,744,c),
(308,746,o),
(306,746,o),
(303,746,cs),
(271,746,o),
(253,717,o),
(232,646,cs),
(214,589,o),
(207,575,o),
(194,575,cs),
(193,575,l),
(177,577,o),
(170,589,o),
(170,620,cs),
(170,637,o),
(171,655,o),
(175,675,cs),
(180,701,o),
(180,723,o),
(180,739,cs),
(180,749,o),
(178,769,o),
(177,779,c),
(175,792,o),
(173,803,o),
(173,813,cs),
(173,858,o),
(212,897,o),
(258,897,cs),
(266,897,l),
(292,895,o),
(322,884,o),
(356,865,cs),
(397,842,o),
(431,829,o),
(468,829,cs),
(477,829,l),
(521,831,o),
(568,845,o),
(603,868,cs),
(617,877,o),
(628,884,o),
(639,893,cs),
(662,911,o),
(679,929,o),
(706,929,cs),
(711,929,o),
(717,929,o),
(719,927,c),
(752,920,o),
(777,879,o),
(777,835,cs),
(777,795,o),
(759,767,o),
(727,756,c),
(724,755,o),
(719,755,o),
(715,755,cs),
(699,755,o),
(679,762,o),
(662,774,c),
(662,772,l),
(648,783,o),
(632,788,o),
(614,788,cs),
(592,788,o),
(569,778,o),
(553,760,cs),
(534,737,o),
(534,710,o),
(534,685,cs),
(534,666,ls),
(534,630,o),
(525,607,o),
(507,607,cs),
(495,607,o),
(480,623,o),
(475,644,cs),
(468,676,o),
(465,698,o),
(434,698,cs),
(402,698,o),
(386,669,o),
(376,607,cs),
(369,568,o),
(367,536,o),
(367,504,cs),
(367,490,o),
(367,476,o),
(369,463,cs),
(374,428,o),
(385,403,o),
(385,360,cs),
(385,330,o),
(361,302,o),
(342,302,cs)
);
},
{
closed = 1;
nodes = (
(436,1000,o),
(404,1048,o),
(404,1090,cs),
(404,1103,o),
(406,1114,o),
(411,1126,cs),
(425,1158,o),
(459,1151,o),
(480,1193,cs),
(488,1209,o),
(493,1225,o),
(493,1243,cs),
(493,1247,o),
(493,1249,o),
(493,1250,c),
(491,1256,o),
(489,1257,o),
(489,1263,c),
(491,1265,l),
(495,1265,o),
(496,1259,o),
(498,1257,c),
(537,1215,o),
(557,1151,o),
(557,1096,cs),
(557,1050,o),
(528,1000,o),
(480,1000,cs)
);
},
{
closed = 1;
nodes = (
(555,952,o),
(640,1002,o),
(662,1092,c),
(663,1101,o),
(665,1112,o),
(665,1122,cs),
(665,1145,o),
(656,1170,o),
(642,1190,cs),
(623,1217,o),
(598,1234,o),
(584,1259,cs),
(576,1272,o),
(569,1286,o),
(569,1305,cs),
(569,1309,o),
(569,1312,o),
(569,1316,c),
(576,1362,o),
(600,1405,o),
(600,1453,cs),
(600,1460,o),
(598,1467,o),
(598,1474,cs),
(598,1497,o),
(566,1579,o),
(532,1579,cs),
(530,1579,o),
(527,1577,o),
(525,1577,c),
(525,1574,o),
(527,1572,o),
(528,1568,cs),
(536,1554,o),
(546,1536,o),
(546,1515,cs),
(546,1476,o),
(523,1442,o),
(495,1412,cs),
(420,1334,o),
(294,1240,o),
(294,1121,cs),
(294,1101,o),
(297,1082,o),
(306,1062,cs),
(340,989,o),
(401,952,o),
(472,952,cs)
);
}
);
userData = {
assembly = "PUSHB[ ]	/* 7 values pushed */
71 0 1 19 104 49 59
PUSHW[ ]	/* 1 value pushed */
572
NPUSHB[ ]	/* 16 values pushed */
54 35 30 43 67 61 48 54 71 8 54 104 64 20 0 48
PUSHW[ ]	/* 1 value pushed */
565
PUSHB[ ]	/* 4 values pushed */
43 43 64 30
PUSHW[ ]	/* 1 value pushed */
526
NPUSHB[ ]	/* 29 values pushed */
8 1 19 28 1 19 28 30 35 5 46 40 116 23 46 116 32 51 120 68 116 13 74 116 57 120 5 32 5
PUSHW[ ]	/* 1 value pushed */
323
PUSHB[ ]	/* 5 values pushed */
60 116 48 23 48
PUSHW[ ]	/* 2 values pushed */
323 13
MDAP[1]	/* MoveDirectAbsPt */
MIRP[00100]	/* MoveIndirectRelPt */
IP[ ]	/* InterpolatePts */
SRP0[ ]	/* SetRefPoint0 */
MIRP[11101]	/* MoveIndirectRelPt */
MIRP[00100]	/* MoveIndirectRelPt */
IP[ ]	/* InterpolatePts */
SRP0[ ]	/* SetRefPoint0 */
MIRP[01101]	/* MoveIndirectRelPt */
MIRP[01101]	/* MoveIndirectRelPt */
SRP0[ ]	/* SetRefPoint0 */
MIRP[01101]	/* MoveIndirectRelPt */
MIRP[01101]	/* MoveIndirectRelPt */
MDAP[1]	/* MoveDirectAbsPt */
MIRP[01101]	/* MoveIndirectRelPt */
MDAP[1]	/* MoveDirectAbsPt */
MIRP[11101]	/* MoveIndirectRelPt */
SRP1[ ]	/* SetRefPoint1 */
SLOOP[ ]	/* SetLoopVariable */
IP[ ]	/* InterpolatePts */
MDAP[1]	/* MoveDirectAbsPt */
MDAP[1]	/* MoveDirectAbsPt */
MDAP[1]	/* MoveDirectAbsPt */
SVTCA[0]	/* SetFreedomAndProjectionVectorToAxis */
MDAP[1]	/* MoveDirectAbsPt */
MIRP[00100]	/* MoveIndirectRelPt */
IP[ ]	/* InterpolatePts */
IP[ ]	/* InterpolatePts */
MDAP[1]	/* MoveDirectAbsPt */
MIRP[01101]	/* MoveIndirectRelPt */
IP[ ]	/* InterpolatePts */
IP[ ]	/* InterpolatePts */
MDAP[1]	/* MoveDirectAbsPt */
MIRP[01101]	/* MoveIndirectRelPt */
SRP2[ ]	/* SetRefPoint2 */
IP[ ]	/* InterpolatePts */
SRP1[ ]	/* SetRefPoint1 */
SRP2[ ]	/* SetRefPoint2 */
IP[ ]	/* InterpolatePts */
IP[ ]	/* InterpolatePts */
SRP1[ ]	/* SetRefPoint1 */
SRP2[ ]	/* SetRefPoint2 */
IP[ ]	/* InterpolatePts */
SRP0[ ]	/* SetRefPoint0 */
MIRP[10110]	/* MoveIndirectRelPt */
ALIGNRP[ ]	/* AlignRelativePt */
MIRP[11101]	/* MoveIndirectRelPt */
ALIGNRP[ ]	/* AlignRelativePt */
MIAP[1]	/* MoveIndirectAbsPt */
IUP[1]	/* InterpolateUntPts */
IUP[0]	/* InterpolateUntPts */";
};
width = 938;
}
);
note = uni0027;
unicode = 39;
}
{
glyphname = parenleft;
layers = (
{
layerId = m01;
shapes = (
{
closed = 1;
nodes = (
(591,0,ls),
(611,0,o),
(622,7,o),
(622,22,cs),
(622,68,l),
(1598,68,l),
(1598,22,ls),
(1598,4,o),
(1605,0,o),
(1629,0,cs),
(1775,0,ls),
(1799,0,o),
(1807,4,o),
(1807,22,cs),
(1807,68,l),
(1897,68,l),
(1897,462,l),
(1478,850,l),
(1478,1147,l),
(1518,1127,o),
(1537,1090,o),
(1537,1033,c),
(1535,968,l),
(1535,937,l),
(1603,909,o),
(1738,885,o),
(1882,885,cs),
(1951,885,o),
(2008,891,o),
(2056,900,c),
(2056,911,l),
(2043,1286,o),
(1733,1480,o),
(1243,1480,cs),
(977,1480,ls),
(482,1480,o),
(175,1282,o),
(164,911,cs),
(164,900,l),
(212,891,o),
(271,885,o),
(336,885,cs),
(484,887,o),
(617,909,o),
(685,937,c),
(685,968,l),
(683,1033,l),
(683,1090,o),
(702,1129,o),
(742,1147,c),
(742,850,l),
(323,462,l),
(323,68,l),
(413,68,l),
(413,22,ls),
(413,4,o),
(421,0,o),
(443,0,cs)
);
},
{
closed = 1;
nodes = (
(576,741,o),
(663,785,o),
(678,902,c),
(598,872,o),
(489,857,o),
(349,857,cs),
(277,857,o),
(216,863,o),
(164,872,c),
(164,833,ls),
(164,804,o),
(179,780,o),
(214,765,cs),
(247,750,o),
(297,741,o),
(362,741,cs)
);
},
{
closed = 1;
nodes = (
(779,604,l),
(907,604,l),
(881,538,l),
(742,538,l)
);
},
{
closed = 1;
nodes = (
(831,700,l),
(944,700,l),
(923,643,l),
(800,643,l)
);
},
{
closed = 1;
nodes = (
(879,785,l),
(977,785,l),
(960,739,l),
(853,739,l)
);
},
{
closed = 1;
nodes = (
(1045,604,l),
(1175,604,l),
(1180,538,l),
(1040,538,l)
);
},
{
closed = 1;
nodes = (
(1053,700,l),
(1167,700,l),
(1171,643,l),
(1049,643,l)
);
},
{
closed = 1;
nodes = (
(1060,785,l),
(1158,785,l),
(1162,739,l),
(1056,739,l)
);
},
{
closed = 1;
nodes = (
(1313,604,l),
(1441,604,l),
(1478,538,l),
(1339,538,l)
);
},
{
closed = 1;
nodes = (
(1273,700,l),
(1387,700,l),
(1417,643,l),
(1297,643,l)
);
},
{
closed = 1;
nodes = (
(1241,785,l),
(1339,785,l),
(1365,739,l),
(1260,739,l)
);
},
{
closed = 1;
nodes = (
(971,1173,l),
(1034,1168,o),
(1079,1164,o),
(1110,1164,cs),
(1141,1164,o),
(1186,1168,o),
(1249,1173,c),
(1249,1077,l),
(971,1077,l)
);
},
{
closed = 1;
nodes = (
(1923,741,o),
(1973,750,o),
(2006,765,cs),
(2039,780,o),
(2056,804,o),
(2056,833,cs),
(2056,872,l),
(2004,863,o),
(1943,857,o),
(1869,857,cs),
(1729,857,o),
(1622,872,o),
(1542,902,c),
(1548,854,o),
(1566,822,o),
(1590,802,cs),
(1640,761,o),
(1712,741,o),
(1858,741,cs)
);
}
);
userData = {
assembly = "NPUSHW[ ]	/* 17 values pushed */
2 574 24 4 574 34 6 574 32 12 574 36 14 574 46 16 574
NPUSHB[ ]	/* 42 values pushed */
44 4 14 24 32 36 44 50 5 63 48 62 52 46 65 73 69 68 28 74 70 67 77 85 81 80 79 86 82 78 92 97 93 89 90 79 134 92 78 134 89 28
PUSHW[ ]	/* 1 value pushed */
420
PUSHB[ ]	/* 8 values pushed */
34 66 134 77 67 134 80 65
NPUSHW[ ]	/* 11 values pushed */
330 63 330 68 414 48 40 420 46 90 453
PUSHB[ ]	/* 3 values pushed */
98 94 91
PUSHW[ ]	/* 1 value pushed */
453
PUSHB[ ]	/* 4 values pushed */
58 18 0 9
PUSHW[ ]	/* 1 value pushed */
565
NPUSHB[ ]	/* 10 values pushed */
21 89 92 77 80 46 34 48 7 21
PUSHW[ ]	/* 1 value pushed */
525
NPUSHB[ ]	/* 54 values pushed */
58 0 12 37 2 0 25 57 6 31 52 82 70 94 48 79 67 91 90 37 12 62 18 16 58 43 87 75 99 143 52 57 216 25 58 216 43 71 74 83 86 4 95 143 98 78 66 90 143 62 94 143 91 48
PUSHW[ ]	/* 1 value pushed */
322
PUSHB[ ]	/* 4 values pushed */
62 205 98 49
PUSHW[ ]	/* 1 value pushed */
322
PUSHB[ ]	/* 4 values pushed */
52 205 91 31
PUSHW[ ]	/* 8 values pushed */
456 25 573 98 328 91 573 43
MDAP[1]	/* MoveDirectAbsPt */
MIRP[10100]	/* MoveIndirectRelPt */
MIRP[11101]	/* MoveIndirectRelPt */
MIRP[10100]	/* MoveIndirectRelPt */
MIRP[01101]	/* MoveIndirectRelPt */
SRP0[ ]	/* SetRefPoint0 */
MIRP[11101]	/* MoveIndirectRelPt */
MIRP[01101]	/* MoveIndirectRelPt */
SRP0[ ]	/* SetRefPoint0 */
MIRP[11101]	/* MoveIndirectRelPt */
MIRP[01101]	/* MoveIndirectRelPt */
SRP0[ ]	/* SetRefPoint0 */
MIRP[01101]	/* MoveIndirectRelPt */
SRP0[ ]	/* SetRefPoint0 */
MIRP[01101]	/* MoveIndirectRelPt */
IP[ ]	/* InterpolatePts */
IP[ ]	/* InterpolatePts */
SRP0[ ]	/* SetRefPoint0 */
MIRP[01101]	/* MoveIndirectRelPt */
SLOOP[ ]	/* SetLoopVariable */
IP[ ]	/* InterpolatePts */
SRP0[ ]	/* SetRefPoint0 */
MIRP[00100]	/* MoveIndirectRelPt */
SRP0[ ]	/* SetRefPoint0 */
MIRP[00100]	/* MoveIndirectRelPt */
SRP0[ ]	/* SetRefPoint0 */
MIRP[01101]	/* MoveIndirectRelPt */
IP[ ]	/* InterpolatePts */
IP[ ]	/* InterpolatePts */
SRP1[ ]	/* SetRefPoint1 */
SRP2[ ]	/* SetRefPoint2 */
IP[ ]	/* InterpolatePts */
IP[ ]	/* InterpolatePts */
SRP1[ ]	/* SetRefPoint1 */
IP[ ]	/* InterpolatePts */
IP[ ]	/* InterpolatePts */
SRP1[ ]	/* SetRefPoint1 */
SRP2[ ]	/* SetRefPoint2 */
IP[ ]	/* InterpolatePts */
IP[ ]	/* InterpolatePts */
SRP1[ ]	/* SetRefPoint1 */
SRP2[ ]	/* SetRefPoint2 */
IP[ ]	/* InterpolatePts */
IP[ ]	/* InterpolatePts */
SRP1[ ]	/* SetRefPoint1 */
SRP2[ ]	/* SetRefPoint2 */
IP[ ]	/* InterpolatePts */
SRP1[ ]	/* SetRefPoint1 */
SRP2[ ]	/* SetRefPoint2 */
IP[ ]	/* InterpolatePts */
IP[ ]	/* InterpolatePts */
MDAP[1]	/* MoveDirectAbsPt */
MDAP[1]	/* MoveDirectAbsPt */
SVTCA[0]	/* SetFreedomAndProjectionVectorToAxis */
MIAP[1]	/* MoveIndirectAbsPt */
MIRP[01101]	/* MoveIndirectRelPt */
SLOOP[ ]	/* SetLoopVariable */
IP[ ]	/* InterpolatePts */
SRP0[ ]	/* SetRefPoint0 */
MIRP[01101]	/* MoveIndirectRelPt */
IP[ ]	/* InterpolatePts */
IP[ ]	/* InterpolatePts */
SRP0[ ]	/* SetRefPoint0 */
MIRP[01101]	/* MoveIndirectRelPt */
IP[ ]	/* InterpolatePts */
IP[ ]	/* InterpolatePts */
MIRP[01101]	/* MoveIndirectRelPt */
MDAP[1]	/* MoveDirectAbsPt */
MIRP[01101]	/* MoveIndirectRelPt */
MDAP[1]	/* MoveDirectAbsPt */
MIRP[11101]	/* MoveIndirectRelPt */
MIRP[11101]	/* MoveIndirectRelPt */
MIRP[01101]	/* MoveIndirectRelPt */
MDAP[1]	/* MoveDirectAbsPt */
MIRP[01101]	/* MoveIndirectRelPt */
MDAP[1]	/* MoveDirectAbsPt */
MIRP[01101]	/* MoveIndirectRelPt */
MDAP[1]	/* MoveDirectAbsPt */
MIRP[01101]	/* MoveIndirectRelPt */
MDAP[1]	/* MoveDirectAbsPt */
MIRP[01101]	/* MoveIndirectRelPt */
MDAP[1]	/* MoveDirectAbsPt */
MIRP[01101]	/* MoveIndirectRelPt */
SRP1[ ]	/* SetRefPoint1 */
SRP2[ ]	/* SetRefPoint2 */
IP[ ]	/* InterpolatePts */
IP[ ]	/* InterpolatePts */
SRP1[ ]	/* SetRefPoint1 */
SRP2[ ]	/* SetRefPoint2 */
IP[ ]	/* InterpolatePts */
IP[ ]	/* InterpolatePts */
SRP1[ ]	/* SetRefPoint1 */
SRP2[ ]	/* SetRefPoint2 */
IP[ ]	/* InterpolatePts */
IP[ ]	/* InterpolatePts */
SRP1[ ]	/* SetRefPoint1 */
SRP2[ ]	/* SetRefPoint2 */
IP[ ]	/* InterpolatePts */
IP[ ]	/* InterpolatePts */
SRP1[ ]	/* SetRefPoint1 */
SRP2[ ]	/* SetRefPoint2 */
IP[ ]	/* InterpolatePts */
IP[ ]	/* InterpolatePts */
SRP1[ ]	/* SetRefPoint1 */
SRP2[ ]	/* SetRefPoint2 */
IP[ ]	/* InterpolatePts */
IP[ ]	/* InterpolatePts */
SRP1[ ]	/* SetRefPoint1 */
SRP2[ ]	/* SetRefPoint2 */
SLOOP[ ]	/* SetLoopVariable */
IP[ ]	/* InterpolatePts */
MDAP[1]	/* MoveDirectAbsPt */
MDAP[1]	/* MoveDirectAbsPt */
SRP0[ ]	/* SetRefPoint0 */
MIRP[00110]	/* MoveIndirectRelPt */
SRP0[ ]	/* SetRefPoint0 */
MIRP[00110]	/* MoveIndirectRelPt */
SRP0[ ]	/* SetRefPoint0 */
MIRP[00110]	/* MoveIndirectRelPt */
SRP0[ ]	/* SetRefPoint0 */
MIRP[00110]	/* MoveIndirectRelPt */
SRP0[ ]	/* SetRefPoint0 */
MIRP[00110]	/* MoveIndirectRelPt */
SRP0[ ]	/* SetRefPoint0 */
MIRP[00110]	/* MoveIndirectRelPt */
IUP[1]	/* InterpolateUntPts */
IUP[0]	/* InterpolateUntPts */";
};
width = 2220;
}
);
note = uni0028;
unicode = 40;
}
{
glyphname = parenright;
layers = (
{
layerId = m01;
shapes = (
{
closed = 1;
nodes = (
(1141,0,o),
(1330,94,o),
(1330,246,cs),
(1330,291,o),
(1310,335,o),
(1271,380,c),
(1294,420,o),
(1308,442,o),
(1308,479,cs),
(1308,585,o),
(1183,918,o),
(1067,1088,cs),
(950,1260,o),
(914,1288,o),
(807,1288,cs),
(765,1288,o),
(736,1287,o),
(716,1282,c),
(716,1250,ls),
(716,1147,o),
(743,1066,o),
(795,1006,c),
(807,1006,ls),
(852,1006,o),
(887,994,o),
(911,967,cs),
(958,912,o),
(1071,659,o),
(1071,614,cs),
(1071,584,o),
(1057,553,o),
(1029,528,c),
(1044,439,o),
(1099,362,o),
(1195,298,c),
(1236,331,l),
(1257,308,o),
(1266,283,o),
(1266,256,cs),
(1266,143,o),
(1130,67,o),
(909,67,cs),
(674,67,o),
(457,195,o),
(329,404,cs),
(265,508,o),
(235,622,o),
(235,742,cs),
(235,982,o),
(363,1209,o),
(573,1327,cs),
(677,1386,o),
(788,1416,o),
(909,1416,cs),
(1153,1416,o),
(1379,1280,o),
(1498,1071,cs),
(1557,969,o),
(1587,859,o),
(1587,742,cs),
(1587,568,o),
(1530,434,o),
(1402,279,c),
(1410,276,o),
(1422,271,o),
(1437,271,cs),
(1527,271,o),
(1651,531,o),
(1651,742,cs),
(1651,1004,o),
(1508,1245,o),
(1278,1379,cs),
(1163,1446,o),
(1040,1480,o),
(909,1480,cs),
(649,1480,o),
(400,1339,o),
(270,1110,cs),
(205,994,o),
(171,873,o),
(171,742,cs),
(171,481,o),
(316,230,o),
(544,99,cs),
(659,34,o),
(780,0,o),
(909,0,cs)
);
},
{
closed = 1;
nodes = (
(1069,234,o),
(1071,235,o),
(1072,235,cs),
(1076,235,o),
(1106,251,o),
(1168,279,c),
(1071,343,o),
(1010,429,o),
(998,516,c),
(943,474,ls),
(924,461,o),
(914,444,o),
(914,429,cs),
(914,382,o),
(1022,234,o),
(1066,234,cs)
);
},
{
closed = 1;
nodes = (
(684,965,o),
(714,974,o),
(770,991,c),
(704,1071,o),
(686,1139,o),
(686,1240,cs),
(686,1270,l),
(618,1236,ls),
(591,1223,o),
(581,1218,o),
(581,1182,cs),
(581,1118,o),
(590,1066,o),
(612,1024,cs),
(632,986,o),
(654,965,o),
(677,965,cs)
);
}
);
userData = {
assembly = "NPUSHB[ ]	/* 15 values pushed */
36 60 65 36 40 42 60 65 5 21 24 26 30 3 54
PUSHW[ ]	/* 3 values pushed */
330 49 574
NPUSHB[ ]	/* 12 values pushed */
15 134 9 21 134 3 49 3 128 9 0 48
NPUSHW[ ]	/* 10 values pushed */
575 26 40 575 66 30 575 55 36 575
PUSHB[ ]	/* 8 values pushed */
59 26 66 55 59 4 33 28
PUSHW[ ]	/* 4 values pushed */
575 57 38 575
PUSHB[ ]	/* 4 values pushed */
68 42 24 33
PUSHW[ ]	/* 1 value pushed */
313
NPUSHB[ ]	/* 20 values pushed */
45 57 144 52 68 144 62 12 120 0 18 120 6 62 52 45 3 6 162 0
MDAP[1]	/* MoveDirectAbsPt */
MIRP[01101]	/* MoveIndirectRelPt */
SLOOP[ ]	/* SetLoopVariable */
IP[ ]	/* InterpolatePts */
SRP0[ ]	/* SetRefPoint0 */
MIRP[01101]	/* MoveIndirectRelPt */
SRP0[ ]	/* SetRefPoint0 */
MIRP[01101]	/* MoveIndirectRelPt */
MDAP[1]	/* MoveDirectAbsPt */
MIRP[01101]	/* MoveIndirectRelPt */
MDAP[1]	/* MoveDirectAbsPt */
MIRP[01101]	/* MoveIndirectRelPt */
MDAP[1]	/* MoveDirectAbsPt */
MIRP[01101]	/* MoveIndirectRelPt */
IP[ ]	/* InterpolatePts */
IP[ ]	/* InterpolatePts */
SRP0[ ]	/* SetRefPoint0 */
MIRP[00110]	/* MoveIndirectRelPt */
SRP0[ ]	/* SetRefPoint0 */
MIRP[00110]	/* MoveIndirectRelPt */
SRP1[ ]	/* SetRefPoint1 */
SLOOP[ ]	/* SetLoopVariable */
IP[ ]	/* InterpolatePts */
SRP0[ ]	/* SetRefPoint0 */
MIRP[00110]	/* MoveIndirectRelPt */
SRP0[ ]	/* SetRefPoint0 */
MIRP[00110]	/* MoveIndirectRelPt */
SRP0[ ]	/* SetRefPoint0 */
MIRP[00110]	/* MoveIndirectRelPt */
SRP0[ ]	/* SetRefPoint0 */
MIRP[00110]	/* MoveIndirectRelPt */
SVTCA[0]	/* SetFreedomAndProjectionVectorToAxis */
MIAP[1]	/* MoveIndirectAbsPt */
MIRP[01101]	/* MoveIndirectRelPt */
IP[ ]	/* InterpolatePts */
SRP0[ ]	/* SetRefPoint0 */
MIRP[01101]	/* MoveIndirectRelPt */
SRP0[ ]	/* SetRefPoint0 */
MIRP[11101]	/* MoveIndirectRelPt */
MIRP[10110]	/* MoveIndirectRelPt */
MIRP[01101]	/* MoveIndirectRelPt */
SLOOP[ ]	/* SetLoopVariable */
IP[ ]	/* InterpolatePts */
SRP1[ ]	/* SetRefPoint1 */
SLOOP[ ]	/* SetLoopVariable */
IP[ ]	/* InterpolatePts */
MDAP[1]	/* MoveDirectAbsPt */
MDAP[1]	/* MoveDirectAbsPt */
MDAP[1]	/* MoveDirectAbsPt */
IUP[1]	/* InterpolateUntPts */
IUP[0]	/* InterpolateUntPts */";
};
width = 1826;
}
);
note = uni0029;
unicode = 41;
}
{
glyphname = asterisk;
layers = (
{
layerId = m01;
shapes = (
{
closed = 1;
nodes = (
(2217,0,l),
(2217,1480,l),
(103,1480,l),
(103,0,l)
);
},
{
closed = 1;
nodes = (
(990,712,l),
(942,749,l),
(168,138,l),
(168,1342,l),
(1160,561,l),
(2152,1342,l),
(2152,138,l),
(1378,749,l),
(1330,712,l),
(2152,64,l),
(168,64,l)
);
},
{
closed = 1;
nodes = (
(168,1416,l),
(2152,1416,l),
(1160,634,l)
);
}
);
userData = {
assembly = "NPUSHB[ ]	/* 41 values pushed */
0 1 3 9 12 14 6 15 18 13 2 10 18 104 6 15 104 22 10 104 6 22 163 25 0 0 3 9 10 11 12 15 21 8 13 2 116 25 13 116 24
PUSHW[ ]	/* 2 values pushed */
400 25
MDAP[1]	/* MoveDirectAbsPt */
MIRP[11110]	/* MoveIndirectRelPt */
MIRP[01101]	/* MoveIndirectRelPt */
SRP0[ ]	/* SetRefPoint0 */
MIRP[11101]	/* MoveIndirectRelPt */
SRP1[ ]	/* SetRefPoint1 */
SLOOP[ ]	/* SetLoopVariable */
IP[ ]	/* InterpolatePts */
SVTCA[0]	/* SetFreedomAndProjectionVectorToAxis */
MIAP[1]	/* MoveIndirectAbsPt */
MIRP[01110]	/* MoveIndirectRelPt */
IP[ ]	/* InterpolatePts */
MIRP[01101]	/* MoveIndirectRelPt */
SRP0[ ]	/* SetRefPoint0 */
MIRP[01101]	/* MoveIndirectRelPt */
MDAP[1]	/* MoveDirectAbsPt */
MIRP[01101]	/* MoveIndirectRelPt */
SRP2[ ]	/* SetRefPoint2 */
IP[ ]	/* InterpolatePts */
IP[ ]	/* InterpolatePts */
SRP1[ ]	/* SetRefPoint1 */
SRP2[ ]	/* SetRefPoint2 */
SLOOP[ ]	/* SetLoopVariable */
IP[ ]	/* InterpolatePts */
IUP[1]	/* InterpolateUntPts */
IUP[0]	/* InterpolateUntPts */";
};
width = 2319;
}
);
note = uni002A;
unicode = 42;
}
{
glyphname = plus;
layers = (
{
layerId = m01;
shapes = (
{
closed = 1;
nodes = (
(2216,0,l),
(2216,1480,l),
(102,1480,l),
(102,0,l)
);
},
{
closed = 1;
nodes = (
(1636,348,l),
(1636,423,l),
(613,423,l),
(613,348,l)
);
},
{
closed = 1;
nodes = (
(1562,527,l),
(1562,602,l),
(613,602,l),
(613,527,l)
);
},
{
closed = 1;
nodes = (
(1666,706,l),
(1666,781,l),
(613,781,l),
(613,706,l)
);
},
{
closed = 1;
nodes = (
(167,1416,l),
(2151,1416,l),
(2151,64,l),
(167,64,l)
);
},
{
closed = 1;
nodes = (
(1970,944,l),
(1970,1286,l),
(1729,1286,l),
(1729,944,l)
);
}
);
userData = {
assembly = "PUSHW[ ]	/* 2 values pushed */
2 330
NPUSHB[ ]	/* 11 values pushed */
3 17 104 23 16 104 20 4 104 7 7
PUSHW[ ]	/* 1 value pushed */
577
PUSHB[ ]	/* 4 values pushed */
12 104 15 15
PUSHW[ ]	/* 1 value pushed */
577
NPUSHB[ ]	/* 10 values pushed */
8 104 11 3 11 20 163 23 0 7
PUSHW[ ]	/* 7 values pushed */
576 12 15 278 14 10 278
PUSHB[ ]	/* 4 values pushed */
11 205 14 2
PUSHW[ ]	/* 1 value pushed */
425
NPUSHB[ ]	/* 10 values pushed */
1 17 116 23 18 116 22 1 14 22
PUSHW[ ]	/* 2 values pushed */
400 23
MDAP[1]	/* MoveDirectAbsPt */
MIRP[01110]	/* MoveIndirectRelPt */
IP[ ]	/* InterpolatePts */
IP[ ]	/* InterpolatePts */
SRP0[ ]	/* SetRefPoint0 */
MIRP[01101]	/* MoveIndirectRelPt */
SRP0[ ]	/* SetRefPoint0 */
MIRP[01101]	/* MoveIndirectRelPt */
MDAP[1]	/* MoveDirectAbsPt */
MIRP[01101]	/* MoveIndirectRelPt */
MDAP[1]	/* MoveDirectAbsPt */
MIRP[11101]	/* MoveIndirectRelPt */
MIRP[01101]	/* MoveIndirectRelPt */
SRP0[ ]	/* SetRefPoint0 */
MIRP[11101]	/* MoveIndirectRelPt */
ALIGNRP[ ]	/* AlignRelativePt */
MIRP[00100]	/* MoveIndirectRelPt */
SVTCA[0]	/* SetFreedomAndProjectionVectorToAxis */
MIAP[1]	/* MoveIndirectAbsPt */
MIRP[01110]	/* MoveIndirectRelPt */
IP[ ]	/* InterpolatePts */
IP[ ]	/* InterpolatePts */
MDAP[1]	/* MoveDirectAbsPt */
MIRP[01101]	/* MoveIndirectRelPt */
MIRP[10100]	/* MoveIndirectRelPt */
MDAP[1]	/* MoveDirectAbsPt */
MIRP[01101]	/* MoveIndirectRelPt */
MIRP[10100]	/* MoveIndirectRelPt */
MDAP[1]	/* MoveDirectAbsPt */
MIRP[01101]	/* MoveIndirectRelPt */
SRP0[ ]	/* SetRefPoint0 */
MIRP[01101]	/* MoveIndirectRelPt */
SRP0[ ]	/* SetRefPoint0 */
MIRP[01101]	/* MoveIndirectRelPt */
MDAP[1]	/* MoveDirectAbsPt */
MIRP[01101]	/* MoveIndirectRelPt */
IUP[1]	/* InterpolateUntPts */
IUP[0]	/* InterpolateUntPts */";
};
width = 2319;
}
);
note = uni002B;
unicode = 43;
}
{
glyphname = comma;
layers = (
{
layerId = m01;
shapes = (
{
closed = 1;
nodes = (
(1408,-212,o),
(1423,-164,o),
(1425,-158,c),
(1427,-151,o),
(1427,-134,o),
(1427,-114,cs),
(1427,-41,o),
(1421,90,o),
(1421,153,cs),
(1421,211,o),
(1425,207,o),
(1460,226,cs),
(1644,319,o),
(1809,395,o),
(1981,482,cs),
(2015,499,o),
(2058,508,o),
(2078,541,cs),
(2104,584,o),
(2104,653,o),
(2104,721,cs),
(2104,788,o),
(2102,857,o),
(2095,925,cs),
(2078,1083,o),
(2043,1291,o),
(1909,1380,cs),
(1789,1460,o),
(1631,1480,o),
(1475,1480,cs),
(1334,1480,o),
(1189,1458,o),
(1056,1437,cs),
(985,1426,o),
(911,1415,o),
(842,1402,cs),
(777,1389,o),
(579,1339,o),
(549,1328,cs),
(501,1309,o),
(458,1276,o),
(423,1239,c),
(406,1220,o),
(345,1124,o),
(323,1005,cs),
(302,892,o),
(295,762,o),
(295,651,cs),
(295,586,o),
(297,526,o),
(301,476,c),
(301,467,o),
(312,406,o),
(343,378,cs),
(375,350,o),
(828,153,o),
(1028,87,c),
(1035,83,o),
(1067,74,o),
(1097,74,cs),
(1123,74,o),
(1147,85,o),
(1171,85,cs),
(1184,85,o),
(1186,44,o),
(1186,-17,cs),
(1186,-54,o),
(1184,-91,o),
(1184,-127,cs),
(1184,-141,o),
(1186,-154,o),
(1189,-169,c),
(1193,-175,o),
(1217,-212,o),
(1314,-212,cs)
);
},
{
closed = 1;
nodes = (
(740,430,o),
(744,486,o),
(744,551,cs),
(744,606,o),
(750,634,o),
(770,634,cs),
(798,634,o),
(820,617,o),
(853,617,cs),
(887,617,o),
(907,647,o),
(907,680,cs),
(907,732,o),
(850,749,o),
(807,768,cs),
(772,782,o),
(735,788,o),
(700,801,cs),
(649,820,o),
(590,847,o),
(549,847,cs),
(514,847,o),
(479,816,o),
(479,779,cs),
(479,723,o),
(540,712,o),
(588,693,c),
(610,684,o),
(614,666,o),
(614,643,cs),
(614,608,o),
(609,578,o),
(609,536,cs),
(609,480,o),
(625,430,o),
(683,430,cs)
);
},
{
closed = 1;
nodes = (
(972,205,o),
(939,218,o),
(915,228,cs),
(757,289,o),
(612,361,o),
(455,424,cs),
(399,447,o),
(395,486,o),
(395,538,cs),
(395,654,o),
(399,768,o),
(401,883,cs),
(403,1016,o),
(434,1207,o),
(596,1244,cs),
(620,1250,o),
(646,1252,o),
(670,1252,cs),
(716,1252,o),
(757,1244,o),
(796,1233,cs),
(831,1224,o),
(944,1161,o),
(983,1044,cs),
(1017,946,o),
(1022,823,o),
(1022,721,cs),
(1022,638,o),
(1017,567,o),
(1017,539,cs),
(1017,430,ls),
(1017,393,o),
(1020,354,o),
(1020,317,cs),
(1020,267,o),
(1015,205,o),
(987,205,cs)
);
},
{
closed = 1;
nodes = (
(852,836,o),
(883,851,o),
(883,905,cs),
(883,990,o),
(742,1005,o),
(657,1031,c),
(640,1037,o),
(620,1040,o),
(601,1040,cs),
(559,1040,o),
(527,1009,o),
(527,972,cs),
(527,894,o),
(670,868,o),
(738,849,cs),
(759,844,o),
(789,836,o),
(815,836,cs)
);
},
{
closed = 1;
nodes = (
(1124,189,o),
(1115,211,o),
(1115,239,cs),
(1115,402,o),
(1121,486,o),
(1121,688,cs),
(1121,816,o),
(1115,983,o),
(1097,1044,cs),
(1076,1113,o),
(1032,1183,o),
(978,1235,cs),
(930,1281,o),
(861,1296,o),
(861,1311,cs),
(861,1322,o),
(887,1324,o),
(898,1326,cs),
(1069,1354,o),
(1276,1400,o),
(1455,1400,cs),
(1573,1400,o),
(1705,1378,o),
(1820,1322,cs),
(1866,1300,o),
(1928,1224,o),
(1957,1107,cs),
(1994,962,o),
(2002,769,o),
(2002,664,cs),
(2002,591,o),
(1972,576,o),
(1956,567,c),
(1813,491,o),
(1649,406,o),
(1508,339,cs),
(1403,289,o),
(1286,241,o),
(1178,198,c),
(1169,192,o),
(1158,189,o),
(1148,189,cs)
);
},
{
closed = 1;
nodes = (
(1770,617,o),
(1800,634,o),
(1820,643,cs),
(1891,675,o),
(1892,762,o),
(1892,849,cs),
(1892,910,o),
(1887,964,o),
(1835,964,cs),
(1807,964,o),
(1774,953,o),
(1751,948,cs),
(1714,938,o),
(1451,875,o),
(1354,849,cs),
(1306,836,o),
(1251,833,o),
(1251,762,cs),
(1251,701,o),
(1254,658,o),
(1288,658,cs),
(1297,658,o),
(1306,662,o),
(1315,666,c),
(1330,671,o),
(1599,777,o),
(1649,777,cs),
(1698,777,o),
(1666,617,o),
(1744,617,cs)
);
}
);
userData = {
assembly = "NPUSHB[ ]	/* 22 values pushed */
17 17 29 38 44 47 5 26 45 12 22 34 36 39 5 21 35 37 40 43 4 45
PUSHW[ ]	/* 1 value pushed */
571
NPUSHB[ ]	/* 14 values pushed */
42 33 21 104 1 26 104 8 42 8 128 1 0 36
PUSHW[ ]	/* 3 values pushed */
578 34 343
PUSHB[ ]	/* 8 values pushed */
39 29 41 42 45 46 5 40
PUSHW[ ]	/* 1 value pushed */
265
NPUSHB[ ]	/* 16 values pushed */
43 0 33 116 13 21 116 1 22 116 12 43 13 39 3 12
PUSHW[ ]	/* 2 values pushed */
289 1
MDAP[1]	/* MoveDirectAbsPt */
MIRP[01101]	/* MoveIndirectRelPt */
SLOOP[ ]	/* SetLoopVariable */
IP[ ]	/* InterpolatePts */
SRP0[ ]	/* SetRefPoint0 */
MIRP[01101]	/* MoveIndirectRelPt */
SRP0[ ]	/* SetRefPoint0 */
MIRP[01101]	/* MoveIndirectRelPt */
MDAP[1]	/* MoveDirectAbsPt */
MIRP[01101]	/* MoveIndirectRelPt */
IP[ ]	/* InterpolatePts */
MDAP[1]	/* MoveDirectAbsPt */
MIRP[01101]	/* MoveIndirectRelPt */
SLOOP[ ]	/* SetLoopVariable */
IP[ ]	/* InterpolatePts */
MDAP[1]	/* MoveDirectAbsPt */
MIRP[11101]	/* MoveIndirectRelPt */
MIRP[00110]	/* MoveIndirectRelPt */
SVTCA[0]	/* SetFreedomAndProjectionVectorToAxis */
MIAP[1]	/* MoveIndirectAbsPt */
MIRP[01101]	/* MoveIndirectRelPt */
IP[ ]	/* InterpolatePts */
SRP0[ ]	/* SetRefPoint0 */
MIRP[01101]	/* MoveIndirectRelPt */
SRP0[ ]	/* SetRefPoint0 */
MIRP[01101]	/* MoveIndirectRelPt */
IP[ ]	/* InterpolatePts */
MDAP[1]	/* MoveDirectAbsPt */
MIRP[01101]	/* MoveIndirectRelPt */
SLOOP[ ]	/* SetLoopVariable */
IP[ ]	/* InterpolatePts */
SRP2[ ]	/* SetRefPoint2 */
SLOOP[ ]	/* SetLoopVariable */
IP[ ]	/* InterpolatePts */
SRP1[ ]	/* SetRefPoint1 */
SRP2[ ]	/* SetRefPoint2 */
SLOOP[ ]	/* SetLoopVariable */
IP[ ]	/* InterpolatePts */
MDAP[1]	/* MoveDirectAbsPt */
IUP[1]	/* InterpolateUntPts */
IUP[0]	/* InterpolateUntPts */";
};
width = 2399;
}
);
note = uni002C;
unicode = 44;
}
{
glyphname = hyphen;
layers = (
{
layerId = m01;
shapes = (
{
closed = 1;
nodes = (
(1397,-133,o),
(1410,-86,o),
(1412,-82,c),
(1414,-75,o),
(1414,-59,o),
(1414,-40,cs),
(1414,28,o),
(1409,152,o),
(1409,211,cs),
(1409,258,o),
(1412,265,o),
(1445,281,cs),
(1601,354,o),
(1775,439,o),
(1935,520,cs),
(1967,535,o),
(2009,542,o),
(2026,574,cs),
(2050,617,o),
(2050,713,o),
(2050,744,cs),
(2050,807,o),
(2049,870,o),
(2042,935,cs),
(2026,1086,o),
(1993,1278,o),
(1867,1363,cs),
(1761,1435,o),
(1628,1452,o),
(1487,1456,c),
(1475,1454,o),
(1470,1456,o),
(1470,1445,cs),
(1470,1430,o),
(1472,1404,o),
(1472,1381,c),
(1574,1377,o),
(1686,1355,o),
(1784,1308,cs),
(1827,1287,o),
(1885,1219,o),
(1913,1107,cs),
(1948,969,o),
(1955,788,o),
(1955,689,cs),
(1955,621,o),
(1927,608,o),
(1911,600,cs),
(1745,514,o),
(1564,411,o),
(1414,352,cs),
(1353,328,o),
(1292,298,o),
(1229,270,cs),
(1213,263,o),
(1194,258,o),
(1180,251,c),
(1172,246,o),
(1161,244,o),
(1152,244,cs),
(1130,244,o),
(1121,265,o),
(1121,289,cs),
(1121,452,o),
(1126,520,o),
(1126,713,cs),
(1126,833,o),
(1121,990,o),
(1104,1046,cs),
(1083,1111,o),
(1043,1177,o),
(992,1227,cs),
(948,1271,o),
(882,1285,o),
(882,1299,cs),
(882,1308,o),
(907,1311,o),
(917,1313,cs),
(1009,1329,o),
(1147,1356,o),
(1245,1367,c),
(1245,1393,o),
(1245,1416,o),
(1245,1442,c),
(1116,1428,o),
(989,1407,o),
(865,1383,cs),
(804,1370,o),
(619,1325,o),
(589,1313,cs),
(465,1262,o),
(399,1151,o),
(377,1011,cs),
(359,905,o),
(350,785,o),
(350,678,cs),
(350,617,o),
(352,561,o),
(356,514,c),
(356,504,o),
(366,448,o),
(396,422,cs),
(427,394,o),
(851,211,o),
(1039,148,c),
(1048,145,o),
(1076,136,o),
(1104,136,cs),
(1128,136,o),
(1151,145,o),
(1173,145,cs),
(1184,145,o),
(1187,131,o),
(1187,50,cs),
(1187,16,o),
(1186,-19,o),
(1186,-52,cs),
(1186,-66,o),
(1187,-80,o),
(1191,-93,c),
(1194,-98,o),
(1217,-133,o),
(1308,-133,cs)
);
},
{
closed = 1;
nodes = (
(765,471,o),
(772,521,o),
(772,582,cs),
(772,614,o),
(774,662,o),
(793,662,cs),
(819,662,o),
(844,647,o),
(875,647,cs),
(908,647,o),
(926,678,o),
(926,706,cs),
(926,753,o),
(872,772,o),
(832,788,cs),
(798,800,o),
(764,807,o),
(730,819,cs),
(683,837,o),
(628,863,o),
(589,863,cs),
(554,863,o),
(523,832,o),
(523,798,cs),
(523,748,o),
(582,732,o),
(626,718,cs),
(647,711,o),
(650,690,o),
(650,671,cs),
(650,638,o),
(645,608,o),
(645,570,cs),
(645,518,o),
(661,471,o),
(713,471,cs)
);
},
{
closed = 1;
nodes = (
(983,258,o),
(955,272,o),
(933,281,cs),
(785,338,o),
(647,406,o),
(500,465,cs),
(448,486,o),
(445,523,o),
(445,570,cs),
(445,680,o),
(448,788,o),
(450,896,cs),
(451,1022,o),
(479,1201,o),
(633,1236,cs),
(655,1241,o),
(682,1241,o),
(706,1241,cs),
(748,1241,o),
(785,1236,o),
(821,1226,cs),
(854,1217,o),
(961,1156,o),
(997,1046,cs),
(1027,955,o),
(1034,840,o),
(1034,744,cs),
(1034,668,o),
(1029,601,o),
(1029,574,cs),
(1029,469,ls),
(1029,436,o),
(1032,397,o),
(1032,363,cs),
(1032,317,o),
(1029,258,o),
(999,258,cs)
);
},
{
closed = 1;
nodes = (
(873,853,o),
(903,867,o),
(903,917,cs),
(903,999,o),
(769,1008,o),
(690,1034,cs),
(675,1039,o),
(655,1043,o),
(638,1043,cs),
(598,1043,o),
(568,1015,o),
(568,980,cs),
(568,905,o),
(703,882,o),
(767,865,cs),
(786,860,o),
(814,853,o),
(839,853,cs)
);
},
{
closed = 1;
nodes = (
(1370,945,o),
(1405,954,o),
(1405,987,c),
(1402,1139,o),
(1402,1299,o),
(1402,1456,cs),
(1402,1505,o),
(1412,1512,o),
(1550,1536,cs),
(1601,1545,o),
(1644,1553,o),
(1648,1555,c),
(1686,1567,o),
(1695,1595,o),
(1695,1618,cs),
(1695,1655,o),
(1698,1726,o),
(1698,1791,cs),
(1698,1860,o),
(1670,1866,o),
(1651,1866,cs),
(1611,1864,o),
(1424,1848,o),
(1358,1841,cs),
(1311,1836,o),
(1318,1770,o),
(1316,1733,cs),
(1311,1613,o),
(1311,1494,o),
(1311,1374,cs),
(1311,1241,o),
(1304,1111,o),
(1304,978,cs),
(1304,948,o),
(1322,945,o),
(1339,945,cs)
);
}
);
userData = {
assembly = "NPUSHB[ ]	/* 25 values pushed */
20 7 8 11 6 20 31 32 33 36 37 46 49 9 29 47 15 25 34 35 4 24 45 42 47
PUSHW[ ]	/* 1 value pushed */
571
NPUSHB[ ]	/* 11 values pushed */
44 9 29 104 11 41 24 104 11 44 8
PUSHW[ ]	/* 1 value pushed */
287
NPUSHB[ ]	/* 15 values pushed */
1 0 9 32 32 9 25 34 37 43 44 47 48 5 42
PUSHW[ ]	/* 1 value pushed */
265
PUSHB[ ]	/* 7 values pushed */
45 0 41 116 16 6 35
PUSHW[ ]	/* 1 value pushed */
313
NPUSHB[ ]	/* 12 values pushed */
34 24 116 1 25 116 15 45 16 34 3 15
PUSHW[ ]	/* 2 values pushed */
289 1
MDAP[1]	/* MoveDirectAbsPt */
MIRP[01101]	/* MoveIndirectRelPt */
SLOOP[ ]	/* SetLoopVariable */
IP[ ]	/* InterpolatePts */
SRP0[ ]	/* SetRefPoint0 */
MIRP[01101]	/* MoveIndirectRelPt */
SRP0[ ]	/* SetRefPoint0 */
MIRP[01101]	/* MoveIndirectRelPt */
MDAP[1]	/* MoveDirectAbsPt */
MIRP[01101]	/* MoveIndirectRelPt */
IP[ ]	/* InterpolatePts */
MDAP[1]	/* MoveDirectAbsPt */
MIRP[01101]	/* MoveIndirectRelPt */
IP[ ]	/* InterpolatePts */
MDAP[1]	/* MoveDirectAbsPt */
MIRP[01101]	/* MoveIndirectRelPt */
SLOOP[ ]	/* SetLoopVariable */
IP[ ]	/* InterpolatePts */
SRP1[ ]	/* SetRefPoint1 */
SRP2[ ]	/* SetRefPoint2 */
IP[ ]	/* InterpolatePts */
IP[ ]	/* InterpolatePts */
MDAP[1]	/* MoveDirectAbsPt */
MDAP[1]	/* MoveDirectAbsPt */
SVTCA[0]	/* SetFreedomAndProjectionVectorToAxis */
MIAP[1]	/* MoveIndirectAbsPt */
MIRP[01101]	/* MoveIndirectRelPt */
IP[ ]	/* InterpolatePts */
IP[ ]	/* InterpolatePts */
MIRP[01101]	/* MoveIndirectRelPt */
IP[ ]	/* InterpolatePts */
MDAP[1]	/* MoveDirectAbsPt */
MIRP[01101]	/* MoveIndirectRelPt */
IP[ ]	/* InterpolatePts */
MDAP[1]	/* MoveDirectAbsPt */
MIRP[01101]	/* MoveIndirectRelPt */
IP[ ]	/* InterpolatePts */
IP[ ]	/* InterpolatePts */
SRP2[ ]	/* SetRefPoint2 */
SLOOP[ ]	/* SetLoopVariable */
IP[ ]	/* InterpolatePts */
SRP1[ ]	/* SetRefPoint1 */
SRP2[ ]	/* SetRefPoint2 */
SLOOP[ ]	/* SetLoopVariable */
IP[ ]	/* InterpolatePts */
SRP1[ ]	/* SetRefPoint1 */
SRP2[ ]	/* SetRefPoint2 */
IP[ ]	/* InterpolatePts */
MDAP[1]	/* MoveDirectAbsPt */
IUP[1]	/* InterpolateUntPts */
IUP[0]	/* InterpolateUntPts */";
};
width = 2399;
}
);
note = uni002D;
unicode = 45;
}
{
glyphname = period;
layers = (
{
layerId = m01;
shapes = (
{
closed = 1;
nodes = (
(1845,-211,o),
(1866,-160,o),
(1866,-156,cs),
(1866,-149,o),
(1868,-135,o),
(1868,-114,cs),
(1868,-40,o),
(1861,96,o),
(1861,163,cs),
(1861,216,o),
(1868,216,o),
(1900,231,cs),
(2083,318,o),
(2253,398,o),
(2429,492,cs),
(2460,508,o),
(2503,517,o),
(2525,549,cs),
(2549,583,o),
(2550,637,o),
(2550,739,cs),
(2550,806,o),
(2549,872,o),
(2542,937,cs),
(2532,1027,o),
(2517,1118,o),
(2484,1206,cs),
(2459,1278,o),
(2422,1353,o),
(2354,1397,cs),
(2269,1452,o),
(2179,1476,o),
(2069,1487,cs),
(2033,1491,o),
(1975,1495,o),
(1930,1495,c),
(1930,1416,l),
(2041,1416,o),
(2165,1392,o),
(2265,1337,cs),
(2318,1309,o),
(2375,1240,o),
(2403,1122,cs),
(2439,974,o),
(2448,779,o),
(2448,671,cs),
(2448,599,o),
(2415,583,o),
(2403,575,cs),
(2216,468,o),
(2011,372,o),
(1828,293,cs),
(1759,263,o),
(1697,242,o),
(1621,204,cs),
(1615,201,o),
(1595,193,o),
(1586,193,cs),
(1561,193,o),
(1554,218,o),
(1554,245,cs),
(1554,324,o),
(1557,379,o),
(1557,468,cs),
(1557,742,o),
(1527,1062,o),
(1301,1238,cs),
(1284,1252,o),
(1265,1262,o),
(1245,1271,cs),
(1224,1277,o),
(1185,1283,o),
(1185,1302,cs),
(1185,1321,o),
(1240,1326,o),
(1252,1330,cs),
(1356,1365,o),
(1471,1375,o),
(1583,1388,cs),
(1615,1392,o),
(1650,1398,o),
(1684,1401,c),
(1686,1428,o),
(1686,1456,o),
(1686,1481,c),
(1547,1465,o),
(1411,1443,o),
(1278,1417,cs),
(1212,1406,o),
(1014,1356,o),
(982,1343,cs),
(933,1322,o),
(891,1292,o),
(855,1253,cs),
(838,1234,o),
(775,1138,o),
(752,1017,cs),
(732,903,o),
(727,772,o),
(727,656,cs),
(727,593,o),
(728,534,o),
(730,483,c),
(733,464,l),
(573,404,o),
(522,382,o),
(473,362,cs),
(439,347,o),
(401,319,o),
(401,294,cs),
(401,273,o),
(426,252,o),
(447,235,cs),
(563,139,o),
(686,49,o),
(810,-37,c),
(850,-69,o),
(906,-100,o),
(960,-100,cs),
(1016,-100,o),
(1041,-71,o),
(1080,-44,cs),
(1164,13,o),
(1252,72,o),
(1340,138,c),
(1389,119,o),
(1431,105,o),
(1466,90,cs),
(1480,85,o),
(1505,78,o),
(1539,78,cs),
(1562,78,o),
(1591,88,o),
(1606,88,cs),
(1625,88,o),
(1620,66,o),
(1621,54,c),
(1625,33,o),
(1625,9,o),
(1625,-16,cs),
(1625,-52,o),
(1621,-90,o),
(1621,-125,cs),
(1621,-140,o),
(1625,-155,o),
(1630,-167,c),
(1631,-174,o),
(1659,-211,o),
(1745,-211,cs)
);
},
{
closed = 1;
nodes = (
(836,20,o),
(798,59,o),
(768,78,cs),
(713,114,o),
(662,149,o),
(612,188,c),
(598,203,o),
(556,235,o),
(556,242,cs),
(556,250,o),
(592,250,o),
(623,250,cs),
(685,250,o),
(752,249,o),
(814,242,cs),
(887,237,o),
(907,239,o),
(907,223,cs),
(907,208,o),
(888,179,o),
(882,111,c),
(876,73,o),
(860,20,o),
(852,20,cs)
);
},
{
closed = 1;
nodes = (
(931,-25,o),
(930,-6,o),
(930,4,cs),
(930,33,o),
(937,61,o),
(946,134,cs),
(958,225,o),
(951,239,o),
(1030,239,cs),
(1072,239,o),
(1130,235,o),
(1162,237,cs),
(1245,240,o),
(1267,288,o),
(1296,336,cs),
(1317,375,o),
(1330,413,o),
(1350,413,cs),
(1365,413,o),
(1400,404,o),
(1431,398,cs),
(1457,394,o),
(1480,392,o),
(1480,382,c),
(1485,312,o),
(1466,305,o),
(1461,303,c),
(1405,273,o),
(1366,245,o),
(1263,186,cs),
(1227,165,o),
(1152,117,o),
(1119,93,cs),
(1065,53,o),
(1022,10,o),
(961,-20,cs),
(958,-21,o),
(951,-25,o),
(942,-25,cs)
);
},
{
closed = 1;
nodes = (
(1030,279,o),
(971,283,o),
(937,283,cs),
(821,283,o),
(703,299,o),
(589,299,cs),
(556,299,o),
(532,303,o),
(532,308,cs),
(532,324,o),
(595,339,o),
(611,343,cs),
(647,353,o),
(686,373,o),
(723,389,cs),
(751,399,o),
(783,409,o),
(812,420,cs),
(876,447,o),
(990,502,o),
(1052,524,cs),
(1134,544,o),
(1322,617,o),
(1395,617,cs),
(1409,617,o),
(1422,613,o),
(1422,604,cs),
(1422,578,o),
(1370,553,o),
(1292,395,cs),
(1248,303,o),
(1230,279,o),
(1080,279,cs)
);
},
{
closed = 1;
nodes = (
(1421,428,o),
(1356,425,o),
(1356,449,cs),
(1356,470,o),
(1419,553,o),
(1464,587,c),
(1476,587,o),
(1479,559,o),
(1479,538,cs),
(1479,525,o),
(1481,482,o),
(1481,449,cs),
(1481,432,o),
(1480,418,o),
(1476,418,c)
);
},
{
closed = 1;
nodes = (
(1821,946,o),
(1859,958,o),
(1859,992,cs),
(1859,1157,o),
(1856,1322,o),
(1856,1487,cs),
(1856,1527,o),
(1871,1555,o),
(1905,1562,cs),
(2120,1603,l),
(2160,1615,o),
(2169,1650,o),
(2169,1671,cs),
(2169,1717,o),
(2175,1865,o),
(2175,1886,cs),
(2175,1919,o),
(2154,1938,o),
(2122,1938,cs),
(2109,1938,o),
(1879,1917,o),
(1808,1910,cs),
(1774,1907,o),
(1766,1886,o),
(1765,1794,cs),
(1759,1551,o),
(1754,1311,o),
(1754,1093,cs),
(1754,1056,o),
(1750,1021,o),
(1750,986,cs),
(1750,952,o),
(1769,946,o),
(1790,946,cs)
);
}
);
userData = {
assembly = "NPUSHB[ ]	/* 65 values pushed */
44 15 16 19 14 42 44 52 55 74 75 76 79 80 10 72 7 9 38 41 48 51 53 57 59 61 62 77 78 12 27 39 23 58 60 63 64 66 67 68 8 36 33 56 7 104 27 17 72 104 19 37 34 39 130 36 84 65 33 104 36 27 19 3 16
PUSHW[ ]	/* 1 value pushed */
287
NPUSHB[ ]	/* 53 values pushed */
1 0 17 75 75 17 68 77 0 78 84 24 42 51 52 55 56 57 58 59 60 62 63 64 67 80 15 65 48 35 36 37 38 39 40 41 7 9 30 65 116 53 116 84 1 33 34 3 48 116 9 14 78
PUSHW[ ]	/* 1 value pushed */
313
NPUSHB[ ]	/* 11 values pushed */
77 68 116 23 30 116 9 84 77 3 23
PUSHW[ ]	/* 2 values pushed */
401 4
MDAP[1]	/* MoveDirectAbsPt */
MIRP[01101]	/* MoveIndirectRelPt */
SLOOP[ ]	/* SetLoopVariable */
IP[ ]	/* InterpolatePts */
MIRP[01101]	/* MoveIndirectRelPt */
SRP0[ ]	/* SetRefPoint0 */
MIRP[01101]	/* MoveIndirectRelPt */
MDAP[1]	/* MoveDirectAbsPt */
MIRP[01101]	/* MoveIndirectRelPt */
IP[ ]	/* InterpolatePts */
MDAP[1]	/* MoveDirectAbsPt */
MIRP[01101]	/* MoveIndirectRelPt */
SLOOP[ ]	/* SetLoopVariable */
IP[ ]	/* InterpolatePts */
MDAP[1]	/* MoveDirectAbsPt */
MIRP[01101]	/* MoveIndirectRelPt */
MIRP[01101]	/* MoveIndirectRelPt */
SRP1[ ]	/* SetRefPoint1 */
SRP2[ ]	/* SetRefPoint2 */
SLOOP[ ]	/* SetLoopVariable */
IP[ ]	/* InterpolatePts */
SRP1[ ]	/* SetRefPoint1 */
SRP2[ ]	/* SetRefPoint2 */
SLOOP[ ]	/* SetLoopVariable */
IP[ ]	/* InterpolatePts */
SRP1[ ]	/* SetRefPoint1 */
SRP2[ ]	/* SetRefPoint2 */
IP[ ]	/* InterpolatePts */
SRP1[ ]	/* SetRefPoint1 */
SRP2[ ]	/* SetRefPoint2 */
IP[ ]	/* InterpolatePts */
IP[ ]	/* InterpolatePts */
MDAP[1]	/* MoveDirectAbsPt */
MDAP[1]	/* MoveDirectAbsPt */
SVTCA[0]	/* SetFreedomAndProjectionVectorToAxis */
MIAP[1]	/* MoveIndirectAbsPt */
MIRP[01101]	/* MoveIndirectRelPt */
SLOOP[ ]	/* SetLoopVariable */
IP[ ]	/* InterpolatePts */
MIRP[01101]	/* MoveIndirectRelPt */
IP[ ]	/* InterpolatePts */
IP[ ]	/* InterpolatePts */
MDAP[1]	/* MoveDirectAbsPt */
MIRP[01101]	/* MoveIndirectRelPt */
IP[ ]	/* InterpolatePts */
IP[ ]	/* InterpolatePts */
MDAP[1]	/* MoveDirectAbsPt */
MIRP[01101]	/* MoveIndirectRelPt */
IP[ ]	/* InterpolatePts */
MDAP[1]	/* MoveDirectAbsPt */
MIRP[01101]	/* MoveIndirectRelPt */
IP[ ]	/* InterpolatePts */
SRP1[ ]	/* SetRefPoint1 */
SRP2[ ]	/* SetRefPoint2 */
SLOOP[ ]	/* SetLoopVariable */
IP[ ]	/* InterpolatePts */
SRP1[ ]	/* SetRefPoint1 */
SRP2[ ]	/* SetRefPoint2 */
SLOOP[ ]	/* SetLoopVariable */
IP[ ]	/* InterpolatePts */
SRP1[ ]	/* SetRefPoint1 */
SRP2[ ]	/* SetRefPoint2 */
SLOOP[ ]	/* SetLoopVariable */
IP[ ]	/* InterpolatePts */
SRP1[ ]	/* SetRefPoint1 */
SRP2[ ]	/* SetRefPoint2 */
IP[ ]	/* InterpolatePts */
MDAP[1]	/* MoveDirectAbsPt */
IUP[1]	/* InterpolateUntPts */
IUP[0]	/* InterpolateUntPts */";
};
width = 2951;
}
);
note = uni002E;
unicode = 46;
}
{
glyphname = slash;
layers = (
{
layerId = m01;
shapes = (
{
closed = 1;
nodes = (
(1682,-212,o),
(1703,-162,o),
(1703,-157,c),
(1705,-149,o),
(1705,-125,o),
(1705,-95,cs),
(1705,-8,o),
(1701,136,o),
(1701,179,cs),
(1701,208,o),
(1714,214,o),
(1738,227,c),
(1916,311,o),
(2086,396,o),
(2261,482,cs),
(2294,499,o),
(2336,511,o),
(2358,542,cs),
(2379,570,o),
(2382,627,o),
(2382,711,cs),
(2382,784,o),
(2380,855,o),
(2375,927,cs),
(2367,1016,o),
(2349,1106,o),
(2318,1191,cs),
(2292,1264,o),
(2251,1336,o),
(2187,1381,cs),
(2061,1467,o),
(1894,1480,o),
(1754,1480,cs),
(1612,1480,o),
(1470,1458,o),
(1334,1438,cs),
(1262,1427,o),
(1192,1415,o),
(1122,1401,cs),
(1057,1388,o),
(860,1340,o),
(829,1328,cs),
(693,1280,o),
(624,1136,o),
(602,1006,cs),
(581,891,o),
(574,762,o),
(574,644,cs),
(574,583,o),
(576,525,o),
(578,477,c),
(579,466,o),
(591,407,o),
(622,379,cs),
(654,351,o),
(1106,153,o),
(1308,86,cs),
(1325,81,o),
(1346,76,o),
(1377,76,cs),
(1403,76,o),
(1425,84,o),
(1446,84,cs),
(1459,84,o),
(1461,76,o),
(1461,64,cs),
(1461,31,o),
(1464,7,o),
(1464,-20,cs),
(1464,-54,o),
(1462,-92,o),
(1462,-125,cs),
(1462,-140,o),
(1464,-154,o),
(1470,-167,c),
(1471,-173,o),
(1497,-212,o),
(1586,-212,cs)
);
},
{
closed = 1;
nodes = (
(1277,168,o),
(1219,190,o),
(1194,197,c),
(1036,259,o),
(892,335,o),
(755,381,cs),
(733,388,o),
(716,403,o),
(716,415,cs),
(716,425,o),
(723,432,o),
(741,438,cs),
(870,477,o),
(944,505,o),
(1072,540,cs),
(1164,566,o),
(1245,585,o),
(1324,597,c),
(1324,351,ls),
(1324,285,o),
(1317,205,o),
(1317,173,c),
(1316,170,o),
(1310,168,o),
(1303,168,cs)
);
},
{
closed = 1;
nodes = (
(1403,190,o),
(1394,210,o),
(1394,240,cs),
(1394,288,o),
(1397,326,o),
(1397,367,cs),
(1397,453,ls),
(1397,726,o),
(1375,1047,o),
(1147,1225,cs),
(1130,1237,o),
(1108,1247,o),
(1088,1254,cs),
(1068,1261,o),
(1029,1269,o),
(1029,1288,cs),
(1029,1306,o),
(1086,1312,o),
(1098,1314,c),
(1202,1340,o),
(1316,1357,o),
(1423,1373,cs),
(1531,1389,o),
(1627,1401,o),
(1727,1401,cs),
(1848,1401,o),
(1983,1384,o),
(2098,1323,cs),
(2146,1297,o),
(2207,1227,o),
(2237,1108,cs),
(2272,965,o),
(2281,773,o),
(2281,665,cs),
(2281,592,o),
(2251,578,o),
(2235,568,cs),
(2066,473,o),
(1862,374,o),
(1707,305,cs),
(1511,218,ls),
(1487,206,o),
(1446,190,o),
(1427,190,cs)
);
},
{
closed = 1;
nodes = (
(2047,618,o),
(2078,636,o),
(2098,644,cs),
(2170,678,o),
(2172,766,o),
(2172,853,cs),
(2172,877,o),
(2170,901,o),
(2165,927,cs),
(2159,956,o),
(2138,968,o),
(2112,968,cs),
(2085,968,o),
(2054,954,o),
(2030,951,c),
(1992,941,o),
(1727,879,o),
(1632,853,cs),
(1584,839,o),
(1529,834,o),
(1529,764,cs),
(1529,695,o),
(1535,661,o),
(1566,661,cs),
(1574,661,o),
(1584,663,o),
(1594,667,c),
(1610,673,o),
(1879,776,o),
(1927,776,cs),
(1975,776,o),
(1948,618,o),
(2023,618,cs)
);
}
);
userData = {
assembly = "NPUSHB[ ]	/* 62 values pushed */
43 43 57 66 3 54 7 9 35 38 47 63 64 65 7 24 36 20 50 62 3 33 30 24 104 7 31 34 67 3 36 130 33 54 104 16 61 39 30 104 7 33 16 128 1 0 57 21 39 47 1 32 33 34 35 36 37 38 8 9 27 64
PUSHW[ ]	/* 3 values pushed */
578 62 343
NPUSHB[ ]	/* 20 values pushed */
67 0 39 116 61 31 30 47 116 9 50 116 20 27 116 9 61 67 3 20
PUSHW[ ]	/* 2 values pushed */
401 4
MDAP[1]	/* MoveDirectAbsPt */
MIRP[01101]	/* MoveIndirectRelPt */
SLOOP[ ]	/* SetLoopVariable */
IP[ ]	/* InterpolatePts */
MIRP[01101]	/* MoveIndirectRelPt */
SRP0[ ]	/* SetRefPoint0 */
MIRP[01101]	/* MoveIndirectRelPt */
MDAP[1]	/* MoveDirectAbsPt */
MIRP[01101]	/* MoveIndirectRelPt */
IP[ ]	/* InterpolatePts */
IP[ ]	/* InterpolatePts */
MDAP[1]	/* MoveDirectAbsPt */
MIRP[01101]	/* MoveIndirectRelPt */
IP[ ]	/* InterpolatePts */
MDAP[1]	/* MoveDirectAbsPt */
MIRP[11101]	/* MoveIndirectRelPt */
MIRP[00110]	/* MoveIndirectRelPt */
SRP1[ ]	/* SetRefPoint1 */
SRP2[ ]	/* SetRefPoint2 */
SLOOP[ ]	/* SetLoopVariable */
IP[ ]	/* InterpolatePts */
SRP1[ ]	/* SetRefPoint1 */
SRP2[ ]	/* SetRefPoint2 */
IP[ ]	/* InterpolatePts */
IP[ ]	/* InterpolatePts */
SVTCA[0]	/* SetFreedomAndProjectionVectorToAxis */
MIAP[1]	/* MoveIndirectAbsPt */
MIRP[01101]	/* MoveIndirectRelPt */
IP[ ]	/* InterpolatePts */
IP[ ]	/* InterpolatePts */
MIRP[01101]	/* MoveIndirectRelPt */
IP[ ]	/* InterpolatePts */
IP[ ]	/* InterpolatePts */
SRP0[ ]	/* SetRefPoint0 */
MIRP[01101]	/* MoveIndirectRelPt */
MDAP[1]	/* MoveDirectAbsPt */
MIRP[01101]	/* MoveIndirectRelPt */
SLOOP[ ]	/* SetLoopVariable */
IP[ ]	/* InterpolatePts */
MDAP[1]	/* MoveDirectAbsPt */
MIRP[01101]	/* MoveIndirectRelPt */
SRP1[ ]	/* SetRefPoint1 */
SRP2[ ]	/* SetRefPoint2 */
SLOOP[ ]	/* SetLoopVariable */
IP[ ]	/* InterpolatePts */
SRP1[ ]	/* SetRefPoint1 */
SRP2[ ]	/* SetRefPoint2 */
SLOOP[ ]	/* SetLoopVariable */
IP[ ]	/* InterpolatePts */
SRP1[ ]	/* SetRefPoint1 */
SRP2[ ]	/* SetRefPoint2 */
SLOOP[ ]	/* SetLoopVariable */
IP[ ]	/* InterpolatePts */
MDAP[1]	/* MoveDirectAbsPt */
IUP[1]	/* InterpolateUntPts */
IUP[0]	/* InterpolateUntPts */";
};
width = 2956;
}
);
note = uni002F;
unicode = 47;
}
{
glyphname = zero;
layers = (
{
layerId = m01;
shapes = (
{
closed = 1;
nodes = (
(1961,0,ls),
(2023,0,o),
(2073,50,o),
(2073,111,cs),
(2073,1187,ls),
(2073,1249,o),
(2023,1298,o),
(1961,1298,cs),
(978,1298,l),
(978,1362,ls),
(978,1426,o),
(927,1480,o),
(863,1480,cs),
(289,1480,ls),
(225,1480,o),
(173,1426,o),
(173,1362,cs),
(173,111,ls),
(173,50,o),
(221,0,o),
(283,0,cs)
);
},
{
closed = 1;
nodes = (
(250,47,o),
(221,76,o),
(221,111,cs),
(221,1362,ls),
(221,1399,o),
(252,1430,o),
(289,1430,cs),
(863,1430,ls),
(900,1430,o),
(931,1399,o),
(931,1362,cs),
(931,1249,l),
(1961,1249,ls),
(1996,1249,o),
(2025,1222,o),
(2025,1187,cs),
(2025,111,ls),
(2025,76,o),
(1996,47,o),
(1961,47,cs),
(283,47,l),
(283,47,l)
);
}
);
userData = {
assembly = "NPUSHB[ ]	/* 27 values pushed */
34 20 31 104 3 27 104 26 104 0 40 104 12 3 12 128 0 0 35 34 27 26 116 0 27 116 25
PUSHW[ ]	/* 2 values pushed */
579 0
MDAP[1]	/* MoveDirectAbsPt */
MIRP[11110]	/* MoveIndirectRelPt */
MIRP[01101]	/* MoveIndirectRelPt */
SRP0[ ]	/* SetRefPoint0 */
MIRP[11101]	/* MoveIndirectRelPt */
SRP1[ ]	/* SetRefPoint1 */
IP[ ]	/* InterpolatePts */
IP[ ]	/* InterpolatePts */
SVTCA[0]	/* SetFreedomAndProjectionVectorToAxis */
MIAP[1]	/* MoveIndirectAbsPt */
MIRP[01101]	/* MoveIndirectRelPt */
IP[ ]	/* InterpolatePts */
SRP0[ ]	/* SetRefPoint0 */
MIRP[01101]	/* MoveIndirectRelPt */
SRP0[ ]	/* SetRefPoint0 */
MIRP[01101]	/* MoveIndirectRelPt */
MIRP[01101]	/* MoveIndirectRelPt */
MDAP[1]	/* MoveDirectAbsPt */
MIRP[01101]	/* MoveIndirectRelPt */
IP[ ]	/* InterpolatePts */
IP[ ]	/* InterpolatePts */
IUP[1]	/* InterpolateUntPts */
IUP[0]	/* InterpolateUntPts */";
};
width = 2245;
}
);
note = uni0030;
unicode = 48;
}
{
glyphname = one;
layers = (
{
layerId = m01;
shapes = (
{
closed = 1;
nodes = (
(1955,0,ls),
(2033,0,o),
(2073,19,o),
(2122,111,cs),
(2568,950,ls),
(2578,968,o),
(2583,987,o),
(2583,1001,cs),
(2583,1036,o),
(2558,1061,o),
(2514,1061,cs),
(822,1061,ls),
(743,1061,o),
(704,1042,o),
(654,950,cs),
(209,111,l),
(221,111,l),
(221,1362,ls),
(221,1399,o),
(252,1430,o),
(289,1430,cs),
(863,1430,ls),
(900,1430,o),
(931,1399,o),
(931,1362,cs),
(931,1249,l),
(1916,1249,ls),
(1951,1249,o),
(1980,1222,o),
(1980,1187,cs),
(1980,1036,l),
(2027,1036,l),
(2027,1187,ls),
(2027,1249,o),
(1978,1298,o),
(1916,1298,cs),
(979,1298,l),
(979,1362,ls),
(979,1426,o),
(927,1480,o),
(863,1480,cs),
(289,1480,ls),
(225,1480,o),
(173,1426,o),
(173,1362,cs),
(173,111,ls),
(173,47,o),
(213,0,o),
(283,0,cs)
);
},
{
closed = 1;
nodes = (
(262,47,o),
(250,58,o),
(250,76,cs),
(250,87,o),
(254,97,o),
(262,111,cs),
(694,925,ls),
(729,991,o),
(751,1014,o),
(824,1014,cs),
(2483,1014,ls),
(2514,1014,o),
(2529,1007,o),
(2529,991,cs),
(2529,980,o),
(2525,968,o),
(2514,950,cs),
(2083,136,ls),
(2048,70,o),
(2025,47,o),
(1953,47,cs),
(289,47,ls)
);
}
);
userData = {
assembly = "NPUSHB[ ]	/* 38 values pushed */
32 62 25 69 104 36 41 20 58 104 3 62 104 0 49 104 12 3 36 12 128 0 0 66 66 29 25 62 32 63 31 37 116 25 32 116 25 29
PUSHW[ ]	/* 2 values pushed */
580 0
MDAP[1]	/* MoveDirectAbsPt */
MIRP[01101]	/* MoveIndirectRelPt */
IP[ ]	/* InterpolatePts */
MIRP[01101]	/* MoveIndirectRelPt */
MDAP[1]	/* MoveDirectAbsPt */
MIRP[01101]	/* MoveIndirectRelPt */
IP[ ]	/* InterpolatePts */
IP[ ]	/* InterpolatePts */
SRP1[ ]	/* SetRefPoint1 */
IP[ ]	/* InterpolatePts */
SRP1[ ]	/* SetRefPoint1 */
SRP2[ ]	/* SetRefPoint2 */
IP[ ]	/* InterpolatePts */
MDAP[1]	/* MoveDirectAbsPt */
SVTCA[0]	/* SetFreedomAndProjectionVectorToAxis */
MIAP[1]	/* MoveIndirectAbsPt */
MIRP[01101]	/* MoveIndirectRelPt */
IP[ ]	/* InterpolatePts */
IP[ ]	/* InterpolatePts */
SRP0[ ]	/* SetRefPoint0 */
MIRP[01101]	/* MoveIndirectRelPt */
SRP0[ ]	/* SetRefPoint0 */
MIRP[01101]	/* MoveIndirectRelPt */
MDAP[1]	/* MoveDirectAbsPt */
MIRP[01101]	/* MoveIndirectRelPt */
IP[ ]	/* InterpolatePts */
IP[ ]	/* InterpolatePts */
MDAP[1]	/* MoveDirectAbsPt */
MIRP[01101]	/* MoveIndirectRelPt */
IP[ ]	/* InterpolatePts */
SRP1[ ]	/* SetRefPoint1 */
IP[ ]	/* InterpolatePts */
IUP[1]	/* InterpolateUntPts */
IUP[0]	/* InterpolateUntPts */";
};
width = 2751;
}
);
note = uni0031;
unicode = 49;
}
{
glyphname = two;
layers = (
{
layerId = m01;
shapes = (
{
closed = 1;
nodes = (
(1257,0,l),
(1257,1100,l),
(1195,1230,o),
(1155,1287,o),
(1095,1344,cs),
(1038,1400,o),
(957,1448,o),
(865,1480,c),
(174,1480,l),
(174,0,l),
(174,0,l)
);
},
{
closed = 1;
nodes = (
(1071,396,ls),
(1090,396,o),
(1105,409,o),
(1105,427,cs),
(1105,446,o),
(1090,461,o),
(1071,461,cs),
(360,461,ls),
(341,461,o),
(326,446,o),
(326,427,cs),
(326,409,o),
(341,396,o),
(360,396,cs)
);
},
{
closed = 1;
nodes = (
(1071,575,ls),
(1090,575,o),
(1105,590,o),
(1105,608,cs),
(1105,625,o),
(1090,640,o),
(1071,640,cs),
(360,640,ls),
(341,640,o),
(326,625,o),
(326,608,cs),
(326,590,o),
(341,575,o),
(360,575,cs)
);
},
{
closed = 1;
nodes = (
(216,1438,l),
(899,1438,l),
(858,1473,l),
(870,1411,o),
(877,1339,o),
(865,1244,cs),
(862,1208,l),
(897,1207,ls),
(944,1203,o),
(1021,1198,o),
(1076,1183,cs),
(1165,1155,o),
(1185,1125,o),
(1252,1066,c),
(1214,1123,l),
(1214,44,l),
(216,44,l),
(216,44,l)
);
},
{
closed = 1;
nodes = (
(1071,754,ls),
(1090,754,o),
(1105,769,o),
(1105,788,cs),
(1105,806,o),
(1090,820,o),
(1071,820,cs),
(360,820,ls),
(341,820,o),
(326,806,o),
(326,788,cs),
(326,769,o),
(341,754,o),
(360,754,cs)
);
},
{
closed = 1;
nodes = (
(610,1115,ls),
(629,1115,o),
(642,1130,o),
(642,1146,cs),
(642,1165,o),
(629,1180,o),
(610,1180,cs),
(360,1180,ls),
(341,1180,o),
(326,1165,o),
(326,1146,cs),
(326,1130,o),
(341,1115,o),
(360,1115,cs)
);
},
{
closed = 1;
nodes = (
(1071,934,ls),
(1090,934,o),
(1105,949,o),
(1105,967,cs),
(1105,986,o),
(1090,999,o),
(1071,999,cs),
(360,999,ls),
(341,999,o),
(326,986,o),
(326,967,cs),
(326,949,o),
(341,934,o),
(360,934,cs)
);
}
);
userData = {
assembly = "NPUSHB[ ]	/* 51 values pushed */
8 18 35 5 104 4 9 11 16 3 30 104 31 1 104 0 34 104 35 23 104 22 26 104 27 18 104 14 19 104 0 4 22 27 31 35 6 14 163 13 0 10 20 7 29 25 3 9 37 34 30
NPUSHW[ ]	/* 11 values pushed */
328 27 328 23 328 26 328 33 328 7 581
PUSHB[ ]	/* 6 values pushed */
22 15 16 116 9 5
PUSHW[ ]	/* 3 values pushed */
581 1 581
PUSHB[ ]	/* 5 values pushed */
3 19 116 13 4
PUSHW[ ]	/* 1 value pushed */
581
PUSHB[ ]	/* 8 values pushed */
3 20 116 12 216 3 9 3
PUSHW[ ]	/* 1 value pushed */
581
PUSHB[ ]	/* 5 values pushed */
0 22 0 216 13
MDAP[1]	/* MoveDirectAbsPt */
MIRP[00100]	/* MoveIndirectRelPt */
IP[ ]	/* InterpolatePts */
SRP0[ ]	/* SetRefPoint0 */
MIRP[01101]	/* MoveIndirectRelPt */
IP[ ]	/* InterpolatePts */
SRP0[ ]	/* SetRefPoint0 */
MIRP[10100]	/* MoveIndirectRelPt */
MIRP[01101]	/* MoveIndirectRelPt */
SRP0[ ]	/* SetRefPoint0 */
MIRP[01101]	/* MoveIndirectRelPt */
SRP0[ ]	/* SetRefPoint0 */
MIRP[01101]	/* MoveIndirectRelPt */
SRP0[ ]	/* SetRefPoint0 */
MIRP[01101]	/* MoveIndirectRelPt */
MIRP[01101]	/* MoveIndirectRelPt */
MDAP[1]	/* MoveDirectAbsPt */
MIRP[01101]	/* MoveIndirectRelPt */
IP[ ]	/* InterpolatePts */
SRP0[ ]	/* SetRefPoint0 */
MIRP[01101]	/* MoveIndirectRelPt */
MIRP[11101]	/* MoveIndirectRelPt */
MIRP[01101]	/* MoveIndirectRelPt */
MIRP[01101]	/* MoveIndirectRelPt */
MIRP[01101]	/* MoveIndirectRelPt */
MIRP[01101]	/* MoveIndirectRelPt */
IP[ ]	/* InterpolatePts */
IP[ ]	/* InterpolatePts */
SRP1[ ]	/* SetRefPoint1 */
SRP2[ ]	/* SetRefPoint2 */
IP[ ]	/* InterpolatePts */
IP[ ]	/* InterpolatePts */
SRP1[ ]	/* SetRefPoint1 */
SRP2[ ]	/* SetRefPoint2 */
IP[ ]	/* InterpolatePts */
SVTCA[0]	/* SetFreedomAndProjectionVectorToAxis */
MIAP[1]	/* MoveIndirectAbsPt */
MIRP[01110]	/* MoveIndirectRelPt */
SLOOP[ ]	/* SetLoopVariable */
IP[ ]	/* InterpolatePts */
MIRP[01101]	/* MoveIndirectRelPt */
SRP0[ ]	/* SetRefPoint0 */
MIRP[01101]	/* MoveIndirectRelPt */
MDAP[1]	/* MoveDirectAbsPt */
MIRP[01101]	/* MoveIndirectRelPt */
MDAP[1]	/* MoveDirectAbsPt */
MIRP[01101]	/* MoveIndirectRelPt */
MDAP[1]	/* MoveDirectAbsPt */
MIRP[01101]	/* MoveIndirectRelPt */
MDAP[1]	/* MoveDirectAbsPt */
MIRP[01101]	/* MoveIndirectRelPt */
MDAP[1]	/* MoveDirectAbsPt */
MIRP[01101]	/* MoveIndirectRelPt */
SLOOP[ ]	/* SetLoopVariable */
IP[ ]	/* InterpolatePts */
MDAP[1]	/* MoveDirectAbsPt */
MIRP[01101]	/* MoveIndirectRelPt */
SRP1[ ]	/* SetRefPoint1 */
SRP2[ ]	/* SetRefPoint2 */
IP[ ]	/* InterpolatePts */
IUP[1]	/* InterpolateUntPts */
IUP[0]	/* InterpolateUntPts */";
};
width = 1431;
}
);
note = uni0032;
unicode = 50;
}
{
glyphname = three;
layers = (
{
layerId = m01;
shapes = (
{
closed = 1;
nodes = (
(1071,457,ls),
(1090,457,o),
(1105,470,o),
(1105,488,cs),
(1105,507,o),
(1090,522,o),
(1071,522,cs),
(360,522,ls),
(341,522,o),
(326,507,o),
(326,488,cs),
(326,470,o),
(341,457,o),
(360,457,cs)
);
},
{
closed = 1;
nodes = (
(1071,636,ls),
(1090,636,o),
(1105,651,o),
(1105,669,cs),
(1105,686,o),
(1090,701,o),
(1071,701,cs),
(360,701,ls),
(341,701,o),
(326,686,o),
(326,669,cs),
(326,651,o),
(341,636,o),
(360,636,cs)
);
},
{
closed = 1;
nodes = (
(1071,815,ls),
(1090,815,o),
(1105,830,o),
(1105,849,cs),
(1105,867,o),
(1090,881,o),
(1071,881,cs),
(360,881,ls),
(341,881,o),
(326,867,o),
(326,849,cs),
(326,830,o),
(341,815,o),
(360,815,cs)
);
},
{
closed = 1;
nodes = (
(1071,995,ls),
(1090,995,o),
(1105,1010,o),
(1105,1028,cs),
(1105,1047,o),
(1090,1060,o),
(1071,1060,cs),
(360,1060,ls),
(341,1060,o),
(326,1047,o),
(326,1028,cs),
(326,1010,o),
(341,995,o),
(360,995,cs)
);
},
{
closed = 1;
nodes = (
(1257,1483,l),
(174,1483,l),
(174,0,l),
(1257,0,l)
);
},
{
closed = 1;
nodes = (
(216,1439,l),
(1214,1439,l),
(1214,44,l),
(216,44,l)
);
},
{
closed = 1;
nodes = (
(1071,1174,ls),
(1090,1174,o),
(1105,1189,o),
(1105,1207,cs),
(1105,1226,o),
(1090,1239,o),
(1071,1239,cs),
(360,1239,ls),
(341,1239,o),
(326,1226,o),
(326,1207,cs),
(326,1189,o),
(341,1174,o),
(360,1174,cs)
);
},
{
closed = 1;
nodes = (
(1071,278,ls),
(1090,278,o),
(1105,291,o),
(1105,309,cs),
(1105,328,o),
(1090,343,o),
(1071,343,cs),
(360,343,ls),
(341,343,o),
(326,328,o),
(326,309,cs),
(326,291,o),
(341,278,o),
(360,278,cs)
);
}
);
userData = {
assembly = "NPUSHB[ ]	/* 43 values pushed */
24 104 25 20 104 21 9 104 8 28 104 29 13 104 12 17 104 16 6 104 2 5 104 3 8 12 16 21 25 29 6 3 163 2 0 31 27 11 24 28 9 6 23
NPUSHW[ ]	/* 20 values pushed */
581 24 21 581 19 581 20 581 17 581 15 581 16 581 12 581 13 581 9 581
NPUSHB[ ]	/* 9 values pushed */
11 6 116 2 7 116 1 216 11
PUSHW[ ]	/* 1 value pushed */
581
PUSHB[ ]	/* 5 values pushed */
8 24 8 216 2
MDAP[1]	/* MoveDirectAbsPt */
MIRP[00100]	/* MoveIndirectRelPt */
IP[ ]	/* InterpolatePts */
SRP0[ ]	/* SetRefPoint0 */
MIRP[11101]	/* MoveIndirectRelPt */
MIRP[10100]	/* MoveIndirectRelPt */
MIRP[01101]	/* MoveIndirectRelPt */
SRP0[ ]	/* SetRefPoint0 */
MIRP[01101]	/* MoveIndirectRelPt */
SRP0[ ]	/* SetRefPoint0 */
MIRP[01101]	/* MoveIndirectRelPt */
MIRP[01101]	/* MoveIndirectRelPt */
MIRP[01101]	/* MoveIndirectRelPt */
MIRP[11101]	/* MoveIndirectRelPt */
MIRP[11101]	/* MoveIndirectRelPt */
MIRP[01101]	/* MoveIndirectRelPt */
MIRP[11101]	/* MoveIndirectRelPt */
MIRP[11101]	/* MoveIndirectRelPt */
MIRP[01101]	/* MoveIndirectRelPt */
SRP0[ ]	/* SetRefPoint0 */
MIRP[01101]	/* MoveIndirectRelPt */
SRP1[ ]	/* SetRefPoint1 */
SRP2[ ]	/* SetRefPoint2 */
IP[ ]	/* InterpolatePts */
SRP1[ ]	/* SetRefPoint1 */
SRP2[ ]	/* SetRefPoint2 */
IP[ ]	/* InterpolatePts */
IP[ ]	/* InterpolatePts */
SVTCA[0]	/* SetFreedomAndProjectionVectorToAxis */
MIAP[1]	/* MoveIndirectAbsPt */
MIRP[01110]	/* MoveIndirectRelPt */
SLOOP[ ]	/* SetLoopVariable */
IP[ ]	/* InterpolatePts */
SRP0[ ]	/* SetRefPoint0 */
MIRP[01101]	/* MoveIndirectRelPt */
SRP0[ ]	/* SetRefPoint0 */
MIRP[01101]	/* MoveIndirectRelPt */
MDAP[1]	/* MoveDirectAbsPt */
MIRP[01101]	/* MoveIndirectRelPt */
MDAP[1]	/* MoveDirectAbsPt */
MIRP[01101]	/* MoveIndirectRelPt */
MDAP[1]	/* MoveDirectAbsPt */
MIRP[01101]	/* MoveIndirectRelPt */
MDAP[1]	/* MoveDirectAbsPt */
MIRP[01101]	/* MoveIndirectRelPt */
MDAP[1]	/* MoveDirectAbsPt */
MIRP[01101]	/* MoveIndirectRelPt */
MDAP[1]	/* MoveDirectAbsPt */
MIRP[01101]	/* MoveIndirectRelPt */
IUP[1]	/* InterpolateUntPts */
IUP[0]	/* InterpolateUntPts */";
};
width = 1431;
}
);
note = uni0033;
unicode = 51;
}
{
glyphname = four;
layers = (
{
layerId = m01;
shapes = (
{
closed = 1;
nodes = (
(1073,62,ls),
(1092,62,o),
(1107,75,o),
(1107,93,cs),
(1107,112,o),
(1092,127,o),
(1073,127,cs),
(362,127,ls),
(343,127,o),
(328,112,o),
(328,93,cs),
(328,75,o),
(343,62,o),
(362,62,cs)
);
},
{
closed = 1;
nodes = (
(1073,241,ls),
(1092,241,o),
(1107,256,o),
(1107,274,cs),
(1107,291,o),
(1092,306,o),
(1073,306,cs),
(362,306,ls),
(343,306,o),
(328,291,o),
(328,274,cs),
(328,256,o),
(343,241,o),
(362,241,cs)
);
},
{
closed = 1;
nodes = (
(1073,420,ls),
(1092,420,o),
(1107,435,o),
(1107,454,cs),
(1107,472,o),
(1092,486,o),
(1073,486,cs),
(362,486,ls),
(343,486,o),
(328,472,o),
(328,454,cs),
(328,435,o),
(343,420,o),
(362,420,cs)
);
},
{
closed = 1;
nodes = (
(1073,600,ls),
(1092,600,o),
(1107,615,o),
(1107,633,cs),
(1107,652,o),
(1092,665,o),
(1073,665,cs),
(362,665,ls),
(343,665,o),
(328,652,o),
(328,633,cs),
(328,615,o),
(343,600,o),
(362,600,cs)
);
},
{
closed = 1;
nodes = (
(1259,-201,l),
(1453,-201,l),
(1453,-3,l),
(1651,-3,l),
(1651,1480,l),
(568,1480,l),
(568,1282,l),
(370,1282,l),
(370,1088,l),
(176,1088,l),
(176,-395,l),
(1259,-395,l)
);
},
{
closed = 1;
nodes = (
(218,1044,l),
(1216,1044,l),
(1216,-351,l),
(218,-351,l)
);
},
{
closed = 1;
nodes = (
(1073,779,ls),
(1092,779,o),
(1107,794,o),
(1107,812,cs),
(1107,831,o),
(1092,844,o),
(1073,844,cs),
(362,844,ls),
(343,844,o),
(328,831,o),
(328,812,cs),
(328,794,o),
(343,779,o),
(362,779,cs)
);
},
{
closed = 1;
nodes = (
(1073,-117,ls),
(1092,-117,o),
(1107,-104,o),
(1107,-86,cs),
(1107,-67,o),
(1092,-52,o),
(1073,-52,cs),
(362,-52,ls),
(343,-52,o),
(328,-67,o),
(328,-86,cs),
(328,-104,o),
(343,-117,o),
(362,-117,cs)
);
},
{
closed = 1;
nodes = (
(412,1238,l),
(1410,1238,l),
(1410,-157,l),
(1259,-157,l),
(1259,1088,l),
(412,1088,l)
);
},
{
closed = 1;
nodes = (
(610,1436,l),
(1608,1436,l),
(1608,41,l),
(1453,41,l),
(1453,1282,l),
(610,1282,l)
);
}
);
userData = {
assembly = "NPUSHB[ ]	/* 51 values pushed */
21 104 1 29 104 28 48 104 49 37 104 36 41 104 40 33 104 32 44 104 45 15 104 11 0 13 18 104 6 19 25 104 4 163 26 104 3 12 104 8 1 28 11 32 36 40 45 49 6 9 8
PUSHW[ ]	/* 1 value pushed */
584
PUSHB[ ]	/* 6 values pushed */
3 51 47 31 13 43
PUSHW[ ]	/* 1 value pushed */
581
PUSHB[ ]	/* 6 values pushed */
48 5 19 116 44 41
NPUSHW[ ]	/* 19 values pushed */
581 39 581 40 581 37 581 35 581 36 581 32 581 33 581 29 581 31 581
NPUSHB[ ]	/* 9 values pushed */
28 15 22 116 0 21 27 116 2
PUSHW[ ]	/* 1 value pushed */
583
PUSHB[ ]	/* 6 values pushed */
26 116 3 13 116 7
PUSHW[ ]	/* 1 value pushed */
582
NPUSHB[ ]	/* 10 values pushed */
16 116 10 28 44 0 3 10 162 3
MDAP[1]	/* MoveDirectAbsPt */
MIRP[01101]	/* MoveIndirectRelPt */
SLOOP[ ]	/* SetLoopVariable */
IP[ ]	/* InterpolatePts */
SRP0[ ]	/* SetRefPoint0 */
MIRP[01101]	/* MoveIndirectRelPt */
MIRP[11101]	/* MoveIndirectRelPt */
MIRP[01101]	/* MoveIndirectRelPt */
SRP0[ ]	/* SetRefPoint0 */
MIRP[01101]	/* MoveIndirectRelPt */
MIRP[11110]	/* MoveIndirectRelPt */
MIRP[01101]	/* MoveIndirectRelPt */
IP[ ]	/* InterpolatePts */
MDAP[1]	/* MoveDirectAbsPt */
MIRP[01101]	/* MoveIndirectRelPt */
IP[ ]	/* InterpolatePts */
MDAP[1]	/* MoveDirectAbsPt */
MIRP[11101]	/* MoveIndirectRelPt */
MIRP[01101]	/* MoveIndirectRelPt */
MIRP[01101]	/* MoveIndirectRelPt */
MIRP[01101]	/* MoveIndirectRelPt */
MIRP[11101]	/* MoveIndirectRelPt */
MIRP[11101]	/* MoveIndirectRelPt */
MIRP[01101]	/* MoveIndirectRelPt */
MIRP[11101]	/* MoveIndirectRelPt */
MIRP[11101]	/* MoveIndirectRelPt */
MIRP[01101]	/* MoveIndirectRelPt */
MDAP[1]	/* MoveDirectAbsPt */
MIRP[01101]	/* MoveIndirectRelPt */
IP[ ]	/* InterpolatePts */
IP[ ]	/* InterpolatePts */
MIRP[01101]	/* MoveIndirectRelPt */
SRP1[ ]	/* SetRefPoint1 */
SRP2[ ]	/* SetRefPoint2 */
IP[ ]	/* InterpolatePts */
IP[ ]	/* InterpolatePts */
SVTCA[0]	/* SetFreedomAndProjectionVectorToAxis */
MDAP[1]	/* MoveDirectAbsPt */
MIRP[01101]	/* MoveIndirectRelPt */
SLOOP[ ]	/* SetLoopVariable */
IP[ ]	/* InterpolatePts */
SRP0[ ]	/* SetRefPoint0 */
MIRP[01101]	/* MoveIndirectRelPt */
SRP0[ ]	/* SetRefPoint0 */
MIRP[01101]	/* MoveIndirectRelPt */
MIRP[11110]	/* MoveIndirectRelPt */
MIRP[01101]	/* MoveIndirectRelPt */
IP[ ]	/* InterpolatePts */
MDAP[1]	/* MoveDirectAbsPt */
MIRP[01101]	/* MoveIndirectRelPt */
IP[ ]	/* InterpolatePts */
MIAP[1]	/* MoveIndirectAbsPt */
MIRP[01101]	/* MoveIndirectRelPt */
MDAP[1]	/* MoveDirectAbsPt */
MIRP[01101]	/* MoveIndirectRelPt */
MDAP[1]	/* MoveDirectAbsPt */
MIRP[01101]	/* MoveIndirectRelPt */
MDAP[1]	/* MoveDirectAbsPt */
MIRP[01101]	/* MoveIndirectRelPt */
MDAP[1]	/* MoveDirectAbsPt */
MIRP[01101]	/* MoveIndirectRelPt */
MDAP[1]	/* MoveDirectAbsPt */
MIRP[01101]	/* MoveIndirectRelPt */
MDAP[1]	/* MoveDirectAbsPt */
MIRP[01101]	/* MoveIndirectRelPt */
MDAP[1]	/* MoveDirectAbsPt */
MIRP[01101]	/* MoveIndirectRelPt */
IUP[1]	/* InterpolateUntPts */
IUP[0]	/* InterpolateUntPts */";
};
width = 1826;
}
);
note = uni0034;
unicode = 52;
}
{
glyphname = five;
layers = (
{
layerId = m01;
shapes = (
{
closed = 1;
nodes = (
(945,0,ls),
(968,0,o),
(985,17,o),
(985,39,cs),
(985,1440,ls),
(985,1462,o),
(968,1480,o),
(945,1480,cs),
(189,1480,ls),
(167,1480,o),
(150,1462,o),
(150,1440,cs),
(150,39,ls),
(150,17,o),
(167,0,o),
(189,0,cs)
);
},
{
closed = 1;
nodes = (
(724,227,ls),
(728,227,o),
(729,228,o),
(729,231,cs),
(729,271,ls),
(729,274,o),
(728,275,o),
(724,275,cs),
(411,275,ls),
(407,275,o),
(405,274,o),
(405,271,cs),
(405,231,ls),
(405,228,o),
(407,227,o),
(411,227,cs)
);
},
{
closed = 1;
nodes = (
(208,723,l),
(927,723,l),
(927,68,l),
(208,68,l),
(208,68,l)
);
},
{
closed = 1;
nodes = (
(692,372,l),
(692,510,l),
(657,510,l),
(657,405,l),
(478,405,l),
(478,510,l),
(443,510,l),
(443,372,l),
(443,372,l)
);
},
{
closed = 1;
nodes = (
(634,429,l),
(634,504,l),
(500,504,l),
(500,429,l),
(500,429,l)
);
},
{
closed = 1;
nodes = (
(724,932,ls),
(728,932,o),
(729,934,o),
(729,938,cs),
(729,976,ls),
(729,980,o),
(728,982,o),
(724,982,cs),
(411,982,ls),
(407,982,o),
(405,980,o),
(405,976,cs),
(405,938,ls),
(405,934,o),
(407,932,o),
(411,932,cs)
);
},
{
closed = 1;
nodes = (
(208,1415,l),
(927,1415,l),
(927,788,l),
(208,788,l),
(208,788,l)
);
},
{
closed = 1;
nodes = (
(692,1079,l),
(692,1217,l),
(657,1217,l),
(657,1109,l),
(478,1109,l),
(478,1217,l),
(443,1217,l),
(443,1079,l),
(443,1079,l)
);
},
{
closed = 1;
nodes = (
(634,1133,l),
(634,1210,l),
(500,1210,l),
(500,1133,l),
(500,1133,l)
);
}
);
userData = {
assembly = "PUSHB[ ]	/* 6 values pushed */
23 104 20 16 104 12
PUSHW[ ]	/* 1 value pushed */
566
PUSHB[ ]	/* 6 values pushed */
15 104 17 28 104 24
PUSHW[ ]	/* 1 value pushed */
566
NPUSHB[ ]	/* 35 values pushed */
29 104 27 32 104 35 5 104 3 10 104 2 17 20 3 150 6 104 9 27 35 9 150 2 0 22 22 30 23 35 17 15 29 116 27
PUSHW[ ]	/* 1 value pushed */
585
NPUSHB[ ]	/* 10 values pushed */
26 6 10 116 2 18 14 30 116 26
PUSHW[ ]	/* 1 value pushed */
564
PUSHB[ ]	/* 5 values pushed */
35 7 11 116 1
PUSHW[ ]	/* 1 value pushed */
331
PUSHB[ ]	/* 3 values pushed */
34 143 35
PUSHW[ ]	/* 2 values pushed */
331 2
MDAP[1]	/* MoveDirectAbsPt */
MIRP[10100]	/* MoveIndirectRelPt */
MIRP[11101]	/* MoveIndirectRelPt */
MIRP[10100]	/* MoveIndirectRelPt */
MIRP[01101]	/* MoveIndirectRelPt */
IP[ ]	/* InterpolatePts */
SRP0[ ]	/* SetRefPoint0 */
MIRP[11101]	/* MoveIndirectRelPt */
MIRP[01101]	/* MoveIndirectRelPt */
IP[ ]	/* InterpolatePts */
IP[ ]	/* InterpolatePts */
SRP0[ ]	/* SetRefPoint0 */
MIRP[01101]	/* MoveIndirectRelPt */
IP[ ]	/* InterpolatePts */
SRP0[ ]	/* SetRefPoint0 */
MIRP[11110]	/* MoveIndirectRelPt */
MIRP[01101]	/* MoveIndirectRelPt */
IP[ ]	/* InterpolatePts */
IP[ ]	/* InterpolatePts */
SRP1[ ]	/* SetRefPoint1 */
IP[ ]	/* InterpolatePts */
SRP2[ ]	/* SetRefPoint2 */
IP[ ]	/* InterpolatePts */
MDAP[1]	/* MoveDirectAbsPt */
SVTCA[0]	/* SetFreedomAndProjectionVectorToAxis */
MIAP[1]	/* MoveIndirectAbsPt */
MIRP[00100]	/* MoveIndirectRelPt */
IP[ ]	/* InterpolatePts */
IP[ ]	/* InterpolatePts */
SRP0[ ]	/* SetRefPoint0 */
MIRP[11101]	/* MoveIndirectRelPt */
MIRP[00100]	/* MoveIndirectRelPt */
IP[ ]	/* InterpolatePts */
IP[ ]	/* InterpolatePts */
SRP0[ ]	/* SetRefPoint0 */
MIRP[01101]	/* MoveIndirectRelPt */
SRP0[ ]	/* SetRefPoint0 */
MIRP[01101]	/* MoveIndirectRelPt */
MDAP[1]	/* MoveDirectAbsPt */
MIRP[01101]	/* MoveIndirectRelPt */
MDAP[1]	/* MoveDirectAbsPt */
MIRP[01101]	/* MoveIndirectRelPt */
MIRP[11110]	/* MoveIndirectRelPt */
MIRP[01101]	/* MoveIndirectRelPt */
MDAP[1]	/* MoveDirectAbsPt */
MIRP[11101]	/* MoveIndirectRelPt */
MIRP[11110]	/* MoveIndirectRelPt */
MIRP[01101]	/* MoveIndirectRelPt */
MDAP[1]	/* MoveDirectAbsPt */
MIRP[01101]	/* MoveIndirectRelPt */
IUP[1]	/* InterpolateUntPts */
IUP[0]	/* InterpolateUntPts */";
};
width = 1135;
}
);
note = uni0035;
unicode = 53;
}
{
glyphname = six;
layers = (
{
layerId = m01;
shapes = (
{
closed = 1;
nodes = (
(1186,0,l),
(1186,78,l),
(1040,78,l),
(1040,392,ls),
(1040,501,o),
(967,603,o),
(828,658,cs),
(754,687,l),
(746,702,o),
(743,718,o),
(743,738,cs),
(743,760,o),
(746,775,o),
(754,789,c),
(828,820,ls),
(965,877,o),
(1040,979,o),
(1040,1086,cs),
(1040,1402,l),
(1186,1402,l),
(1186,1480,l),
(48,1480,l),
(48,1402,l),
(196,1402,l),
(196,1086,ls),
(196,981,o),
(267,880,o),
(407,820,cs),
(480,789,l),
(489,773,o),
(491,756,o),
(491,738,cs),
(491,720,o),
(489,704,o),
(480,687,c),
(407,658,ls),
(265,601,o),
(196,499,o),
(196,392,cs),
(196,78,l),
(48,78,l),
(48,0,l),
(48,0,l)
);
},
{
closed = 1;
nodes = (
(907,118,l),
(907,283,ls),
(907,365,o),
(821,403,o),
(648,403,c),
(648,419,l),
(582,419,l),
(582,403,l),
(409,403,o),
(324,365,o),
(324,283,cs),
(324,118,l),
(324,118,l)
);
},
{
closed = 1;
nodes = (
(644,452,l),
(644,487,l),
(590,487,l),
(590,452,l),
(590,452,l)
);
},
{
closed = 1;
nodes = (
(639,516,l),
(639,550,l),
(591,550,l),
(591,516,l),
(591,516,l)
);
},
{
closed = 1;
nodes = (
(637,578,l),
(637,611,l),
(593,611,l),
(593,578,l),
(593,578,l)
);
},
{
closed = 1;
nodes = (
(633,642,l),
(633,674,l),
(597,674,l),
(597,642,l),
(597,642,l)
);
},
{
closed = 1;
nodes = (
(633,705,l),
(633,738,l),
(599,738,l),
(599,705,l),
(599,705,l)
);
},
{
closed = 1;
nodes = (
(280,392,ls),
(280,488,o),
(345,560,o),
(458,603,cs),
(533,632,l),
(555,651,o),
(568,685,o),
(568,738,cs),
(568,793,o),
(555,827,o),
(533,844,c),
(458,875,ls),
(338,924,o),
(280,993,o),
(280,1086,cs),
(280,1402,l),
(956,1402,l),
(956,1086,ls),
(956,993,o),
(896,924,o),
(776,875,cs),
(701,844,l),
(681,827,o),
(668,793,o),
(668,738,cs),
(668,685,o),
(681,651,o),
(701,632,c),
(776,603,ls),
(887,560,o),
(956,488,o),
(956,392,cs),
(956,78,l),
(280,78,l),
(280,78,l)
);
},
{
closed = 1;
nodes = (
(633,756,l),
(653,857,o),
(668,875,o),
(750,899,cs),
(830,922,o),
(885,970,o),
(907,1055,c),
(324,1055,l),
(349,959,o),
(406,920,o),
(486,897,cs),
(566,873,o),
(579,853,o),
(599,756,c)
);
}
);
userData = {
assembly = "NPUSHB[ ]	/* 27 values pushed */
69 0 94 126 87 51 45 39 69 92 94 96 104 112 118 124 126 9 36 89 104 39 45 104 17 39 17
PUSHW[ ]	/* 1 value pushed */
389
NPUSHB[ ]	/* 35 values pushed */
36 41 96 124 3 73 26 118 104 80 58 112 92 48 58 116 7 80 116 26 48 120 52 13 65 116 0 86 20 73 116 33 26 7 33
PUSHW[ ]	/* 2 values pushed */
375 0
MDAP[1]	/* MoveDirectAbsPt */
MIRP[01101]	/* MoveIndirectRelPt */
IP[ ]	/* InterpolatePts */
IP[ ]	/* InterpolatePts */
SRP0[ ]	/* SetRefPoint0 */
MIRP[01101]	/* MoveIndirectRelPt */
IP[ ]	/* InterpolatePts */
IP[ ]	/* InterpolatePts */
SRP0[ ]	/* SetRefPoint0 */
MIRP[01101]	/* MoveIndirectRelPt */
IP[ ]	/* InterpolatePts */
IP[ ]	/* InterpolatePts */
MIRP[01101]	/* MoveIndirectRelPt */
MDAP[1]	/* MoveDirectAbsPt */
MIRP[01101]	/* MoveIndirectRelPt */
MDAP[1]	/* MoveDirectAbsPt */
MIRP[01101]	/* MoveIndirectRelPt */
SRP2[ ]	/* SetRefPoint2 */
IP[ ]	/* InterpolatePts */
IP[ ]	/* InterpolatePts */
SRP1[ ]	/* SetRefPoint1 */
SRP2[ ]	/* SetRefPoint2 */
IP[ ]	/* InterpolatePts */
IP[ ]	/* InterpolatePts */
SRP1[ ]	/* SetRefPoint1 */
SRP2[ ]	/* SetRefPoint2 */
SLOOP[ ]	/* SetLoopVariable */
IP[ ]	/* InterpolatePts */
SVTCA[0]	/* SetFreedomAndProjectionVectorToAxis */
MDAP[1]	/* MoveDirectAbsPt */
MIRP[01101]	/* MoveIndirectRelPt */
IP[ ]	/* InterpolatePts */
SRP0[ ]	/* SetRefPoint0 */
MIRP[01101]	/* MoveIndirectRelPt */
MDAP[1]	/* MoveDirectAbsPt */
MIRP[01101]	/* MoveIndirectRelPt */
SRP1[ ]	/* SetRefPoint1 */
SLOOP[ ]	/* SetLoopVariable */
IP[ ]	/* InterpolatePts */
SRP1[ ]	/* SetRefPoint1 */
SRP2[ ]	/* SetRefPoint2 */
IP[ ]	/* InterpolatePts */
IP[ ]	/* InterpolatePts */
MDAP[1]	/* MoveDirectAbsPt */
MDAP[1]	/* MoveDirectAbsPt */
MIAP[1]	/* MoveIndirectAbsPt */
IUP[1]	/* InterpolateUntPts */
IUP[0]	/* InterpolateUntPts */";
};
width = 1233;
}
);
note = uni0036;
unicode = 54;
}
{
glyphname = seven;
layers = (
{
layerId = m01;
shapes = (
{
closed = 1;
nodes = (
(247,0,o),
(205,42,o),
(205,90,cs),
(205,763,ls),
(205,813,o),
(247,853,o),
(297,853,cs),
(1902,853,ls),
(1952,853,o),
(1992,813,o),
(1992,763,cs),
(1992,90,ls),
(1992,42,o),
(1952,0,o),
(1902,0,cs),
(297,0,l),
(297,0,l)
);
},
{
closed = 1;
nodes = (
(405,92,ls),
(421,92,o),
(435,106,o),
(435,120,cs),
(435,204,ls),
(435,220,o),
(421,230,o),
(405,230,cs),
(321,230,ls),
(307,230,o),
(295,220,o),
(295,204,cs),
(295,120,ls),
(295,106,o),
(307,92,o),
(321,92,cs)
);
},
{
closed = 1;
nodes = (
(590,92,ls),
(606,92,o),
(618,106,o),
(618,120,cs),
(618,204,ls),
(618,220,o),
(606,230,o),
(590,230,cs),
(507,230,ls),
(491,230,o),
(477,220,o),
(477,204,cs),
(477,120,ls),
(477,106,o),
(491,92,o),
(507,92,cs)
);
},
{
closed = 1;
nodes = (
(405,288,ls),
(421,288,o),
(435,300,o),
(435,316,cs),
(435,401,ls),
(435,415,o),
(421,429,o),
(405,429,cs),
(321,429,ls),
(307,429,o),
(295,415,o),
(295,401,cs),
(295,316,ls),
(295,300,o),
(307,288,o),
(321,288,cs)
);
},
{
closed = 1;
nodes = (
(590,288,ls),
(606,288,o),
(618,300,o),
(618,316,cs),
(618,401,ls),
(618,415,o),
(606,429,o),
(590,429,cs),
(507,429,ls),
(491,429,o),
(477,415,o),
(477,401,cs),
(477,316,ls),
(477,300,o),
(491,288,o),
(507,288,cs)
);
},
{
closed = 1;
nodes = (
(405,485,ls),
(421,485,o),
(435,497,o),
(435,511,cs),
(435,595,ls),
(435,611,o),
(421,623,o),
(405,623,cs),
(321,623,ls),
(307,623,o),
(295,611,o),
(295,595,cs),
(295,511,ls),
(295,497,o),
(307,485,o),
(321,485,cs)
);
},
{
closed = 1;
nodes = (
(405,679,ls),
(421,679,o),
(435,691,o),
(435,707,cs),
(435,735,ls),
(435,751,o),
(421,763,o),
(405,763,cs),
(321,763,ls),
(307,763,o),
(295,751,o),
(295,735,cs),
(295,707,ls),
(295,691,o),
(307,679,o),
(321,679,cs)
);
},
{
closed = 1;
nodes = (
(774,288,ls),
(790,288,o),
(802,300,o),
(802,316,cs),
(802,401,ls),
(802,415,o),
(790,429,o),
(774,429,cs),
(690,429,ls),
(676,429,o),
(662,415,o),
(662,401,cs),
(662,316,ls),
(662,300,o),
(676,288,o),
(690,288,cs)
);
},
{
closed = 1;
nodes = (
(590,485,ls),
(606,485,o),
(618,497,o),
(618,511,cs),
(618,595,ls),
(618,611,o),
(606,623,o),
(590,623,cs),
(507,623,ls),
(491,623,o),
(477,611,o),
(477,595,cs),
(477,511,ls),
(477,497,o),
(491,485,o),
(507,485,cs)
);
},
{
closed = 1;
nodes = (
(1507,92,ls),
(1523,92,o),
(1537,106,o),
(1537,120,cs),
(1537,204,ls),
(1537,220,o),
(1523,230,o),
(1507,230,cs),
(690,230,ls),
(676,230,o),
(662,220,o),
(662,204,cs),
(662,120,ls),
(662,106,o),
(676,92,o),
(690,92,cs)
);
},
{
closed = 1;
nodes = (
(590,679,ls),
(606,679,o),
(618,691,o),
(618,707,cs),
(618,735,ls),
(618,751,o),
(606,763,o),
(590,763,cs),
(507,763,ls),
(491,763,o),
(477,751,o),
(477,735,cs),
(477,707,ls),
(477,691,o),
(491,679,o),
(507,679,cs)
);
},
{
closed = 1;
nodes = (
(958,288,ls),
(972,288,o),
(984,300,o),
(984,316,cs),
(984,401,ls),
(984,415,o),
(972,429,o),
(958,429,cs),
(874,429,ls),
(858,429,o),
(846,415,o),
(846,401,cs),
(846,316,ls),
(846,300,o),
(858,288,o),
(874,288,cs)
);
},
{
closed = 1;
nodes = (
(774,485,ls),
(790,485,o),
(802,497,o),
(802,511,cs),
(802,595,ls),
(802,611,o),
(790,623,o),
(774,623,cs),
(690,623,ls),
(676,623,o),
(662,611,o),
(662,595,cs),
(662,511,ls),
(662,497,o),
(676,485,o),
(690,485,cs)
);
},
{
closed = 1;
nodes = (
(774,679,ls),
(790,679,o),
(802,691,o),
(802,707,cs),
(802,735,ls),
(802,751,o),
(790,763,o),
(774,763,cs),
(690,763,ls),
(676,763,o),
(662,751,o),
(662,735,cs),
(662,707,ls),
(662,691,o),
(676,679,o),
(690,679,cs)
);
},
{
closed = 1;
nodes = (
(1140,288,ls),
(1156,288,o),
(1168,300,o),
(1168,316,cs),
(1168,401,ls),
(1168,415,o),
(1156,429,o),
(1140,429,cs),
(1058,429,ls),
(1042,429,o),
(1030,415,o),
(1030,401,cs),
(1030,316,ls),
(1030,300,o),
(1042,288,o),
(1058,288,cs)
);
},
{
closed = 1;
nodes = (
(958,485,ls),
(972,485,o),
(984,497,o),
(984,511,cs),
(984,595,ls),
(984,611,o),
(972,623,o),
(958,623,cs),
(874,623,ls),
(858,623,o),
(846,611,o),
(846,595,cs),
(846,511,ls),
(846,497,o),
(858,485,o),
(874,485,cs)
);
},
{
closed = 1;
nodes = (
(958,679,ls),
(972,679,o),
(984,691,o),
(984,707,cs),
(984,735,ls),
(984,751,o),
(972,763,o),
(958,763,cs),
(874,763,ls),
(858,763,o),
(846,751,o),
(846,735,cs),
(846,707,ls),
(846,691,o),
(858,679,o),
(874,679,cs)
);
},
{
closed = 1;
nodes = (
(1325,288,ls),
(1339,288,o),
(1353,300,o),
(1353,316,cs),
(1353,401,ls),
(1353,415,o),
(1339,429,o),
(1325,429,cs),
(1241,429,ls),
(1225,429,o),
(1213,415,o),
(1213,401,cs),
(1213,316,ls),
(1213,300,o),
(1225,288,o),
(1241,288,cs)
);
},
{
closed = 1;
nodes = (
(1140,485,ls),
(1156,485,o),
(1168,497,o),
(1168,511,cs),
(1168,595,ls),
(1168,611,o),
(1156,623,o),
(1140,623,cs),
(1058,623,ls),
(1042,623,o),
(1030,611,o),
(1030,595,cs),
(1030,511,ls),
(1030,497,o),
(1042,485,o),
(1058,485,cs)
);
},
{
closed = 1;
nodes = (
(1691,92,ls),
(1707,92,o),
(1719,106,o),
(1719,120,cs),
(1719,204,ls),
(1719,220,o),
(1707,230,o),
(1691,230,cs),
(1609,230,ls),
(1593,230,o),
(1579,220,o),
(1579,204,cs),
(1579,120,ls),
(1579,106,o),
(1593,92,o),
(1609,92,cs)
);
},
{
closed = 1;
nodes = (
(1140,679,ls),
(1156,679,o),
(1168,691,o),
(1168,707,cs),
(1168,735,ls),
(1168,751,o),
(1156,763,o),
(1140,763,cs),
(1058,763,ls),
(1042,763,o),
(1030,751,o),
(1030,735,cs),
(1030,707,ls),
(1030,691,o),
(1042,679,o),
(1058,679,cs)
);
},
{
closed = 1;
nodes = (
(1507,288,ls),
(1523,288,o),
(1537,300,o),
(1537,316,cs),
(1537,401,ls),
(1537,415,o),
(1523,429,o),
(1507,429,cs),
(1423,429,ls),
(1409,429,o),
(1397,415,o),
(1397,401,cs),
(1397,316,ls),
(1397,300,o),
(1409,288,o),
(1423,288,cs)
);
},
{
closed = 1;
nodes = (
(1325,485,ls),
(1339,485,o),
(1353,497,o),
(1353,511,cs),
(1353,595,ls),
(1353,611,o),
(1339,623,o),
(1325,623,cs),
(1241,623,ls),
(1225,623,o),
(1213,611,o),
(1213,595,cs),
(1213,511,ls),
(1213,497,o),
(1225,485,o),
(1241,485,cs)
);
},
{
closed = 1;
nodes = (
(1876,92,ls),
(1890,92,o),
(1902,106,o),
(1902,120,cs),
(1902,204,ls),
(1902,220,o),
(1890,230,o),
(1876,230,cs),
(1791,230,ls),
(1777,230,o),
(1763,220,o),
(1763,204,cs),
(1763,120,ls),
(1763,106,o),
(1777,92,o),
(1791,92,cs)
);
},
{
closed = 1;
nodes = (
(1325,679,ls),
(1339,679,o),
(1353,691,o),
(1353,707,cs),
(1353,735,ls),
(1353,751,o),
(1339,763,o),
(1325,763,cs),
(1241,763,ls),
(1225,763,o),
(1213,751,o),
(1213,735,cs),
(1213,707,ls),
(1213,691,o),
(1225,679,o),
(1241,679,cs)
);
},
{
closed = 1;
nodes = (
(1507,485,ls),
(1523,485,o),
(1537,497,o),
(1537,511,cs),
(1537,595,ls),
(1537,611,o),
(1523,623,o),
(1507,623,cs),
(1423,623,ls),
(1409,623,o),
(1397,611,o),
(1397,595,cs),
(1397,511,ls),
(1397,497,o),
(1409,485,o),
(1423,485,cs)
);
},
{
closed = 1;
nodes = (
(1090,1104,o),
(980,1076,o),
(748,1170,cs),
(644,1212,o),
(610,1272,o),
(610,1332,cs),
(610,1400,o),
(648,1468,o),
(688,1520,c),
(730,1490,l),
(684,1428,o),
(662,1378,o),
(662,1336,cs),
(662,1286,o),
(698,1248,o),
(768,1218,cs),
(962,1136,o),
(1142,1152,o),
(1142,837,c),
(1090,837,l),
(1090,837,l)
);
},
{
closed = 1;
nodes = (
(1876,288,ls),
(1890,288,o),
(1902,300,o),
(1902,316,cs),
(1902,401,ls),
(1902,415,o),
(1890,429,o),
(1876,429,cs),
(1609,429,ls),
(1593,429,o),
(1579,415,o),
(1579,401,cs),
(1579,316,ls),
(1579,300,o),
(1593,288,o),
(1609,288,cs)
);
},
{
closed = 1;
nodes = (
(1507,679,ls),
(1523,679,o),
(1537,691,o),
(1537,707,cs),
(1537,735,ls),
(1537,751,o),
(1523,763,o),
(1507,763,cs),
(1423,763,ls),
(1409,763,o),
(1397,751,o),
(1397,735,cs),
(1397,707,ls),
(1397,691,o),
(1409,679,o),
(1423,679,cs)
);
},
{
closed = 1;
nodes = (
(1691,485,ls),
(1707,485,o),
(1719,497,o),
(1719,511,cs),
(1719,595,ls),
(1719,611,o),
(1707,623,o),
(1691,623,cs),
(1609,623,ls),
(1593,623,o),
(1579,611,o),
(1579,595,cs),
(1579,511,ls),
(1579,497,o),
(1593,485,o),
(1609,485,cs)
);
},
{
closed = 1;
nodes = (
(1691,679,ls),
(1707,679,o),
(1719,691,o),
(1719,707,cs),
(1719,735,ls),
(1719,751,o),
(1707,763,o),
(1691,763,cs),
(1609,763,ls),
(1593,763,o),
(1579,751,o),
(1579,735,cs),
(1579,707,ls),
(1579,691,o),
(1593,679,o),
(1609,679,cs)
);
},
{
closed = 1;
nodes = (
(1876,485,ls),
(1890,485,o),
(1902,497,o),
(1902,511,cs),
(1902,595,ls),
(1902,611,o),
(1890,623,o),
(1876,623,cs),
(1791,623,ls),
(1777,623,o),
(1763,611,o),
(1763,595,cs),
(1763,511,ls),
(1763,497,o),
(1777,485,o),
(1791,485,cs)
);
},
{
closed = 1;
nodes = (
(1876,679,ls),
(1890,679,o),
(1902,691,o),
(1902,707,cs),
(1902,735,ls),
(1902,751,o),
(1890,763,o),
(1876,763,cs),
(1791,763,ls),
(1777,763,o),
(1763,751,o),
(1763,735,cs),
(1763,707,ls),
(1763,691,o),
(1777,679,o),
(1791,679,cs)
);
}
);
userData = {
assembly = "NPUSHB[ ]	/* 21 values pushed */
81 69 63 120 124 128 3 116 118 125 121 114 109 88 92 96 100 104 5 108 130
PUSHW[ ]	/* 7 values pushed */
571 129 36 405 41 21 405
NPUSHB[ ]	/* 16 values pushed */
41 104 26 16 104 46 17 46 104 0 77 74 65 64 244 62
PUSHW[ ]	/* 3 values pushed */
571 65 571
NPUSHB[ ]	/* 9 values pushed */
67 244 68 244 116 72 244 112 61
PUSHW[ ]	/* 1 value pushed */
571
PUSHB[ ]	/* 5 values pushed */
116 71 244 112 69
PUSHW[ ]	/* 1 value pushed */
571
NPUSHB[ ]	/* 10 values pushed */
116 244 63 75 79 84 3 63 244 112
PUSHW[ ]	/* 1 value pushed */
588
NPUSHB[ ]	/* 15 values pushed */
108 85 90 94 98 102 5 109 244 118 244 113 244 106 108
PUSHW[ ]	/* 1 value pushed */
571
NPUSHB[ ]	/* 13 values pushed */
117 244 114 244 106 53 104 129 106 0 26 4 30
PUSHW[ ]	/* 1 value pushed */
525
NPUSHB[ ]	/* 11 values pushed */
9 0 32 32 126 125 67 103 114 83 87
PUSHW[ ]	/* 1 value pushed */
306
PUSHB[ ]	/* 6 values pushed */
85 112 17 0 143 108
PUSHW[ ]	/* 1 value pushed */
306
PUSHB[ ]	/* 4 values pushed */
63 107 189 110
PUSHW[ ]	/* 1 value pushed */
587
NPUSHB[ ]	/* 10 values pushed */
132 68 117 189 100 91 79 126 189 114
PUSHW[ ]	/* 1 value pushed */
484
NPUSHB[ ]	/* 17 values pushed */
132 80 88 189 85 132 144 92 76 92 189 125 104 64 113 189 85
PUSHW[ ]	/* 1 value pushed */
587
PUSHB[ ]	/* 3 values pushed */
103 144 129
PUSHW[ ]	/* 3 values pushed */
484 125 456
NPUSHB[ ]	/* 23 values pushed */
100 144 99 71 99 189 118 75 122 189 95 144 96 72 96 189 121 50 116 12 57 116 5
PUSHW[ ]	/* 1 value pushed */
586
PUSHB[ ]	/* 3 values pushed */
121 144 118
PUSHW[ ]	/* 2 values pushed */
586 12
MDAP[1]	/* MoveDirectAbsPt */
MIRP[10100]	/* MoveIndirectRelPt */
MIRP[11101]	/* MoveIndirectRelPt */
MIRP[10100]	/* MoveIndirectRelPt */
MIRP[01101]	/* MoveIndirectRelPt */
SRP0[ ]	/* SetRefPoint0 */
MIRP[01101]	/* MoveIndirectRelPt */
SRP0[ ]	/* SetRefPoint0 */
MIRP[00101]	/* MoveIndirectRelPt */
IP[ ]	/* InterpolatePts */
SRP0[ ]	/* SetRefPoint0 */
MIRP[11101]	/* MoveIndirectRelPt */
MIRP[00101]	/* MoveIndirectRelPt */
IP[ ]	/* InterpolatePts */
SRP0[ ]	/* SetRefPoint0 */
MIRP[00101]	/* MoveIndirectRelPt */
IP[ ]	/* InterpolatePts */
SRP0[ ]	/* SetRefPoint0 */
MIRP[11101]	/* MoveIndirectRelPt */
MIRP[11101]	/* MoveIndirectRelPt */
MIRP[11101]	/* MoveIndirectRelPt */
MIRP[01101]	/* MoveIndirectRelPt */
MIRP[01101]	/* MoveIndirectRelPt */
MIRP[00101]	/* MoveIndirectRelPt */
IP[ ]	/* InterpolatePts */
IP[ ]	/* InterpolatePts */
SRP0[ ]	/* SetRefPoint0 */
MIRP[00101]	/* MoveIndirectRelPt */
IP[ ]	/* InterpolatePts */
SRP0[ ]	/* SetRefPoint0 */
MIRP[01101]	/* MoveIndirectRelPt */
SRP0[ ]	/* SetRefPoint0 */
MIRP[00101]	/* MoveIndirectRelPt */
IP[ ]	/* InterpolatePts */
SRP0[ ]	/* SetRefPoint0 */
MIRP[01101]	/* MoveIndirectRelPt */
MIRP[00101]	/* MoveIndirectRelPt */
IP[ ]	/* InterpolatePts */
IP[ ]	/* InterpolatePts */
SRP0[ ]	/* SetRefPoint0 */
MIRP[00101]	/* MoveIndirectRelPt */
IP[ ]	/* InterpolatePts */
SRP0[ ]	/* SetRefPoint0 */
MIRP[11101]	/* MoveIndirectRelPt */
MIRP[00101]	/* MoveIndirectRelPt */
IP[ ]	/* InterpolatePts */
MIRP[10100]	/* MoveIndirectRelPt */
MIRP[01101]	/* MoveIndirectRelPt */
IP[ ]	/* InterpolatePts */
IP[ ]	/* InterpolatePts */
SRP0[ ]	/* SetRefPoint0 */
MIRP[00100]	/* MoveIndirectRelPt */
IP[ ]	/* InterpolatePts */
SRP1[ ]	/* SetRefPoint1 */
SRP2[ ]	/* SetRefPoint2 */
IP[ ]	/* InterpolatePts */
SRP1[ ]	/* SetRefPoint1 */
SRP2[ ]	/* SetRefPoint2 */
IP[ ]	/* InterpolatePts */
MDAP[1]	/* MoveDirectAbsPt */
SVTCA[0]	/* SetFreedomAndProjectionVectorToAxis */
MIAP[1]	/* MoveIndirectAbsPt */
MIRP[01101]	/* MoveIndirectRelPt */
SLOOP[ ]	/* SetLoopVariable */
IP[ ]	/* InterpolatePts */
MIRP[01101]	/* MoveIndirectRelPt */
MDAP[1]	/* MoveDirectAbsPt */
MIRP[00101]	/* MoveIndirectRelPt */
MIRP[10101]	/* MoveIndirectRelPt */
MIRP[01101]	/* MoveIndirectRelPt */
SRP0[ ]	/* SetRefPoint0 */
MIRP[00101]	/* MoveIndirectRelPt */
MIRP[00101]	/* MoveIndirectRelPt */
MIRP[00101]	/* MoveIndirectRelPt */
SLOOP[ ]	/* SetLoopVariable */
IP[ ]	/* InterpolatePts */
SRP0[ ]	/* SetRefPoint0 */
MIRP[10100]	/* MoveIndirectRelPt */
MIRP[00101]	/* MoveIndirectRelPt */
SLOOP[ ]	/* SetLoopVariable */
IP[ ]	/* InterpolatePts */
SRP0[ ]	/* SetRefPoint0 */
MIRP[10101]	/* MoveIndirectRelPt */
MIRP[01101]	/* MoveIndirectRelPt */
SRP0[ ]	/* SetRefPoint0 */
MIRP[00101]	/* MoveIndirectRelPt */
SRP0[ ]	/* SetRefPoint0 */
MIRP[01101]	/* MoveIndirectRelPt */
SRP0[ ]	/* SetRefPoint0 */
MIRP[00101]	/* MoveIndirectRelPt */
SRP0[ ]	/* SetRefPoint0 */
MIRP[00101]	/* MoveIndirectRelPt */
MIRP[00101]	/* MoveIndirectRelPt */
MIRP[01101]	/* MoveIndirectRelPt */
MIRP[01101]	/* MoveIndirectRelPt */
MIRP[00101]	/* MoveIndirectRelPt */
SRP0[ ]	/* SetRefPoint0 */
ALIGNRP[ ]	/* AlignRelativePt */
ALIGNRP[ ]	/* AlignRelativePt */
MDAP[1]	/* MoveDirectAbsPt */
MIRP[01101]	/* MoveIndirectRelPt */
IP[ ]	/* InterpolatePts */
SRP0[ ]	/* SetRefPoint0 */
MIRP[01101]	/* MoveIndirectRelPt */
MDAP[1]	/* MoveDirectAbsPt */
MIRP[01101]	/* MoveIndirectRelPt */
MIRP[00100]	/* MoveIndirectRelPt */
SRP0[ ]	/* SetRefPoint0 */
MIRP[00100]	/* MoveIndirectRelPt */
MDAP[1]	/* MoveDirectAbsPt */
MIRP[11101]	/* MoveIndirectRelPt */
SRP1[ ]	/* SetRefPoint1 */
SLOOP[ ]	/* SetLoopVariable */
IP[ ]	/* InterpolatePts */
SRP1[ ]	/* SetRefPoint1 */
SRP2[ ]	/* SetRefPoint2 */
IP[ ]	/* InterpolatePts */
IP[ ]	/* InterpolatePts */
SRP1[ ]	/* SetRefPoint1 */
SRP2[ ]	/* SetRefPoint2 */
SLOOP[ ]	/* SetLoopVariable */
IP[ ]	/* InterpolatePts */
SRP1[ ]	/* SetRefPoint1 */
SRP2[ ]	/* SetRefPoint2 */
IP[ ]	/* InterpolatePts */
IUP[1]	/* InterpolateUntPts */
IUP[0]	/* InterpolateUntPts */";
};
width = 2196;
}
);
note = uni0037;
unicode = 55;
}
{
glyphname = eight;
layers = (
{
layerId = m01;
shapes = (
{
closed = 1;
nodes = (
(1293,-59,o),
(1458,111,o),
(1458,423,cs),
(1458,471,l),
(1431,988,ls),
(1425,1122,o),
(1375,1182,o),
(1255,1194,cs),
(847,1235,ls),
(821,1238,o),
(797,1240,o),
(774,1240,cs),
(616,1240,o),
(542,1151,o),
(532,952,cs),
(511,504,l),
(511,428,ls),
(511,109,o),
(676,-59,o),
(985,-59,cs)
);
},
{
closed = 1;
nodes = (
(704,-11,o),
(560,137,o),
(560,428,cs),
(560,506,l),
(574,787,l),
(659,796,o),
(740,800,o),
(822,800,cs),
(1013,800,o),
(1199,776,o),
(1395,723,c),
(1408,468,l),
(1408,423,ls),
(1408,137,o),
(1267,-11,o),
(987,-11,cs)
);
},
{
closed = 1;
nodes = (
(582,950,ls),
(590,1125,o),
(644,1192,o),
(774,1192,cs),
(794,1192,o),
(817,1189,o),
(842,1187,cs),
(995,1173,l),
(995,843,l),
(936,848,o),
(875,850,o),
(814,850,cs),
(735,850,o),
(654,847,o),
(577,838,c)
);
},
{
closed = 1;
nodes = (
(1040,1208,l),
(1031,1273,o),
(1010,1348,o),
(962,1396,cs),
(937,1422,o),
(903,1438,o),
(858,1438,cs),
(827,1438,o),
(792,1431,o),
(683,1384,cs),
(592,1346,o),
(495,1299,o),
(402,1299,cs),
(335,1299,o),
(268,1328,o),
(173,1407,c),
(136,1370,l),
(241,1280,o),
(326,1249,o),
(405,1249,cs),
(525,1249,o),
(634,1310,o),
(701,1337,cs),
(802,1378,o),
(831,1385,o),
(856,1385,cs),
(885,1385,o),
(909,1376,o),
(928,1357,cs),
(958,1327,o),
(978,1276,o),
(989,1200,c)
);
},
{
closed = 1;
nodes = (
(1285,804,o),
(1165,827,o),
(1041,838,c),
(1041,1168,l),
(1249,1146,ls),
(1344,1136,o),
(1375,1097,o),
(1382,987,cs),
(1394,774,l)
);
}
);
userData = {
assembly = "NPUSHB[ ]	/* 18 values pushed */
36 36 5 48 7 1 104 63 8 14 104 5 26 130 46 63 5 46
PUSHW[ ]	/* 1 value pushed */
589
PUSHB[ ]	/* 3 values pushed */
40 130 31
PUSHW[ ]	/* 1 value pushed */
589
NPUSHB[ ]	/* 23 values pushed */
18 104 56 48 48 21 8 5 59 116 15 23 120 6 116 8 9 21 116 53 8 15 53
PUSHW[ ]	/* 2 values pushed */
392 34
MDAP[1]	/* MoveDirectAbsPt */
MIRP[01101]	/* MoveIndirectRelPt */
IP[ ]	/* InterpolatePts */
IP[ ]	/* InterpolatePts */
SRP0[ ]	/* SetRefPoint0 */
MIRP[01101]	/* MoveIndirectRelPt */
IP[ ]	/* InterpolatePts */
MDAP[1]	/* MoveDirectAbsPt */
MIRP[01101]	/* MoveIndirectRelPt */
MIRP[01101]	/* MoveIndirectRelPt */
MDAP[1]	/* MoveDirectAbsPt */
MIRP[01101]	/* MoveIndirectRelPt */
IP[ ]	/* InterpolatePts */
SRP1[ ]	/* SetRefPoint1 */
SRP2[ ]	/* SetRefPoint2 */
IP[ ]	/* InterpolatePts */
MDAP[1]	/* MoveDirectAbsPt */
SVTCA[0]	/* SetFreedomAndProjectionVectorToAxis */
MDAP[1]	/* MoveDirectAbsPt */
MIRP[01101]	/* MoveIndirectRelPt */
MIRP[10100]	/* MoveIndirectRelPt */
MIRP[11101]	/* MoveIndirectRelPt */
MIRP[00100]	/* MoveIndirectRelPt */
IP[ ]	/* InterpolatePts */
IP[ ]	/* InterpolatePts */
SRP0[ ]	/* SetRefPoint0 */
MIRP[01101]	/* MoveIndirectRelPt */
MDAP[1]	/* MoveDirectAbsPt */
MIRP[01101]	/* MoveIndirectRelPt */
IP[ ]	/* InterpolatePts */
MDAP[1]	/* MoveDirectAbsPt */
MIRP[01101]	/* MoveIndirectRelPt */
IP[ ]	/* InterpolatePts */
IP[ ]	/* InterpolatePts */
SRP1[ ]	/* SetRefPoint1 */
IP[ ]	/* InterpolatePts */
MDAP[1]	/* MoveDirectAbsPt */
IUP[1]	/* InterpolateUntPts */
IUP[0]	/* InterpolateUntPts */";
};
width = 1941;
}
);
note = uni0038;
unicode = 56;
}
{
glyphname = nine;
layers = (
{
layerId = m01;
shapes = (
{
closed = 1;
nodes = (
(2000,0,l),
(2008,604,ls),
(2012,916,o),
(1826,1086,o),
(1485,1086,cs),
(1143,1086,o),
(958,918,o),
(961,599,cs),
(966,0,l),
(966,0,l)
);
},
{
closed = 1;
nodes = (
(595,249,o),
(704,310,o),
(771,337,cs),
(900,389,o),
(943,385,o),
(976,385,c),
(978,438,l),
(938,438,o),
(888,442,o),
(753,384,cs),
(662,346,o),
(565,299,o),
(472,299,cs),
(405,299,o),
(338,328,o),
(243,407,c),
(206,370,l),
(311,280,o),
(396,249,o),
(475,249,cs)
);
},
{
closed = 1;
nodes = (
(1010,599,ls),
(1007,890,o),
(1171,1038,o),
(1487,1038,cs),
(1800,1038,o),
(1962,890,o),
(1958,604,cs),
(1951,50,l),
(1015,50,l),
(1015,50,l)
);
},
{
closed = 1;
nodes = (
(1643,235,o),
(1771,363,o),
(1771,522,cs),
(1771,681,o),
(1643,809,o),
(1484,809,cs),
(1326,809,o),
(1197,681,o),
(1197,522,cs),
(1197,363,o),
(1326,235,o),
(1484,235,cs)
);
},
{
closed = 1;
nodes = (
(1353,285,o),
(1247,391,o),
(1247,522,cs),
(1247,653,o),
(1353,759,o),
(1484,759,cs),
(1615,759,o),
(1721,653,o),
(1721,522,cs),
(1721,391,o),
(1615,285,o),
(1484,285,cs)
);
},
{
closed = 1;
nodes = (
(1580,349,o),
(1657,426,o),
(1657,522,cs),
(1657,618,o),
(1580,695,o),
(1484,695,cs),
(1389,695,o),
(1311,618,o),
(1311,522,cs),
(1311,426,o),
(1389,349,o),
(1484,349,cs)
);
},
{
closed = 1;
nodes = (
(1414,395,o),
(1357,452,o),
(1357,522,cs),
(1357,592,o),
(1414,649,o),
(1484,649,cs),
(1554,649,o),
(1611,592,o),
(1611,522,cs),
(1611,452,o),
(1554,395,o),
(1484,395,cs)
);
}
);
userData = {
assembly = "NPUSHB[ ]	/* 18 values pushed */
67 71 72 77 78 86 6 18 90 0 120 34 130 3 102 104 96 114
PUSHW[ ]	/* 1 value pushed */
334
NPUSHB[ ]	/* 17 values pushed */
120 81 66 108 104 90 37 64 83 3 80 104 54 69 42 104 18
PUSHW[ ]	/* 1 value pushed */
592
NPUSHB[ ]	/* 14 values pushed */
14 58 104 50 14 130 23 3 96 120 54 90 5 23
PUSHW[ ]	/* 1 value pushed */
591
NPUSHB[ ]	/* 34 values pushed */
50 0 64 67 81 83 86 5 62 93 72 111 99 74 75 78 3 87 55 31 143 6 80 37 55 116 53 26 143 11 77 71 87 111
PUSHW[ ]	/* 1 value pushed */
590
PUSHB[ ]	/* 6 values pushed */
99 116 87 66 93 117
PUSHW[ ]	/* 1 value pushed */
590
NPUSHB[ ]	/* 14 values pushed */
105 116 93 84 62 116 46 6 11 53 87 93 5 46
PUSHW[ ]	/* 2 values pushed */
288 20
MDAP[1]	/* MoveDirectAbsPt */
MIRP[01101]	/* MoveIndirectRelPt */
SLOOP[ ]	/* SetLoopVariable */
IP[ ]	/* InterpolatePts */
SRP0[ ]	/* SetRefPoint0 */
MIRP[01101]	/* MoveIndirectRelPt */
IP[ ]	/* InterpolatePts */
MDAP[1]	/* MoveDirectAbsPt */
MIRP[11101]	/* MoveIndirectRelPt */
MIRP[00110]	/* MoveIndirectRelPt */
SRP2[ ]	/* SetRefPoint2 */
IP[ ]	/* InterpolatePts */
MDAP[1]	/* MoveDirectAbsPt */
MIRP[11101]	/* MoveIndirectRelPt */
MIRP[00110]	/* MoveIndirectRelPt */
SRP2[ ]	/* SetRefPoint2 */
IP[ ]	/* InterpolatePts */
IP[ ]	/* InterpolatePts */
MDAP[1]	/* MoveDirectAbsPt */
MIRP[01101]	/* MoveIndirectRelPt */
MDAP[1]	/* MoveDirectAbsPt */
MIRP[01101]	/* MoveIndirectRelPt */
IP[ ]	/* InterpolatePts */
IP[ ]	/* InterpolatePts */
MDAP[1]	/* MoveDirectAbsPt */
MIRP[01101]	/* MoveIndirectRelPt */
SRP1[ ]	/* SetRefPoint1 */
SRP2[ ]	/* SetRefPoint2 */
SLOOP[ ]	/* SetLoopVariable */
IP[ ]	/* InterpolatePts */
SRP1[ ]	/* SetRefPoint1 */
SRP2[ ]	/* SetRefPoint2 */
IP[ ]	/* InterpolatePts */
SRP1[ ]	/* SetRefPoint1 */
SRP2[ ]	/* SetRefPoint2 */
SLOOP[ ]	/* SetLoopVariable */
IP[ ]	/* InterpolatePts */
SVTCA[0]	/* SetFreedomAndProjectionVectorToAxis */
MIAP[1]	/* MoveIndirectAbsPt */
MIRP[01101]	/* MoveIndirectRelPt */
SLOOP[ ]	/* SetLoopVariable */
IP[ ]	/* InterpolatePts */
SRP0[ ]	/* SetRefPoint0 */
MIRP[01101]	/* MoveIndirectRelPt */
SRP0[ ]	/* SetRefPoint0 */
MIRP[01101]	/* MoveIndirectRelPt */
SRP0[ ]	/* SetRefPoint0 */
MIRP[10100]	/* MoveIndirectRelPt */
MIRP[01101]	/* MoveIndirectRelPt */
IP[ ]	/* InterpolatePts */
MDAP[1]	/* MoveDirectAbsPt */
MIRP[01101]	/* MoveIndirectRelPt */
SLOOP[ ]	/* SetLoopVariable */
IP[ ]	/* InterpolatePts */
MDAP[1]	/* MoveDirectAbsPt */
MIRP[01101]	/* MoveIndirectRelPt */
IP[ ]	/* InterpolatePts */
IP[ ]	/* InterpolatePts */
MDAP[1]	/* MoveDirectAbsPt */
MIRP[01101]	/* MoveIndirectRelPt */
MDAP[1]	/* MoveDirectAbsPt */
MIRP[01101]	/* MoveIndirectRelPt */
MDAP[1]	/* MoveDirectAbsPt */
MIRP[11101]	/* MoveIndirectRelPt */
SRP1[ ]	/* SetRefPoint1 */
IP[ ]	/* InterpolatePts */
SRP1[ ]	/* SetRefPoint1 */
SRP2[ ]	/* SetRefPoint2 */
SLOOP[ ]	/* SetLoopVariable */
IP[ ]	/* InterpolatePts */
IUP[1]	/* InterpolateUntPts */
IUP[0]	/* InterpolateUntPts */";
};
width = 2208;
}
);
note = uni0039;
unicode = 57;
}
{
glyphname = colon;
layers = (
{
layerId = m01;
shapes = (
{
closed = 1;
nodes = (
(1201,383,l),
(1201,432,ls),
(1201,458,o),
(1175,481,o),
(1148,481,cs),
(957,481,l),
(957,566,l),
(1463,566,ls),
(1501,566,o),
(1534,597,o),
(1534,637,cs),
(1534,1409,ls),
(1534,1447,o),
(1501,1480,o),
(1463,1480,cs),
(303,1480,ls),
(263,1480,o),
(231,1447,o),
(231,1409,cs),
(231,637,ls),
(231,597,o),
(263,566,o),
(303,566,cs),
(807,566,l),
(807,481,l),
(618,481,ls),
(587,481,o),
(565,458,o),
(565,432,cs),
(565,383,l)
);
},
{
closed = 1;
nodes = (
(422,83,o),
(410,94,o),
(410,108,cs),
(410,121,o),
(422,132,o),
(434,132,cs),
(1349,132,ls),
(1361,132,o),
(1371,121,o),
(1371,108,cs),
(1371,94,o),
(1361,83,o),
(1349,83,cs),
(434,83,ls)
);
},
{
closed = 1;
nodes = (
(1439,0,ls),
(1451,0,o),
(1458,7,o),
(1458,19,cs),
(1458,24,l),
(1403,295,l),
(1399,309,o),
(1387,321,o),
(1373,321,cs),
(403,321,ls),
(389,321,o),
(377,309,o),
(374,295,cs),
(318,24,l),
(316,19,l),
(316,7,o),
(325,0,o),
(336,0,cs)
);
},
{
closed = 1;
nodes = (
(445,201,o),
(433,212,o),
(433,226,cs),
(433,239,o),
(445,250,o),
(457,250,cs),
(1324,250,ls),
(1338,250,o),
(1349,239,o),
(1349,226,cs),
(1349,212,o),
(1338,201,o),
(1324,201,cs),
(457,201,ls)
);
},
{
closed = 1;
nodes = (
(1805,14,o),
(1835,52,o),
(1835,94,cs),
(1835,116,o),
(1826,141,o),
(1810,161,cs),
(1772,212,o),
(1698,239,o),
(1633,239,cs),
(1611,239,o),
(1586,231,o),
(1569,217,c),
(1545,222,o),
(1521,232,o),
(1521,257,cs),
(1521,276,o),
(1540,309,o),
(1540,342,cs),
(1540,371,o),
(1522,437,o),
(1387,437,cs),
(1368,437,o),
(1352,435,o),
(1352,415,cs),
(1352,403,o),
(1363,394,o),
(1375,394,cs),
(1449,394,o),
(1493,377,o),
(1493,342,cs),
(1493,321,o),
(1477,291,o),
(1477,259,cs),
(1477,212,o),
(1510,187,o),
(1545,175,c),
(1545,172,o),
(1545,168,o),
(1545,163,cs),
(1545,116,o),
(1599,68,o),
(1637,45,cs),
(1666,28,o),
(1703,14,o),
(1737,14,cs)
);
},
{
closed = 1;
nodes = (
(349,751,o),
(325,777,o),
(325,807,cs),
(325,1320,ls),
(325,1352,o),
(349,1376,o),
(379,1376,cs),
(1385,1376,ls),
(1415,1376,o),
(1439,1352,o),
(1439,1320,cs),
(1439,807,ls),
(1439,777,o),
(1415,751,o),
(1385,751,cs),
(379,751,ls)
);
}
);
userData = {
assembly = "NPUSHB[ ]	/* 74 values pushed */
60 45 87 67 71 75 79 4 83 23 41 104 104 32 104 113 48 104 91 53 104 52 104 56 104 87 104 44 104 50 244 91 51 104 81 47 244 45 104 91 54 58 63 95 99 5 91 244 46 88 244 81 84 104 83 46 104 81 83 104 89 64 69 73 77 92 96 6 89 244 81 16 104 2
PUSHW[ ]	/* 1 value pushed */
498
PUSHB[ ]	/* 4 values pushed */
3 19 104 13
PUSHW[ ]	/* 1 value pushed */
453
NPUSHB[ ]	/* 21 values pushed */
9 15 104 3 23 104 81 113 104 3 3 128 9 0 36 116 109 29 116 100 109
PUSHW[ ]	/* 4 values pushed */
575 17 100 575
NPUSHB[ ]	/* 16 values pushed */
16 62 66 36 51 75 89 50 78 88 47 79 82 87 100 83
PUSHW[ ]	/* 1 value pushed */
306
PUSHB[ ]	/* 7 values pushed */
46 82 189 88 144 85 66
PUSHW[ ]	/* 1 value pushed */
306
NPUSHB[ ]	/* 11 values pushed */
97 144 59 67 189 64 19 13 16 116 2
PUSHW[ ]	/* 1 value pushed */
515
NPUSHB[ ]	/* 14 values pushed */
18 4 17 116 1 36 116 109 29 116 100 92 144 89
PUSHW[ ]	/* 1 value pushed */
456
PUSHB[ ]	/* 5 values pushed */
70 58 70 144 71
PUSHW[ ]	/* 1 value pushed */
323
PUSHB[ ]	/* 4 values pushed */
75 78 144 79
PUSHW[ ]	/* 1 value pushed */
456
NPUSHB[ ]	/* 9 values pushed */
96 23 116 9 55 54 93 144 96
PUSHW[ ]	/* 1 value pushed */
425
NPUSHB[ ]	/* 9 values pushed */
75 24 116 8 64 109 1 3 8
PUSHW[ ]	/* 1 value pushed */
367
PUSHB[ ]	/* 6 values pushed */
74 144 75 85 100 75
PUSHW[ ]	/* 2 values pushed */
367 9
MDAP[1]	/* MoveDirectAbsPt */
MIRP[00100]	/* MoveIndirectRelPt */
IP[ ]	/* InterpolatePts */
IP[ ]	/* InterpolatePts */
SRP0[ ]	/* SetRefPoint0 */
MIRP[11101]	/* MoveIndirectRelPt */
MIRP[00100]	/* MoveIndirectRelPt */
SLOOP[ ]	/* SetLoopVariable */
IP[ ]	/* InterpolatePts */
SRP0[ ]	/* SetRefPoint0 */
MIRP[01101]	/* MoveIndirectRelPt */
SRP0[ ]	/* SetRefPoint0 */
MIRP[11101]	/* MoveIndirectRelPt */
MIRP[01101]	/* MoveIndirectRelPt */
IP[ ]	/* InterpolatePts */
IP[ ]	/* InterpolatePts */
SRP0[ ]	/* SetRefPoint0 */
MIRP[01101]	/* MoveIndirectRelPt */
SRP0[ ]	/* SetRefPoint0 */
MIRP[11101]	/* MoveIndirectRelPt */
MIRP[01101]	/* MoveIndirectRelPt */
SRP0[ ]	/* SetRefPoint0 */
MIRP[10100]	/* MoveIndirectRelPt */
MIRP[01101]	/* MoveIndirectRelPt */
IP[ ]	/* InterpolatePts */
SRP0[ ]	/* SetRefPoint0 */
MIRP[11101]	/* MoveIndirectRelPt */
MIRP[01101]	/* MoveIndirectRelPt */
SRP0[ ]	/* SetRefPoint0 */
MIRP[01101]	/* MoveIndirectRelPt */
SRP0[ ]	/* SetRefPoint0 */
MIRP[01101]	/* MoveIndirectRelPt */
MDAP[1]	/* MoveDirectAbsPt */
MIRP[01101]	/* MoveIndirectRelPt */
IP[ ]	/* InterpolatePts */
IP[ ]	/* InterpolatePts */
MIRP[11110]	/* MoveIndirectRelPt */
MIRP[01101]	/* MoveIndirectRelPt */
IP[ ]	/* InterpolatePts */
IP[ ]	/* InterpolatePts */
MDAP[1]	/* MoveDirectAbsPt */
MIRP[00101]	/* MoveIndirectRelPt */
IP[ ]	/* InterpolatePts */
MIRP[01101]	/* MoveIndirectRelPt */
MIRP[00100]	/* MoveIndirectRelPt */
MDAP[1]	/* MoveDirectAbsPt */
MIRP[01101]	/* MoveIndirectRelPt */
MIRP[00101]	/* MoveIndirectRelPt */
IP[ ]	/* InterpolatePts */
MIRP[00100]	/* MoveIndirectRelPt */
SRP1[ ]	/* SetRefPoint1 */
IP[ ]	/* InterpolatePts */
SRP1[ ]	/* SetRefPoint1 */
SRP2[ ]	/* SetRefPoint2 */
IP[ ]	/* InterpolatePts */
SRP1[ ]	/* SetRefPoint1 */
SRP2[ ]	/* SetRefPoint2 */
IP[ ]	/* InterpolatePts */
SRP1[ ]	/* SetRefPoint1 */
SRP2[ ]	/* SetRefPoint2 */
IP[ ]	/* InterpolatePts */
SRP1[ ]	/* SetRefPoint1 */
SRP2[ ]	/* SetRefPoint2 */
IP[ ]	/* InterpolatePts */
SRP0[ ]	/* SetRefPoint0 */
MIRP[00110]	/* MoveIndirectRelPt */
SRP0[ ]	/* SetRefPoint0 */
MIRP[00110]	/* MoveIndirectRelPt */
SRP0[ ]	/* SetRefPoint0 */
MIRP[01101]	/* MoveIndirectRelPt */
SRP0[ ]	/* SetRefPoint0 */
MIRP[01101]	/* MoveIndirectRelPt */
SVTCA[0]	/* SetFreedomAndProjectionVectorToAxis */
MIAP[1]	/* MoveIndirectAbsPt */
MIRP[01101]	/* MoveIndirectRelPt */
SLOOP[ ]	/* SetLoopVariable */
IP[ ]	/* InterpolatePts */
MIRP[01101]	/* MoveIndirectRelPt */
SRP0[ ]	/* SetRefPoint0 */
MIRP[01101]	/* MoveIndirectRelPt */
SRP0[ ]	/* SetRefPoint0 */
MIRP[11101]	/* MoveIndirectRelPt */
MIRP[01101]	/* MoveIndirectRelPt */
SRP0[ ]	/* SetRefPoint0 */
MIRP[11110]	/* MoveIndirectRelPt */
MIRP[01101]	/* MoveIndirectRelPt */
MDAP[1]	/* MoveDirectAbsPt */
MIRP[00101]	/* MoveIndirectRelPt */
SLOOP[ ]	/* SetLoopVariable */
IP[ ]	/* InterpolatePts */
SRP0[ ]	/* SetRefPoint0 */
MIRP[01101]	/* MoveIndirectRelPt */
SRP0[ ]	/* SetRefPoint0 */
MIRP[01101]	/* MoveIndirectRelPt */
SRP0[ ]	/* SetRefPoint0 */
MIRP[01101]	/* MoveIndirectRelPt */
SRP0[ ]	/* SetRefPoint0 */
MIRP[00101]	/* MoveIndirectRelPt */
SRP0[ ]	/* SetRefPoint0 */
MIRP[00101]	/* MoveIndirectRelPt */
SLOOP[ ]	/* SetLoopVariable */
IP[ ]	/* InterpolatePts */
SRP0[ ]	/* SetRefPoint0 */
MIRP[01101]	/* MoveIndirectRelPt */
MIRP[00101]	/* MoveIndirectRelPt */
SRP0[ ]	/* SetRefPoint0 */
MIRP[01101]	/* MoveIndirectRelPt */
SRP0[ ]	/* SetRefPoint0 */
MIRP[00101]	/* MoveIndirectRelPt */
MIRP[11101]	/* MoveIndirectRelPt */
MIRP[11101]	/* MoveIndirectRelPt */
MIRP[01101]	/* MoveIndirectRelPt */
MIRP[01101]	/* MoveIndirectRelPt */
MIRP[01101]	/* MoveIndirectRelPt */
SRP0[ ]	/* SetRefPoint0 */
MIRP[01101]	/* MoveIndirectRelPt */
MDAP[1]	/* MoveDirectAbsPt */
MIRP[01101]	/* MoveIndirectRelPt */
MDAP[1]	/* MoveDirectAbsPt */
MIRP[01101]	/* MoveIndirectRelPt */
SRP1[ ]	/* SetRefPoint1 */
SRP2[ ]	/* SetRefPoint2 */
SLOOP[ ]	/* SetLoopVariable */
IP[ ]	/* InterpolatePts */
SRP1[ ]	/* SetRefPoint1 */
SRP2[ ]	/* SetRefPoint2 */
IP[ ]	/* InterpolatePts */
IUP[1]	/* InterpolateUntPts */
IUP[0]	/* InterpolateUntPts */";
};
width = 1924;
}
);
note = uni003A;
unicode = 58;
}
{
glyphname = semicolon;
layers = (
{
layerId = m01;
shapes = (
{
closed = 1;
nodes = (
(1663,0,l),
(1663,714,l),
(162,714,l),
(162,0,l)
);
},
{
closed = 1;
nodes = (
(538,131,l),
(538,194,l),
(447,194,l),
(447,131,l)
);
},
{
closed = 1;
nodes = (
(1438,261,l),
(1438,324,l),
(396,324,l),
(396,261,l)
);
},
{
closed = 1;
nodes = (
(234,643,l),
(1591,643,l),
(1591,71,l),
(234,71,l)
);
},
{
closed = 1;
nodes = (
(1438,391,l),
(1438,454,l),
(396,454,l),
(396,391,l)
);
}
);
userData = {
assembly = "NPUSHB[ ]	/* 20 values pushed */
41 104 40 37 104 36 33 104 32 16 104 13 25 104 4 40 32 37 3 4
PUSHW[ ]	/* 1 value pushed */
478
NPUSHB[ ]	/* 11 values pushed */
13 0 36 39 35 43 36 29 43 143 40
PUSHW[ ]	/* 1 value pushed */
587
NPUSHB[ ]	/* 9 values pushed */
35 29 116 0 20 116 9 216 35
PUSHW[ ]	/* 1 value pushed */
281
PUSHB[ ]	/* 3 values pushed */
32 216 0
MDAP[1]	/* MoveDirectAbsPt */
MIRP[10100]	/* MoveIndirectRelPt */
MIRP[11101]	/* MoveIndirectRelPt */
MIRP[10100]	/* MoveIndirectRelPt */
MIRP[01101]	/* MoveIndirectRelPt */
SRP0[ ]	/* SetRefPoint0 */
MIRP[01101]	/* MoveIndirectRelPt */
SRP0[ ]	/* SetRefPoint0 */
MIRP[11101]	/* MoveIndirectRelPt */
MIRP[01101]	/* MoveIndirectRelPt */
SRP2[ ]	/* SetRefPoint2 */
IP[ ]	/* InterpolatePts */
SRP1[ ]	/* SetRefPoint1 */
SRP2[ ]	/* SetRefPoint2 */
IP[ ]	/* InterpolatePts */
MDAP[1]	/* MoveDirectAbsPt */
SVTCA[0]	/* SetFreedomAndProjectionVectorToAxis */
MIAP[1]	/* MoveIndirectAbsPt */
MIRP[01101]	/* MoveIndirectRelPt */
SLOOP[ ]	/* SetLoopVariable */
IP[ ]	/* InterpolatePts */
SRP0[ ]	/* SetRefPoint0 */
MIRP[01101]	/* MoveIndirectRelPt */
SRP0[ ]	/* SetRefPoint0 */
MIRP[01101]	/* MoveIndirectRelPt */
MDAP[1]	/* MoveDirectAbsPt */
MIRP[01101]	/* MoveIndirectRelPt */
MDAP[1]	/* MoveDirectAbsPt */
MIRP[01101]	/* MoveIndirectRelPt */
MDAP[1]	/* MoveDirectAbsPt */
MIRP[01101]	/* MoveIndirectRelPt */
IUP[1]	/* InterpolateUntPts */
IUP[0]	/* InterpolateUntPts */";
};
width = 1825;
}
);
note = uni003B;
unicode = 59;
}
{
glyphname = less;
layers = (
{
layerId = m01;
shapes = (
{
closed = 1;
nodes = (
(1527,0,ls),
(1600,0,o),
(1654,51,o),
(1654,122,cs),
(1654,1355,ls),
(1654,1428,o),
(1600,1480,o),
(1527,1480,cs),
(296,1480,ls),
(223,1480,o),
(172,1428,o),
(172,1355,cs),
(172,235,l),
(407,0,l),
(407,0,l)
);
},
{
closed = 1;
nodes = (
(767,433,l),
(917,433,l),
(917,75,l),
(767,75,l),
(767,75,l)
);
},
{
closed = 1;
nodes = (
(249,267,l),
(249,1355,ls),
(249,1385,o),
(265,1403,o),
(296,1403,cs),
(443,1403,l),
(443,772,l),
(1372,772,l),
(1372,1403,l),
(1527,1403,ls),
(1559,1403,o),
(1575,1385,o),
(1575,1355,cs),
(1575,122,ls),
(1575,93,o),
(1559,75,o),
(1527,75,cs),
(1320,75,l),
(1320,454,ls),
(1320,484,o),
(1302,502,o),
(1272,502,cs),
(725,502,ls),
(694,502,o),
(678,484,o),
(678,454,cs),
(678,75,l),
(441,75,l),
(441,75,l)
);
},
{
closed = 1;
nodes = (
(1071,1025,l),
(1071,1073,l),
(646,1073,l),
(646,1025,l),
(646,1025,l)
);
},
{
closed = 1;
nodes = (
(972,1124,l),
(972,1174,l),
(646,1174,l),
(646,1124,l),
(646,1124,l)
);
},
{
closed = 1;
nodes = (
(520,1403,l),
(1296,1403,l),
(1296,850,l),
(520,850,l),
(520,850,l)
);
},
{
closed = 1;
nodes = (
(1112,1225,l),
(1112,1272,l),
(646,1272,l),
(646,1225,l),
(646,1225,l)
);
}
);
userData = {
assembly = "NPUSHB[ ]	/* 37 values pushed */
39 0 40 15 104 44 54 104 31 104 53 49 26 36 104 4 18 16 40 104 53 15 4 128 13 0 40 13 34 39 16 116 41 56 116 27 17
PUSHW[ ]	/* 1 value pushed */
343
NPUSHB[ ]	/* 18 values pushed */
18 50 116 34 39 116 0 22 116 9 34 41 18 27 4 9 162 0
MDAP[1]	/* MoveDirectAbsPt */
MIRP[01101]	/* MoveIndirectRelPt */
SLOOP[ ]	/* SetLoopVariable */
IP[ ]	/* InterpolatePts */
SRP0[ ]	/* SetRefPoint0 */
MIRP[01101]	/* MoveIndirectRelPt */
SRP0[ ]	/* SetRefPoint0 */
MIRP[01101]	/* MoveIndirectRelPt */
MDAP[1]	/* MoveDirectAbsPt */
MIRP[01101]	/* MoveIndirectRelPt */
MDAP[1]	/* MoveDirectAbsPt */
MIRP[01101]	/* MoveIndirectRelPt */
MDAP[1]	/* MoveDirectAbsPt */
MIRP[01101]	/* MoveIndirectRelPt */
MDAP[1]	/* MoveDirectAbsPt */
MIRP[01101]	/* MoveIndirectRelPt */
SRP1[ ]	/* SetRefPoint1 */
SRP2[ ]	/* SetRefPoint2 */
IP[ ]	/* InterpolatePts */
IP[ ]	/* InterpolatePts */
SVTCA[0]	/* SetFreedomAndProjectionVectorToAxis */
MIAP[1]	/* MoveIndirectAbsPt */
MIRP[01101]	/* MoveIndirectRelPt */
IP[ ]	/* InterpolatePts */
IP[ ]	/* InterpolatePts */
MIRP[01101]	/* MoveIndirectRelPt */
IP[ ]	/* InterpolatePts */
IP[ ]	/* InterpolatePts */
SRP0[ ]	/* SetRefPoint0 */
MIRP[01101]	/* MoveIndirectRelPt */
IP[ ]	/* InterpolatePts */
IP[ ]	/* InterpolatePts */
MDAP[1]	/* MoveDirectAbsPt */
MIRP[11101]	/* MoveIndirectRelPt */
MIRP[01101]	/* MoveIndirectRelPt */
MDAP[1]	/* MoveDirectAbsPt */
MIRP[01101]	/* MoveIndirectRelPt */
SRP1[ ]	/* SetRefPoint1 */
IP[ ]	/* InterpolatePts */
IP[ ]	/* InterpolatePts */
IUP[1]	/* InterpolateUntPts */
IUP[0]	/* InterpolateUntPts */";
};
width = 1826;
}
);
note = uni003C;
unicode = 60;
}
{
glyphname = equal;
layers = (
{
layerId = m01;
shapes = (
{
closed = 1;
nodes = (
(1652,0,l),
(1652,1077,l),
(1555,1077,l),
(1555,1195,l),
(1652,1195,l),
(1652,1480,l),
(174,1480,l),
(174,0,l),
(174,0,l)
);
},
{
closed = 1;
nodes = (
(872,99,o),
(852,119,o),
(852,152,cs),
(852,383,ls),
(852,417,o),
(872,437,o),
(905,437,cs),
(919,437,ls),
(953,437,o),
(972,417,o),
(972,383,cs),
(972,152,ls),
(972,119,o),
(953,99,o),
(919,99,cs),
(905,99,l),
(905,99,l)
);
},
{
closed = 1;
nodes = (
(787,514,o),
(686,615,o),
(686,741,cs),
(686,865,o),
(787,966,o),
(913,966,cs),
(1037,966,o),
(1140,865,o),
(1140,741,cs),
(1140,615,o),
(1037,514,o),
(913,514,cs)
);
},
{
closed = 1;
nodes = (
(253,1401,l),
(1310,1401,l),
(1310,1077,l),
(253,1077,l),
(253,1077,l)
);
}
);
userData = {
assembly = "NPUSHB[ ]	/* 10 values pushed */
21 130 27 32 130 10 7 15 130 2
PUSHW[ ]	/* 1 value pushed */
502
PUSHB[ ]	/* 4 values pushed */
10 1 130 6
PUSHW[ ]	/* 1 value pushed */
330
NPUSHB[ ]	/* 11 values pushed */
11 27 11 163 10 0 5 9 12 203 3
PUSHW[ ]	/* 4 values pushed */
328 7 30 363
PUSHB[ ]	/* 6 values pushed */
18 205 2 143 10 24
PUSHW[ ]	/* 1 value pushed */
363
PUSHB[ ]	/* 5 values pushed */
9 7 9 238 10
MDAP[1]	/* MoveDirectAbsPt */
MIRP[01110]	/* MoveIndirectRelPt */
IP[ ]	/* InterpolatePts */
SRP0[ ]	/* SetRefPoint0 */
MIRP[01101]	/* MoveIndirectRelPt */
SRP0[ ]	/* SetRefPoint0 */
MIRP[01101]	/* MoveIndirectRelPt */
MIRP[01101]	/* MoveIndirectRelPt */
MIRP[01101]	/* MoveIndirectRelPt */
MDAP[1]	/* MoveDirectAbsPt */
MIRP[01101]	/* MoveIndirectRelPt */
MIRP[01101]	/* MoveIndirectRelPt */
SRP2[ ]	/* SetRefPoint2 */
IP[ ]	/* InterpolatePts */
SVTCA[0]	/* SetFreedomAndProjectionVectorToAxis */
MIAP[1]	/* MoveIndirectAbsPt */
MIRP[01110]	/* MoveIndirectRelPt */
IP[ ]	/* InterpolatePts */
SRP0[ ]	/* SetRefPoint0 */
MIRP[01101]	/* MoveIndirectRelPt */
MIRP[01101]	/* MoveIndirectRelPt */
SRP0[ ]	/* SetRefPoint0 */
MIRP[11101]	/* MoveIndirectRelPt */
MIRP[01101]	/* MoveIndirectRelPt */
IP[ ]	/* InterpolatePts */
SRP0[ ]	/* SetRefPoint0 */
MIRP[01101]	/* MoveIndirectRelPt */
MDAP[1]	/* MoveDirectAbsPt */
MIRP[01101]	/* MoveIndirectRelPt */
IUP[1]	/* InterpolateUntPts */
IUP[0]	/* InterpolateUntPts */";
};
width = 1826;
}
);
note = uni003D;
unicode = 61;
}
{
glyphname = greater;
layers = (
{
layerId = m01;
shapes = (
{
closed = 1;
nodes = (
(1321,0,o),
(1652,333,o),
(1652,740,cs),
(1652,1147,o),
(1321,1480,o),
(912,1480,cs),
(504,1480,o),
(172,1147,o),
(172,740,cs),
(172,333,o),
(504,0,o),
(912,0,cs)
);
},
{
closed = 1;
nodes = (
(543,71,o),
(243,371,o),
(243,740,cs),
(243,1109,o),
(543,1409,o),
(912,1409,cs),
(1281,1409,o),
(1580,1109,o),
(1580,740,cs),
(1580,371,o),
(1281,71,o),
(912,71,cs)
);
},
{
closed = 1;
nodes = (
(738,547,l),
(658,686,l),
(407,530,l),
(478,408,l)
);
},
{
closed = 1;
nodes = (
(1007,567,o),
(1084,645,o),
(1084,740,cs),
(1084,835,o),
(1007,913,o),
(912,913,cs),
(816,913,o),
(739,835,o),
(739,740,cs),
(739,645,o),
(816,567,o),
(912,567,cs)
);
},
{
closed = 1;
nodes = (
(842,615,o),
(787,671,o),
(787,740,cs),
(787,809,o),
(842,865,o),
(912,865,cs),
(981,865,o),
(1036,809,o),
(1036,740,cs),
(1036,671,o),
(981,615,o),
(912,615,cs)
);
},
{
closed = 1;
nodes = (
(1417,530,l),
(1166,686,l),
(1086,547,l),
(1346,408,l)
);
},
{
closed = 1;
nodes = (
(992,987,l),
(982,1282,l),
(841,1282,l),
(832,987,l)
);
}
);
userData = {
assembly = "NPUSHB[ ]	/* 14 values pushed */
40 41 42 43 44 45 46 47 8 28 159 0 1 0
PUSHW[ ]	/* 1 value pushed */
330
NPUSHB[ ]	/* 9 values pushed */
1 28 104 16 34 104 22 1 22
PUSHW[ ]	/* 5 values pushed */
354 10 330 4 354
NPUSHB[ ]	/* 16 values pushed */
16 0 44 45 46 47 4 31 13 40 41 42 43 4 37 13
PUSHW[ ]	/* 1 value pushed */
328
PUSHB[ ]	/* 7 values pushed */
7 37 116 19 31 116 25
PUSHW[ ]	/* 3 values pushed */
359 3 564
PUSHB[ ]	/* 3 values pushed */
0 7 0
PUSHW[ ]	/* 2 values pushed */
359 19
MDAP[1]	/* MoveDirectAbsPt */
MIRP[00100]	/* MoveIndirectRelPt */
IP[ ]	/* InterpolatePts */
SRP0[ ]	/* SetRefPoint0 */
MIRP[11101]	/* MoveIndirectRelPt */
MIRP[10100]	/* MoveIndirectRelPt */
MIRP[01101]	/* MoveIndirectRelPt */
SRP0[ ]	/* SetRefPoint0 */
MIRP[01101]	/* MoveIndirectRelPt */
MDAP[1]	/* MoveDirectAbsPt */
MIRP[01101]	/* MoveIndirectRelPt */
SRP2[ ]	/* SetRefPoint2 */
SLOOP[ ]	/* SetLoopVariable */
IP[ ]	/* InterpolatePts */
SRP1[ ]	/* SetRefPoint1 */
SRP2[ ]	/* SetRefPoint2 */
SLOOP[ ]	/* SetLoopVariable */
IP[ ]	/* InterpolatePts */
SVTCA[0]	/* SetFreedomAndProjectionVectorToAxis */
MIAP[1]	/* MoveIndirectAbsPt */
MIRP[10100]	/* MoveIndirectRelPt */
MIRP[11101]	/* MoveIndirectRelPt */
MIRP[00100]	/* MoveIndirectRelPt */
IP[ ]	/* InterpolatePts */
SRP0[ ]	/* SetRefPoint0 */
MIRP[01101]	/* MoveIndirectRelPt */
SRP0[ ]	/* SetRefPoint0 */
MIRP[01101]	/* MoveIndirectRelPt */
MDAP[1]	/* MoveDirectAbsPt */
MIRP[01101]	/* MoveIndirectRelPt */
DELTAP1[ ]	/* DeltaExceptionP1 */
SRP1[ ]	/* SetRefPoint1 */
SLOOP[ ]	/* SetLoopVariable */
IP[ ]	/* InterpolatePts */
IUP[1]	/* InterpolateUntPts */
IUP[0]	/* InterpolateUntPts */";
};
width = 1825;
}
);
note = uni003E;
unicode = 62;
}
{
glyphname = question;
layers = (
{
layerId = m01;
shapes = (
{
closed = 1;
nodes = (
(1285,90,o),
(1337,105,o),
(1396,143,cs),
(1417,157,o),
(1455,172,o),
(1483,169,c),
(1540,210,o),
(1568,296,o),
(1568,427,cs),
(1568,545,o),
(1539,644,o),
(1493,688,c),
(1440,683,o),
(1358,709,o),
(1191,811,cs),
(1029,909,o),
(900,990,o),
(809,990,cs),
(710,990,o),
(369,739,o),
(351,688,cs),
(310,571,o),
(245,459,o),
(214,407,cs),
(178,345,o),
(164,313,o),
(164,292,cs),
(164,290,ls),
(164,242,o),
(211,201,o),
(267,201,cs),
(322,201,o),
(381,237,o),
(416,292,cs),
(460,360,o),
(513,462,o),
(547,522,c),
(507,522,l),
(474,455,o),
(422,357,o),
(371,299,cs),
(343,269,o),
(304,255,o),
(267,255,cs),
(242,255,o),
(219,273,o),
(219,290,cs),
(219,301,o),
(231,325,o),
(264,384,cs),
(292,431,o),
(358,548,o),
(402,668,cs),
(416,706,o),
(729,935,o),
(807,935,cs),
(874,935,o),
(1005,853,o),
(1164,763,cs),
(1261,709,o),
(1384,641,o),
(1467,633,c),
(1496,592,o),
(1513,518,o),
(1513,427,cs),
(1513,325,o),
(1496,257,o),
(1463,223,c),
(1430,216,o),
(1393,204,o),
(1367,188,cs),
(1316,158,o),
(1275,144,o),
(1223,144,cs),
(1153,144,o),
(1024,147,o),
(970,161,cs),
(935,170,o),
(912,176,o),
(886,176,cs),
(806,176,o),
(710,149,o),
(627,149,cs),
(572,149,o),
(528,179,o),
(439,202,cs),
(421,207,o),
(418,217,o),
(418,232,cs),
(418,234,ls),
(418,286,o),
(474,334,o),
(557,334,cs),
(595,334,o),
(654,325,o),
(697,325,cs),
(815,325,o),
(894,363,o),
(967,451,c),
(933,492,l),
(862,410,o),
(800,380,o),
(697,380,cs),
(675,380,o),
(594,387,o),
(580,387,cs),
(454,387,o),
(363,323,o),
(363,234,cs),
(363,191,o),
(389,161,o),
(418,152,cs),
(509,123,o),
(556,94,o),
(625,94,cs),
(716,94,o),
(812,122,o),
(886,122,cs),
(906,122,o),
(926,119,o),
(956,110,cs),
(1015,91,o),
(1150,90,o),
(1223,90,cs)
);
},
{
closed = 1;
nodes = (
(154,40,l),
(208,185,l),
(239,172,o),
(279,128,o),
(289,105,c),
(161,32,l)
);
},
{
closed = 1;
nodes = (
(311,84,l),
(402,187,l),
(364,266,o),
(427,349,o),
(589,357,c),
(1167,927,l),
(1203,962,o),
(1207,977,o),
(1207,997,cs),
(1207,1058,o),
(1159,1093,o),
(1119,1093,cs),
(1100,1093,o),
(1082,1085,o),
(1041,1046,c),
(507,522,l),
(513,506,l),
(381,237,o),
(355,234,o),
(216,234,c),
(179,198,l),
(105,-19,l),
(113,-27,l)
);
},
{
closed = 1;
nodes = (
(829,363,o),
(830,448,o),
(830,527,cs),
(830,563,o),
(827,609,o),
(824,647,c),
(779,618,l),
(782,592,o),
(785,565,o),
(785,528,cs),
(785,440,o),
(768,380,o),
(726,380,c),
(724,363,l)
);
},
{
closed = 1;
nodes = (
(1633,117,ls),
(1722,117,o),
(1759,260,o),
(1759,427,cs),
(1759,597,o),
(1722,739,o),
(1633,739,cs),
(1519,739,ls),
(1496,739,o),
(1489,726,o),
(1489,709,cs),
(1489,698,l),
(1495,709,o),
(1501,713,o),
(1511,713,cs),
(1566,713,o),
(1619,610,o),
(1619,427,cs),
(1619,246,o),
(1566,143,o),
(1511,143,cs),
(1501,143,o),
(1495,147,o),
(1489,158,c),
(1489,147,ls),
(1489,131,o),
(1496,117,o),
(1519,117,cs)
);
}
);
userData = {
assembly = "NPUSHB[ ]	/* 76 values pushed */
25 26 27 28 33 34 38 50 51 70 71 72 73 74 78 81 83 84 88 90 92 93 96 23 29 76 16 19 20 55 63 5 57 61 1 17 42 65 106 107 6 101 5 109 104 104 3 7 9 18 4 109 104 11 14 69 98 99 4 61 104 101 22 24 45 53 94 5 76 130 57 11 101 57 3 29
PUSHW[ ]	/* 1 value pushed */
380
NPUSHB[ ]	/* 70 values pushed */
0 0 53 59 33 29 31 40 0 1 3 27 28 34 42 50 51 53 65 69 70 71 14 44 52 5 9 14 16 17 19 20 22 24 25 26 55 59 63 72 73 74 78 81 83 84 88 90 92 94 98 99 101 106 107 30 18 96 116 93 97 116 52 38 44 116 40 40 52 31
PUSHW[ ]	/* 2 values pushed */
534 18
MDAP[1]	/* MoveDirectAbsPt */
MIRP[01101]	/* MoveIndirectRelPt */
IP[ ]	/* InterpolatePts */
IP[ ]	/* InterpolatePts */
MDAP[1]	/* MoveDirectAbsPt */
MIRP[01101]	/* MoveIndirectRelPt */
IP[ ]	/* InterpolatePts */
MDAP[1]	/* MoveDirectAbsPt */
MIRP[01101]	/* MoveIndirectRelPt */
IP[ ]	/* InterpolatePts */
MIRP[01101]	/* MoveIndirectRelPt */
SRP1[ ]	/* SetRefPoint1 */
SLOOP[ ]	/* SetLoopVariable */
IP[ ]	/* InterpolatePts */
SRP1[ ]	/* SetRefPoint1 */
SRP2[ ]	/* SetRefPoint2 */
SLOOP[ ]	/* SetLoopVariable */
IP[ ]	/* InterpolatePts */
SRP1[ ]	/* SetRefPoint1 */
SRP2[ ]	/* SetRefPoint2 */
IP[ ]	/* InterpolatePts */
IP[ ]	/* InterpolatePts */
MDAP[1]	/* MoveDirectAbsPt */
MDAP[1]	/* MoveDirectAbsPt */
SVTCA[0]	/* SetFreedomAndProjectionVectorToAxis */
MIAP[1]	/* MoveIndirectAbsPt */
MIRP[01101]	/* MoveIndirectRelPt */
SLOOP[ ]	/* SetLoopVariable */
IP[ ]	/* InterpolatePts */
MDAP[1]	/* MoveDirectAbsPt */
MIRP[01101]	/* MoveIndirectRelPt */
SLOOP[ ]	/* SetLoopVariable */
IP[ ]	/* InterpolatePts */
MDAP[1]	/* MoveDirectAbsPt */
MIRP[01101]	/* MoveIndirectRelPt */
SLOOP[ ]	/* SetLoopVariable */
IP[ ]	/* InterpolatePts */
SRP0[ ]	/* SetRefPoint0 */
MIRP[01101]	/* MoveIndirectRelPt */
SLOOP[ ]	/* SetLoopVariable */
IP[ ]	/* InterpolatePts */
MIRP[01101]	/* MoveIndirectRelPt */
SRP1[ ]	/* SetRefPoint1 */
IP[ ]	/* InterpolatePts */
SRP1[ ]	/* SetRefPoint1 */
SLOOP[ ]	/* SetLoopVariable */
IP[ ]	/* InterpolatePts */
SRP1[ ]	/* SetRefPoint1 */
SRP2[ ]	/* SetRefPoint2 */
SLOOP[ ]	/* SetLoopVariable */
IP[ ]	/* InterpolatePts */
SRP1[ ]	/* SetRefPoint1 */
SRP2[ ]	/* SetRefPoint2 */
SLOOP[ ]	/* SetLoopVariable */
IP[ ]	/* InterpolatePts */
IUP[1]	/* InterpolateUntPts */
IUP[0]	/* InterpolateUntPts */";
};
width = 1863;
}
);
note = uni003F;
unicode = 63;
}
{
glyphname = A;
layers = (
{
layerId = m01;
shapes = (
{
closed = 1;
nodes = (
(702,-21,o),
(830,13,o),
(888,64,c),
(885,70,o),
(882,120,o),
(882,149,cs),
(882,150,ls),
(882,209,o),
(891,231,o),
(955,311,cs),
(1030,404,o),
(1055,467,o),
(1055,562,cs),
(1055,667,o),
(1043,729,o),
(1022,761,cs),
(972,830,o),
(802,920,o),
(769,920,cs),
(741,920,o),
(712,915,o),
(674,915,cs),
(591,915,o),
(575,926,o),
(540,926,cs),
(509,926,o),
(476,898,o),
(476,850,cs),
(476,742,o),
(570,673,o),
(693,673,cs),
(706,673,o),
(718,675,o),
(732,678,c),
(741,649,o),
(775,608,o),
(803,593,c),
(827,640,l),
(797,665,o),
(759,711,o),
(759,747,c),
(738,729,o),
(712,726,o),
(692,726,cs),
(589,726,o),
(532,775,o),
(532,850,cs),
(532,852,ls),
(532,865,o),
(535,870,o),
(552,870,cs),
(575,870,o),
(610,860,o),
(677,860,cs),
(721,860,o),
(747,864,o),
(766,864,cs),
(806,864,o),
(961,753,o),
(976,728,cs),
(987,711,o),
(1000,658,o),
(1000,562,cs),
(1000,479,o),
(980,430,o),
(912,345,cs),
(841,257,o),
(828,220,o),
(828,149,cs),
(828,89,l),
(772,57,o),
(676,35,o),
(588,35,cs),
(482,35,o),
(403,54,o),
(353,89,c),
(353,196,l),
(227,305,o),
(185,391,o),
(185,548,cs),
(185,615,o),
(197,687,o),
(197,723,cs),
(197,759,o),
(229,786,o),
(254,786,cs),
(282,786,o),
(286,778,o),
(312,778,cs),
(375,778,o),
(385,830,o),
(394,861,c),
(402,895,o),
(414,904,o),
(446,904,cs),
(476,904,o),
(492,893,o),
(521,893,cs),
(532,893,o),
(544,914,o),
(544,948,cs),
(544,997,o),
(528,1071,o),
(493,1242,cs),
(476,1327,o),
(446,1452,o),
(446,1490,cs),
(446,1530,o),
(463,1549,o),
(499,1549,cs),
(529,1549,o),
(542,1530,o),
(549,1485,cs),
(577,1324,o),
(606,1265,o),
(619,1177,cs),
(628,1112,o),
(652,1005,o),
(662,948,cs),
(668,909,o),
(707,887,o),
(745,887,cs),
(767,887,o),
(783,909,o),
(792,936,cs),
(802,963,o),
(817,1041,o),
(848,1178,cs),
(863,1249,o),
(874,1361,o),
(882,1398,cs),
(896,1466,o),
(915,1485,o),
(938,1485,cs),
(972,1485,o),
(991,1463,o),
(991,1412,cs),
(991,1370,o),
(961,1224,o),
(955,1142,cs),
(951,1095,o),
(944,1032,o),
(944,988,cs),
(944,921,o),
(947,862,o),
(947,780,c),
(1005,740,l),
(1005,835,o),
(998,934,o),
(998,986,cs),
(998,1041,o),
(1001,1092,o),
(1008,1140,cs),
(1020,1236,o),
(1046,1361,o),
(1046,1414,cs),
(1046,1493,o),
(1003,1541,o),
(939,1541,cs),
(882,1541,o),
(846,1504,o),
(828,1412,cs),
(820,1373,o),
(806,1259,o),
(794,1191,cs),
(767,1050,o),
(748,974,o),
(740,951,c),
(738,946,o),
(737,945,o),
(729,945,cs),
(721,945,o),
(718,946,o),
(717,954,c),
(707,1014,o),
(685,1120,o),
(674,1186,cs),
(659,1279,o),
(631,1340,o),
(605,1494,cs),
(592,1565,o),
(558,1604,o),
(501,1604,cs),
(433,1604,o),
(391,1561,o),
(391,1490,cs),
(391,1444,o),
(425,1318,o),
(439,1233,cs),
(463,1077,o),
(489,1016,o),
(489,959,cs),
(489,951,o),
(489,950,o),
(484,950,cs),
(478,950,o),
(460,959,o),
(427,959,cs),
(377,959,o),
(357,928,o),
(343,874,cs),
(334,839,o),
(329,835,o),
(312,835,cs),
(300,835,o),
(295,843,o),
(254,843,cs),
(185,843,o),
(142,791,o),
(142,723,cs),
(142,676,o),
(129,618,o),
(129,548,cs),
(129,383,o),
(174,286,o),
(298,173,c),
(298,64,l),
(355,7,o),
(456,-21,o),
(588,-21,cs)
);
},
{
closed = 1;
nodes = (
(600,224,l),
(592,263,o),
(589,301,o),
(589,341,cs),
(589,368,o),
(589,394,o),
(591,418,c),
(537,460,l),
(535,429,o),
(534,396,o),
(534,363,cs),
(534,297,o),
(537,256,o),
(545,212,c)
);
},
{
closed = 1;
nodes = (
(537,334,o),
(569,361,o),
(569,416,c),
(528,429,l),
(566,387,o),
(599,368,o),
(631,368,cs),
(681,368,o),
(741,410,o),
(741,470,cs),
(741,504,o),
(732,534,o),
(687,599,cs),
(663,633,o),
(656,664,o),
(639,714,c),
(569,729,l),
(589,660,o),
(622,597,o),
(649,558,cs),
(671,526,o),
(690,498,o),
(690,472,cs),
(690,443,o),
(666,424,o),
(631,424,cs),
(585,424,o),
(549,479,o),
(470,624,cs),
(430,697,o),
(388,756,o),
(388,811,cs),
(388,829,o),
(389,844,o),
(394,861,c),
(254,786,l),
(331,786,o),
(363,697,o),
(413,615,cs),
(446,559,o),
(521,449,o),
(521,430,cs),
(521,404,o),
(498,390,o),
(476,390,cs),
(433,390,o),
(403,415,o),
(366,484,cs),
(301,607,o),
(197,615,o),
(197,723,c),
(163,725,l),
(163,611,o),
(197,591,o),
(236,561,cs),
(267,536,o),
(290,508,o),
(317,460,cs),
(364,371,o),
(411,334,o),
(476,334,cs)
);
},
{
closed = 1;
nodes = (
(668,641,o),
(701,660,o),
(745,673,c),
(729,726,l),
(679,714,o),
(642,693,o),
(614,667,c),
(645,613,l)
);
}
);
userData = {
assembly = "NPUSHB[ ]	/* 74 values pushed */
98 29 38 54 67 81 5 77 23 90 25 131 16 11 50 52 86 98 101 6 147 139 0 6 8 82 121 122 123 127 8 114 125 47 68 71 91 4 131 104 23 77 104 41 117 111 139 104 109 155 104 114 18 70 93 103 4 16 104 147 57 104 35 5 1 125 104 114 109 147 23 41 5 35
PUSHW[ ]	/* 1 value pushed */
287
NPUSHB[ ]	/* 15 values pushed */
3 0 10 158 52 50 74 49 90 127 93 81 97 95 29
PUSHW[ ]	/* 3 values pushed */
315 67 594
PUSHB[ ]	/* 7 values pushed */
54 116 38 38 95 98 29
PUSHW[ ]	/* 3 values pushed */
315 67 594
NPUSHB[ ]	/* 68 values pushed */
54 54 100 106 103 142 91 158 111 27 60 18 5 8 117 121 3 20 150 68 127 116 1 134 116 20 60 116 32 100 116 95 98 116 97 86 47 70 116 49 123 116 5 25 91 116 27 106 116 142 10 150 116 13 74 116 44 20 5 32 27 142 95 97 1 49 9 44
PUSHW[ ]	/* 2 values pushed */
593 13
MDAP[1]	/* MoveDirectAbsPt */
MIRP[01101]	/* MoveIndirectRelPt */
SLOOP[ ]	/* SetLoopVariable */
IP[ ]	/* InterpolatePts */
SRP0[ ]	/* SetRefPoint0 */
MIRP[01101]	/* MoveIndirectRelPt */
SRP0[ ]	/* SetRefPoint0 */
MIRP[01101]	/* MoveIndirectRelPt */
IP[ ]	/* InterpolatePts */
MDAP[1]	/* MoveDirectAbsPt */
MIRP[01101]	/* MoveIndirectRelPt */
MDAP[1]	/* MoveDirectAbsPt */
MIRP[01101]	/* MoveIndirectRelPt */
IP[ ]	/* InterpolatePts */
MDAP[1]	/* MoveDirectAbsPt */
MIRP[01101]	/* MoveIndirectRelPt */
MDAP[1]	/* MoveDirectAbsPt */
MIRP[01101]	/* MoveIndirectRelPt */
IP[ ]	/* InterpolatePts */
IP[ ]	/* InterpolatePts */
MDAP[1]	/* MoveDirectAbsPt */
MIRP[01101]	/* MoveIndirectRelPt */
MDAP[1]	/* MoveDirectAbsPt */
MIRP[01101]	/* MoveIndirectRelPt */
MDAP[1]	/* MoveDirectAbsPt */
MIRP[01101]	/* MoveIndirectRelPt */
MDAP[1]	/* MoveDirectAbsPt */
MIRP[01101]	/* MoveIndirectRelPt */
MDAP[1]	/* MoveDirectAbsPt */
MIRP[01101]	/* MoveIndirectRelPt */
IP[ ]	/* InterpolatePts */
SRP1[ ]	/* SetRefPoint1 */
SRP2[ ]	/* SetRefPoint2 */
SLOOP[ ]	/* SetLoopVariable */
IP[ ]	/* InterpolatePts */
SRP1[ ]	/* SetRefPoint1 */
IP[ ]	/* InterpolatePts */
SRP1[ ]	/* SetRefPoint1 */
SRP2[ ]	/* SetRefPoint2 */
IP[ ]	/* InterpolatePts */
IP[ ]	/* InterpolatePts */
SRP1[ ]	/* SetRefPoint1 */
SRP2[ ]	/* SetRefPoint2 */
IP[ ]	/* InterpolatePts */
SRP1[ ]	/* SetRefPoint1 */
SRP2[ ]	/* SetRefPoint2 */
IP[ ]	/* InterpolatePts */
SRP0[ ]	/* SetRefPoint0 */
MIRP[00110]	/* MoveIndirectRelPt */
MIRP[00100]	/* MoveIndirectRelPt */
SRP1[ ]	/* SetRefPoint1 */
SRP2[ ]	/* SetRefPoint2 */
IP[ ]	/* InterpolatePts */
SRP0[ ]	/* SetRefPoint0 */
MIRP[11101]	/* MoveIndirectRelPt */
MIRP[00110]	/* MoveIndirectRelPt */
MIRP[00100]	/* MoveIndirectRelPt */
SRP1[ ]	/* SetRefPoint1 */
SRP2[ ]	/* SetRefPoint2 */
IP[ ]	/* InterpolatePts */
IP[ ]	/* InterpolatePts */
SRP1[ ]	/* SetRefPoint1 */
IP[ ]	/* InterpolatePts */
SRP1[ ]	/* SetRefPoint1 */
SRP2[ ]	/* SetRefPoint2 */
IP[ ]	/* InterpolatePts */
IP[ ]	/* InterpolatePts */
MDAP[1]	/* MoveDirectAbsPt */
MDAP[1]	/* MoveDirectAbsPt */
SVTCA[0]	/* SetFreedomAndProjectionVectorToAxis */
MIAP[1]	/* MoveIndirectAbsPt */
MIRP[01101]	/* MoveIndirectRelPt */
SLOOP[ ]	/* SetLoopVariable */
IP[ ]	/* InterpolatePts */
MIRP[01101]	/* MoveIndirectRelPt */
IP[ ]	/* InterpolatePts */
IP[ ]	/* InterpolatePts */
SRP0[ ]	/* SetRefPoint0 */
MIRP[01101]	/* MoveIndirectRelPt */
MDAP[1]	/* MoveDirectAbsPt */
MIRP[01101]	/* MoveIndirectRelPt */
SLOOP[ ]	/* SetLoopVariable */
IP[ ]	/* InterpolatePts */
MDAP[1]	/* MoveDirectAbsPt */
MIRP[01101]	/* MoveIndirectRelPt */
MDAP[1]	/* MoveDirectAbsPt */
MIRP[01101]	/* MoveIndirectRelPt */
IP[ ]	/* InterpolatePts */
IP[ ]	/* InterpolatePts */
MDAP[1]	/* MoveDirectAbsPt */
MIRP[01101]	/* MoveIndirectRelPt */
MDAP[1]	/* MoveDirectAbsPt */
MIRP[01101]	/* MoveIndirectRelPt */
SLOOP[ ]	/* SetLoopVariable */
IP[ ]	/* InterpolatePts */
SRP1[ ]	/* SetRefPoint1 */
SRP2[ ]	/* SetRefPoint2 */
SLOOP[ ]	/* SetLoopVariable */
IP[ ]	/* InterpolatePts */
SRP1[ ]	/* SetRefPoint1 */
SRP2[ ]	/* SetRefPoint2 */
SLOOP[ ]	/* SetLoopVariable */
IP[ ]	/* InterpolatePts */
SRP1[ ]	/* SetRefPoint1 */
SRP2[ ]	/* SetRefPoint2 */
IP[ ]	/* InterpolatePts */
IP[ ]	/* InterpolatePts */
SRP1[ ]	/* SetRefPoint1 */
SRP2[ ]	/* SetRefPoint2 */
SLOOP[ ]	/* SetLoopVariable */
IP[ ]	/* InterpolatePts */
MDAP[1]	/* MoveDirectAbsPt */
IUP[1]	/* InterpolateUntPts */
IUP[0]	/* InterpolateUntPts */";
};
width = 1203;
}
);
note = uni0041;
unicode = 65;
}
{
glyphname = B;
layers = (
{
layerId = m01;
shapes = (
{
closed = 1;
nodes = (
(1093,127,o),
(1163,166,o),
(1241,244,cs),
(1315,318,o),
(1365,405,o),
(1365,464,cs),
(1365,466,o),
(1365,468,o),
(1365,469,c),
(1355,475,o),
(1340,485,o),
(1307,519,cs),
(1241,588,o),
(1194,653,o),
(1173,722,cs),
(1134,844,o),
(1070,952,o),
(998,1025,cs),
(979,1044,o),
(943,1051,o),
(898,1051,cs),
(735,1051,o),
(445,957,o),
(385,900,cs),
(359,875,o),
(329,784,o),
(311,687,c),
(298,636,o),
(272,599,o),
(272,575,cs),
(272,553,o),
(279,533,o),
(297,519,cs),
(318,502,o),
(344,491,o),
(372,491,cs),
(408,491,o),
(448,508,o),
(480,541,cs),
(515,575,o),
(543,640,o),
(554,716,c),
(601,716,o),
(654,719,o),
(676,719,cs),
(701,719,o),
(715,710,o),
(728,699,c),
(735,643,o),
(748,570,o),
(748,518,cs),
(748,491,o),
(744,468,o),
(734,458,cs),
(720,444,o),
(697,437,o),
(667,437,cs),
(641,437,o),
(610,442,o),
(573,452,c),
(536,488,o),
(497,505,o),
(458,505,cs),
(421,505,o),
(386,492,o),
(354,459,cs),
(334,439,o),
(321,412,o),
(321,388,cs),
(321,364,o),
(334,341,o),
(358,328,cs),
(375,317,l),
(412,300,o),
(435,280,o),
(453,260,cs),
(472,240,o),
(495,227,o),
(522,217,c),
(580,200,o),
(715,147,o),
(765,147,cs),
(815,147,o),
(877,181,o),
(926,181,cs),
(948,181,o),
(966,176,o),
(982,160,cs),
(1013,129,l),
(1020,127,o),
(1028,127,o),
(1035,127,cs)
);
},
{
closed = 1;
nodes = (
(1018,196,ls),
(989,221,o),
(956,231,o),
(924,231,cs),
(859,231,o),
(794,199,o),
(760,199,cs),
(721,200,o),
(593,251,o),
(536,266,cs),
(517,271,o),
(505,281,o),
(490,295,cs),
(470,315,o),
(445,337,o),
(401,362,cs),
(392,368,o),
(382,374,o),
(373,380,c),
(373,388,o),
(375,407,o),
(389,421,cs),
(409,441,o),
(432,454,o),
(459,454,cs),
(487,454,o),
(517,438,o),
(546,407,c),
(590,392,o),
(630,385,o),
(666,385,cs),
(710,385,o),
(745,397,o),
(770,422,cs),
(791,445,o),
(798,484,o),
(798,528,cs),
(798,593,o),
(782,672,o),
(777,722,c),
(751,753,o),
(715,770,o),
(681,770,cs),
(654,770,o),
(610,766,o),
(589,766,cs),
(556,766,o),
(525,767,o),
(509,770,c),
(503,684,o),
(478,609,o),
(445,576,cs),
(422,553,o),
(393,541,o),
(369,541,cs),
(354,541,o),
(342,546,o),
(332,556,cs),
(326,562,o),
(325,565,o),
(325,573,cs),
(325,583,o),
(346,616,o),
(361,677,c),
(376,761,o),
(403,847,o),
(422,863,cs),
(489,920,o),
(775,1001,o),
(904,1001,cs),
(932,1001,o),
(953,997,o),
(962,988,cs),
(1029,921,o),
(1087,821,o),
(1124,707,cs),
(1157,608,o),
(1221,532,o),
(1271,482,cs),
(1288,465,o),
(1303,454,o),
(1311,445,c),
(1303,399,o),
(1261,337,o),
(1204,280,cs),
(1136,211,o),
(1080,179,o),
(1036,179,c)
);
},
{
closed = 1;
nodes = (
(1197,-27,o),
(1285,33,o),
(1368,117,cs),
(1452,203,o),
(1514,290,o),
(1514,354,cs),
(1514,374,o),
(1506,394,o),
(1492,408,cs),
(1417,484,ls),
(1409,491,o),
(1402,494,o),
(1397,494,cs),
(1388,494,o),
(1381,489,o),
(1375,484,c),
(1368,476,l),
(1371,478,o),
(1374,478,o),
(1377,478,cs),
(1384,478,o),
(1388,476,o),
(1394,471,c),
(1402,462,o),
(1408,448,o),
(1408,432,cs),
(1408,382,o),
(1367,301,o),
(1276,210,cs),
(1186,120,o),
(1106,79,o),
(1056,79,cs),
(1038,79,o),
(1025,83,o),
(1015,93,cs),
(1010,97,o),
(1008,102,o),
(1008,106,cs),
(1008,110,o),
(1009,113,o),
(1010,117,c),
(1003,110,ls),
(998,104,o),
(993,97,o),
(993,90,cs),
(993,85,o),
(996,77,o),
(1003,70,cs),
(1079,-5,ls),
(1095,-21,o),
(1113,-27,o),
(1133,-27,cs)
);
},
{
closed = 1;
nodes = (
(599,982,l),
(533,994,o),
(422,1042,o),
(371,1062,c),
(274,1062,o),
(187,1115,o),
(187,1166,cs),
(187,1203,o),
(208,1216,o),
(230,1216,cs),
(244,1216,o),
(261,1210,o),
(282,1205,cs),
(389,1175,o),
(507,1142,o),
(613,1116,cs),
(676,1101,o),
(744,1049,o),
(859,1014,c),
(945,1042,l),
(794,1088,o),
(713,1146,o),
(624,1166,cs),
(522,1189,o),
(403,1225,o),
(298,1253,cs),
(271,1260,o),
(251,1267,o),
(231,1267,cs),
(181,1267,o),
(136,1232,o),
(136,1166,cs),
(136,1085,o),
(242,1012,o),
(361,1011,c),
(405,992,o),
(485,961,o),
(550,942,c)
);
},
{
closed = 1;
nodes = (
(865,1024,l),
(854,1065,o),
(848,1105,o),
(835,1142,cs),
(829,1159,o),
(821,1168,o),
(814,1183,cs),
(780,1257,o),
(714,1326,o),
(681,1356,cs),
(617,1414,o),
(566,1460,o),
(506,1460,cs),
(450,1460,o),
(403,1424,o),
(403,1360,cs),
(403,1300,o),
(455,1250,o),
(526,1223,c),
(537,1193,o),
(547,1183,o),
(562,1172,c),
(639,1148,l),
(611,1178,o),
(570,1222,o),
(564,1253,c),
(468,1293,o),
(453,1334,o),
(453,1361,cs),
(453,1387,o),
(470,1413,o),
(502,1413,cs),
(549,1413,o),
(590,1371,o),
(650,1317,cs),
(701,1272,o),
(748,1213,o),
(770,1162,cs),
(788,1116,o),
(801,1071,o),
(818,1009,c)
);
},
{
closed = 1;
nodes = (
(1019,987,o),
(1010,1009,o),
(1008,1031,cs),
(1006,1041,o),
(1005,1051,o),
(1005,1061,cs),
(1005,1071,o),
(1006,1083,o),
(1009,1098,cs),
(1012,1109,o),
(1012,1123,o),
(1012,1140,cs),
(1012,1205,o),
(995,1296,o),
(975,1357,cs),
(946,1444,o),
(914,1480,o),
(858,1480,cs),
(801,1480,o),
(758,1428,o),
(758,1371,cs),
(758,1326,o),
(784,1277,o),
(801,1247,c),
(794,1226,o),
(792,1206,o),
(792,1189,cs),
(792,1176,o),
(794,1166,o),
(795,1158,c),
(842,1105,l),
(839,1122,o),
(838,1145,o),
(838,1168,cs),
(838,1200,o),
(842,1233,o),
(849,1252,c),
(824,1294,o),
(808,1340,o),
(808,1367,cs),
(808,1393,o),
(825,1427,o),
(861,1427,cs),
(892,1427,o),
(909,1394,o),
(926,1341,cs),
(945,1283,o),
(961,1197,o),
(961,1142,cs),
(961,1130,o),
(961,1121,o),
(959,1112,cs),
(956,1099,o),
(955,1089,o),
(955,1079,cs),
(955,1049,o),
(963,1028,o),
(972,1008,c),
(1020,937,l),
(1020,937,l)
);
}
);
userData = {
assembly = "NPUSHB[ ]	/* 57 values pushed */
36 13 15 17 20 21 26 27 33 36 38 42 46 50 55 56 57 62 63 64 69 74 75 76 77 81 83 85 27 32 6 0 2 3 4 43 70 71 73 91 96 97 98 12 45 94 104 6 9 11 87 3 6 104 19 19 32
PUSHW[ ]	/* 1 value pushed */
393
NPUSHB[ ]	/* 78 values pushed */
45 53 79 0 38 42 45 70 71 73 7 43 40 33 53 55 56 63 74 6 48 85 3 9 11 15 27 32 57 62 69 83 91 97 12 13 59 17 79 81 96 4 30 77 64 26 66 4 76 116 77 116 19 75 21 59 116 30 2 87 98 3 85 116 13 50 46 48 116 40 66 116 19 30 13 40 4 43
PUSHW[ ]	/* 2 values pushed */
595 24
MDAP[1]	/* MoveDirectAbsPt */
MIRP[01101]	/* MoveIndirectRelPt */
SLOOP[ ]	/* SetLoopVariable */
IP[ ]	/* InterpolatePts */
MIRP[01101]	/* MoveIndirectRelPt */
MDAP[1]	/* MoveDirectAbsPt */
MIRP[01101]	/* MoveIndirectRelPt */
IP[ ]	/* InterpolatePts */
IP[ ]	/* InterpolatePts */
MDAP[1]	/* MoveDirectAbsPt */
MIRP[01101]	/* MoveIndirectRelPt */
SLOOP[ ]	/* SetLoopVariable */
IP[ ]	/* InterpolatePts */
MDAP[1]	/* MoveDirectAbsPt */
MIRP[01101]	/* MoveIndirectRelPt */
IP[ ]	/* InterpolatePts */
IP[ ]	/* InterpolatePts */
MDAP[1]	/* MoveDirectAbsPt */
MIRP[01101]	/* MoveIndirectRelPt */
MIRP[01101]	/* MoveIndirectRelPt */
IP[ ]	/* InterpolatePts */
SRP2[ ]	/* SetRefPoint2 */
IP[ ]	/* InterpolatePts */
IP[ ]	/* InterpolatePts */
SRP1[ ]	/* SetRefPoint1 */
SRP2[ ]	/* SetRefPoint2 */
SLOOP[ ]	/* SetLoopVariable */
IP[ ]	/* InterpolatePts */
SRP1[ ]	/* SetRefPoint1 */
SRP2[ ]	/* SetRefPoint2 */
SLOOP[ ]	/* SetLoopVariable */
IP[ ]	/* InterpolatePts */
SRP1[ ]	/* SetRefPoint1 */
SRP2[ ]	/* SetRefPoint2 */
SLOOP[ ]	/* SetLoopVariable */
IP[ ]	/* InterpolatePts */
SRP1[ ]	/* SetRefPoint1 */
SRP2[ ]	/* SetRefPoint2 */
SLOOP[ ]	/* SetLoopVariable */
IP[ ]	/* InterpolatePts */
MDAP[1]	/* MoveDirectAbsPt */
MDAP[1]	/* MoveDirectAbsPt */
SVTCA[0]	/* SetFreedomAndProjectionVectorToAxis */
MDAP[1]	/* MoveDirectAbsPt */
MIRP[01101]	/* MoveIndirectRelPt */
IP[ ]	/* InterpolatePts */
MDAP[1]	/* MoveDirectAbsPt */
MIRP[01101]	/* MoveIndirectRelPt */
SLOOP[ ]	/* SetLoopVariable */
IP[ ]	/* InterpolatePts */
SRP0[ ]	/* SetRefPoint0 */
MIRP[01101]	/* MoveIndirectRelPt */
SRP1[ ]	/* SetRefPoint1 */
SLOOP[ ]	/* SetLoopVariable */
IP[ ]	/* InterpolatePts */
SRP1[ ]	/* SetRefPoint1 */
SRP2[ ]	/* SetRefPoint2 */
SLOOP[ ]	/* SetLoopVariable */
IP[ ]	/* InterpolatePts */
MDAP[1]	/* MoveDirectAbsPt */
IUP[1]	/* InterpolateUntPts */
IUP[0]	/* InterpolateUntPts */";
};
width = 1624;
}
);
note = uni0042;
unicode = 66;
}
{
glyphname = C;
layers = (
{
layerId = m01;
shapes = (
{
closed = 1;
nodes = (
(629,239,o),
(820,282,o),
(945,377,c),
(1046,377,l),
(1096,429,o),
(1120,526,o),
(1120,663,cs),
(1120,766,o),
(1090,879,o),
(1047,928,c),
(970,928,ls),
(941,928,o),
(916,944,o),
(821,1024,cs),
(708,1120,o),
(633,1199,o),
(633,1352,cs),
(633,1415,o),
(651,1450,o),
(651,1467,cs),
(651,1491,o),
(591,1517,o),
(543,1517,cs),
(458,1517,o),
(395,1450,o),
(395,1342,cs),
(395,1250,o),
(422,1217,o),
(422,1137,cs),
(422,1054,o),
(370,1044,o),
(279,1030,cs),
(205,1019,o),
(131,1005,o),
(131,917,cs),
(131,851,o),
(165,834,o),
(165,805,cs),
(165,763,o),
(110,746,o),
(110,685,cs),
(110,618,o),
(181,606,o),
(181,569,cs),
(181,549,o),
(166,534,o),
(166,494,cs),
(166,400,o),
(252,426,o),
(252,354,cs),
(252,278,o),
(331,239,o),
(477,239,cs)
);
},
{
closed = 1;
nodes = (
(321,329,o),
(303,340,o),
(303,362,c),
(302,362,l),
(302,381,o),
(299,395,o),
(293,406,c),
(302,404,o),
(311,404,o),
(321,404,cs),
(429,404,o),
(536,419,o),
(567,468,cs),
(582,493,o),
(594,514,o),
(601,532,c),
(615,527,o),
(620,518,o),
(620,511,cs),
(620,490,o),
(613,457,o),
(591,410,cs),
(565,353,o),
(502,329,o),
(377,329,cs)
);
},
{
closed = 1;
nodes = (
(252,453,o),
(217,473,o),
(217,497,cs),
(217,522,o),
(231,542,o),
(233,567,c),
(274,553,o),
(314,549,o),
(351,549,cs),
(461,549,o),
(501,567,o),
(531,614,cs),
(541,630,o),
(550,644,o),
(562,655,c),
(578,652,o),
(583,634,o),
(583,619,cs),
(583,599,o),
(580,573,o),
(568,551,cs),
(558,533,o),
(543,508,o),
(527,490,cs),
(503,466,o),
(418,453,o),
(294,453,cs)
);
},
{
closed = 1;
nodes = (
(305,599,o),
(270,607,o),
(239,615,cs),
(205,626,o),
(160,651,o),
(160,691,cs),
(160,723,o),
(188,741,o),
(205,767,c),
(211,763,o),
(217,757,o),
(223,752,cs),
(271,719,o),
(333,703,o),
(389,703,cs),
(461,703,o),
(492,723,o),
(510,751,cs),
(515,758,o),
(518,764,o),
(523,767,c),
(541,766,o),
(551,759,o),
(556,751,cs),
(558,747,l),
(560,743,o),
(560,740,o),
(560,736,cs),
(560,715,o),
(543,703,o),
(523,674,cs),
(502,646,o),
(487,621,o),
(462,611,cs),
(443,602,o),
(420,599,o),
(351,599,cs)
);
},
{
closed = 1;
nodes = (
(338,751,o),
(290,770,o),
(261,787,cs),
(214,819,o),
(183,867,o),
(180,897,cs),
(180,903,ls),
(180,972,o),
(243,982,o),
(310,990,cs),
(339,995,o),
(362,996,o),
(378,996,cs),
(422,996,o),
(423,981,o),
(423,942,c),
(395,941,o),
(372,944,o),
(351,950,c),
(339,936,l),
(357,905,o),
(395,883,o),
(439,874,c),
(458,883,o),
(470,885,o),
(484,885,cs),
(508,885,o),
(523,870,o),
(523,845,cs),
(523,824,o),
(508,814,o),
(496,800,cs),
(483,784,o),
(476,770,o),
(461,760,cs),
(448,754,o),
(429,751,o),
(382,751,cs)
);
},
{
closed = 1;
nodes = (
(482,291,o),
(503,296,o),
(528,302,cs),
(587,321,o),
(624,349,o),
(640,397,cs),
(660,457,o),
(668,485,o),
(668,505,cs),
(668,541,o),
(649,563,o),
(616,567,c),
(622,585,o),
(623,598,o),
(623,613,cs),
(623,627,o),
(621,639,o),
(616,652,c),
(668,594,o),
(735,562,o),
(828,548,c),
(834,598,l),
(676,620,o),
(611,700,o),
(567,893,c),
(504,937,o),
(472,971,o),
(471,1136,cs),
(471,1214,o),
(444,1286,o),
(444,1341,cs),
(444,1418,o),
(475,1471,o),
(542,1471,cs),
(571,1471,o),
(596,1461,o),
(596,1447,cs),
(596,1427,o),
(583,1407,o),
(583,1346,cs),
(583,1167,o),
(673,1084,o),
(783,992,cs),
(898,899,o),
(926,878,o),
(970,878,cs),
(1023,878,l),
(1050,830,o),
(1071,743,o),
(1071,663,cs),
(1071,553,o),
(1054,474,o),
(1023,427,c),
(928,427,l),
(828,341,o),
(654,289,o),
(477,289,cs),
(456,289,l)
);
},
{
closed = 1;
nodes = (
(1178,331,ls),
(1268,331,o),
(1294,526,o),
(1294,653,cs),
(1294,779,o),
(1267,976,o),
(1178,976,cs),
(1074,976,ls),
(1058,976,o),
(1047,964,o),
(1047,943,cs),
(1047,941,l),
(1054,949,o),
(1058,950,o),
(1067,950,cs),
(1145,950,o),
(1166,778,o),
(1166,653,cs),
(1166,526,o),
(1142,355,o),
(1067,355,cs),
(1058,355,o),
(1053,360,o),
(1047,369,c),
(1047,360,ls),
(1047,344,o),
(1054,331,o),
(1074,331,cs)
);
}
);
userData = {
assembly = "NPUSHB[ ]	/* 81 values pushed */
84 85 37 59 60 3 36 27 85 84 53 22 77 82 83 90 91 108 7 79 75 93 94 123 3 110 117 126 96 124 105 99 136 103 100 139 102 69 104 27 130 13 128 104 136 134 97 105 104 1 75 104 112 106 76 104 110 124 104 117 119 17 117 104 125 79 104 88 244 53 3 5 7 3 102 104 139 104 9 27 36
PUSHW[ ]	/* 1 value pushed */
360
NPUSHB[ ]	/* 9 values pushed */
44 104 53 136 1 125 110 4 53
PUSHW[ ]	/* 1 value pushed */
354
NPUSHB[ ]	/* 70 values pushed */
9 1 3 7 8 36 37 45 49 53 59 68 77 90 91 93 94 96 97 99 100 103 105 106 108 119 123 130 134 28 51 28 60 118 124 129 135 140 7 67 62 109 76 137 13 33 82 83 85 125 4 11 126 112 15 22 114 72 137 116 11 84 17 126 116 15 114 116 20 67
PUSHW[ ]	/* 1 value pushed */
564
NPUSHB[ ]	/* 16 values pushed */
62 116 33 72 116 24 0 51 116 47 20 15 11 33 4 47
PUSHW[ ]	/* 2 values pushed */
281 24
MDAP[1]	/* MoveDirectAbsPt */
MIRP[01101]	/* MoveIndirectRelPt */
SLOOP[ ]	/* SetLoopVariable */
IP[ ]	/* InterpolatePts */
SRP0[ ]	/* SetRefPoint0 */
MIRP[01101]	/* MoveIndirectRelPt */
IP[ ]	/* InterpolatePts */
SRP0[ ]	/* SetRefPoint0 */
MIRP[01101]	/* MoveIndirectRelPt */
MDAP[1]	/* MoveDirectAbsPt */
MIRP[01101]	/* MoveIndirectRelPt */
MIRP[01101]	/* MoveIndirectRelPt */
MDAP[1]	/* MoveDirectAbsPt */
MIRP[01101]	/* MoveIndirectRelPt */
MDAP[1]	/* MoveDirectAbsPt */
MIRP[01101]	/* MoveIndirectRelPt */
IP[ ]	/* InterpolatePts */
IP[ ]	/* InterpolatePts */
MDAP[1]	/* MoveDirectAbsPt */
MIRP[01101]	/* MoveIndirectRelPt */
SRP1[ ]	/* SetRefPoint1 */
SRP2[ ]	/* SetRefPoint2 */
IP[ ]	/* InterpolatePts */
SRP1[ ]	/* SetRefPoint1 */
IP[ ]	/* InterpolatePts */
SRP1[ ]	/* SetRefPoint1 */
SRP2[ ]	/* SetRefPoint2 */
SLOOP[ ]	/* SetLoopVariable */
IP[ ]	/* InterpolatePts */
SRP1[ ]	/* SetRefPoint1 */
IP[ ]	/* InterpolatePts */
SRP2[ ]	/* SetRefPoint2 */
IP[ ]	/* InterpolatePts */
IP[ ]	/* InterpolatePts */
SRP1[ ]	/* SetRefPoint1 */
SRP2[ ]	/* SetRefPoint2 */
SLOOP[ ]	/* SetLoopVariable */
IP[ ]	/* InterpolatePts */
SRP1[ ]	/* SetRefPoint1 */
SLOOP[ ]	/* SetLoopVariable */
IP[ ]	/* InterpolatePts */
SVTCA[0]	/* SetFreedomAndProjectionVectorToAxis */
MDAP[1]	/* MoveDirectAbsPt */
MIRP[00100]	/* MoveIndirectRelPt */
SLOOP[ ]	/* SetLoopVariable */
IP[ ]	/* InterpolatePts */
SRP0[ ]	/* SetRefPoint0 */
MIRP[11101]	/* MoveIndirectRelPt */
MIRP[00100]	/* MoveIndirectRelPt */
IP[ ]	/* InterpolatePts */
SRP0[ ]	/* SetRefPoint0 */
MIRP[01101]	/* MoveIndirectRelPt */
MIRP[01101]	/* MoveIndirectRelPt */
SLOOP[ ]	/* SetLoopVariable */
IP[ ]	/* InterpolatePts */
SRP0[ ]	/* SetRefPoint0 */
MIRP[10101]	/* MoveIndirectRelPt */
MIRP[01101]	/* MoveIndirectRelPt */
MDAP[1]	/* MoveDirectAbsPt */
MIRP[01101]	/* MoveIndirectRelPt */
IP[ ]	/* InterpolatePts */
IP[ ]	/* InterpolatePts */
SRP0[ ]	/* SetRefPoint0 */
MIRP[01101]	/* MoveIndirectRelPt */
MDAP[1]	/* MoveDirectAbsPt */
MIRP[01101]	/* MoveIndirectRelPt */
IP[ ]	/* InterpolatePts */
IP[ ]	/* InterpolatePts */
MIRP[01101]	/* MoveIndirectRelPt */
MDAP[1]	/* MoveDirectAbsPt */
MIRP[01101]	/* MoveIndirectRelPt */
IP[ ]	/* InterpolatePts */
IP[ ]	/* InterpolatePts */
MDAP[1]	/* MoveDirectAbsPt */
MIRP[01101]	/* MoveIndirectRelPt */
IP[ ]	/* InterpolatePts */
IP[ ]	/* InterpolatePts */
MDAP[1]	/* MoveDirectAbsPt */
MIRP[01101]	/* MoveIndirectRelPt */
SRP1[ ]	/* SetRefPoint1 */
SRP2[ ]	/* SetRefPoint2 */
IP[ ]	/* InterpolatePts */
IP[ ]	/* InterpolatePts */
SRP1[ ]	/* SetRefPoint1 */
IP[ ]	/* InterpolatePts */
SRP1[ ]	/* SetRefPoint1 */
SRP2[ ]	/* SetRefPoint2 */
IP[ ]	/* InterpolatePts */
IP[ ]	/* InterpolatePts */
SRP1[ ]	/* SetRefPoint1 */
SRP2[ ]	/* SetRefPoint2 */
SLOOP[ ]	/* SetLoopVariable */
IP[ ]	/* InterpolatePts */
SRP1[ ]	/* SetRefPoint1 */
SRP2[ ]	/* SetRefPoint2 */
SLOOP[ ]	/* SetLoopVariable */
IP[ ]	/* InterpolatePts */
SRP1[ ]	/* SetRefPoint1 */
IP[ ]	/* InterpolatePts */
IP[ ]	/* InterpolatePts */
SRP1[ ]	/* SetRefPoint1 */
SRP2[ ]	/* SetRefPoint2 */
SLOOP[ ]	/* SetLoopVariable */
IP[ ]	/* InterpolatePts */
MDAP[1]	/* MoveDirectAbsPt */
MDAP[1]	/* MoveDirectAbsPt */
IUP[1]	/* InterpolateUntPts */
IUP[0]	/* InterpolateUntPts */";
};
width = 1381;
}
);
note = uni0043;
unicode = 67;
}
{
glyphname = E;
layers = (
{
layerId = m01;
shapes = (
{
closed = 1;
nodes = (
(1091,425,o),
(1282,468,o),
(1407,563,c),
(1508,563,l),
(1558,616,o),
(1583,712,o),
(1583,849,cs),
(1583,953,o),
(1552,1066,o),
(1510,1114,c),
(1505,1116,o),
(1454,1111,o),
(1432,1111,cs),
(1384,1111,o),
(1366,1114,o),
(1287,1176,cs),
(1202,1244,o),
(1146,1266,o),
(1063,1266,cs),
(968,1266,o),
(891,1254,o),
(833,1230,cs),
(772,1205,o),
(724,1192,o),
(699,1185,cs),
(682,1180,o),
(666,1172,o),
(655,1164,c),
(615,1161,o),
(574,1158,o),
(534,1154,cs),
(471,1147,o),
(391,1138,o),
(334,1131,cs),
(221,1117,o),
(173,1085,o),
(173,1019,cs),
(173,954,o),
(218,924,o),
(308,924,cs),
(340,924,o),
(405,928,o),
(463,928,cs),
(507,928,o),
(550,925,o),
(590,922,c),
(573,899,o),
(568,875,o),
(568,842,cs),
(568,798,o),
(587,772,o),
(627,754,cs),
(639,748,o),
(646,743,o),
(646,733,cs),
(646,718,o),
(632,697,o),
(632,671,cs),
(632,624,o),
(656,592,o),
(700,575,cs),
(713,571,o),
(714,569,o),
(714,548,cs),
(714,465,o),
(793,425,o),
(939,425,cs)
);
},
{
closed = 1;
nodes = (
(762,505,o),
(755,540,o),
(755,560,cs),
(755,563,o),
(755,566,o),
(757,569,c),
(766,569,ls),
(842,569,o),
(912,603,o),
(963,624,cs),
(985,633,o),
(1014,646,o),
(1041,660,c),
(1050,651,o),
(1057,638,o),
(1058,625,c),
(1043,604,o),
(1007,575,o),
(970,555,cs),
(920,527,o),
(891,505,o),
(807,505,cs)
);
},
{
closed = 1;
nodes = (
(771,957,o),
(731,973,o),
(690,973,cs),
(666,973,o),
(652,972,o),
(639,969,c),
(584,972,o),
(516,977,o),
(463,977,cs),
(403,977,o),
(338,973,o),
(308,973,cs),
(242,973,o),
(222,987,o),
(222,1019,cs),
(222,1053,o),
(251,1067,o),
(341,1081,cs),
(396,1089,o),
(472,1098,o),
(541,1104,cs),
(566,1107,o),
(597,1109,o),
(628,1111,c),
(628,1104,ls),
(628,1024,o),
(684,979,o),
(747,979,cs),
(783,979,o),
(842,987,o),
(896,1000,c),
(903,986,o),
(912,973,o),
(920,961,c),
(918,961,l),
(895,953,o),
(852,935,o),
(780,924,c)
);
},
{
closed = 1;
nodes = (
(711,611,o),
(677,627,o),
(677,665,cs),
(677,687,o),
(682,708,o),
(688,722,c),
(702,716,o),
(711,715,o),
(725,715,cs),
(757,715,o),
(840,727,o),
(899,747,cs),
(963,767,o),
(1022,796,o),
(1066,824,c),
(1077,828,o),
(1087,831,o),
(1097,831,cs),
(1121,831,o),
(1137,809,o),
(1137,785,cs),
(1137,774,o),
(1133,762,o),
(1127,754,c),
(1101,734,o),
(1010,687,o),
(949,664,cs),
(867,632,o),
(807,611,o),
(754,611,cs)
);
},
{
closed = 1;
nodes = (
(710,765,o),
(689,773,o),
(653,795,cs),
(623,814,o),
(617,819,o),
(617,838,cs),
(617,871,o),
(621,903,o),
(648,924,c),
(657,925,o),
(666,925,o),
(673,925,cs),
(725,925,o),
(740,904,o),
(740,868,c),
(830,878,o),
(880,896,o),
(931,915,cs),
(965,926,o),
(1003,953,o),
(1033,948,c),
(1048,947,o),
(1069,939,o),
(1069,912,cs),
(1069,901,o),
(1062,883,o),
(1061,879,c),
(1034,859,o),
(982,825,o),
(892,794,cs),
(838,774,o),
(768,765,o),
(732,765,cs)
);
},
{
closed = 1;
nodes = (
(906,479,o),
(935,490,o),
(978,512,cs),
(1033,541,o),
(1080,578,o),
(1101,609,c),
(1104,616,o),
(1105,627,o),
(1105,636,cs),
(1105,654,o),
(1097,671,o),
(1087,682,c),
(1121,700,o),
(1152,718,o),
(1167,730,c),
(1174,738,o),
(1181,754,o),
(1182,772,c),
(1207,763,o),
(1235,761,o),
(1267,761,cs),
(1289,761,o),
(1312,763,o),
(1329,767,c),
(1329,816,l),
(1313,812,o),
(1284,810,o),
(1267,810,cs),
(1228,810,o),
(1197,814,o),
(1173,827,c),
(1160,849,o),
(1138,864,o),
(1110,867,c),
(1115,879,o),
(1117,893,o),
(1117,907,cs),
(1117,954,o),
(1087,994,o),
(1030,994,cs),
(1010,994,o),
(989,987,o),
(967,979,c),
(960,988,o),
(952,1000,o),
(945,1012,c),
(975,1020,o),
(999,1031,o),
(1008,1041,c),
(971,1074,l),
(954,1056,o),
(807,1029,o),
(750,1029,cs),
(713,1029,o),
(677,1052,o),
(677,1103,cs),
(677,1106,o),
(677,1111,o),
(677,1117,c),
(678,1117,l),
(678,1121,o),
(696,1132,o),
(711,1136,cs),
(736,1143,o),
(789,1158,o),
(852,1185,cs),
(903,1205,o),
(975,1216,o),
(1063,1216,cs),
(1135,1216,o),
(1179,1198,o),
(1257,1136,cs),
(1338,1071,o),
(1370,1062,o),
(1432,1062,cs),
(1446,1062,o),
(1468,1063,o),
(1485,1064,c),
(1512,1016,o),
(1533,929,o),
(1533,849,cs),
(1533,738,o),
(1517,660,o),
(1485,613,c),
(1391,613,l),
(1290,527,o),
(1116,472,o),
(939,472,cs),
(884,472,l),
(884,472,l)
);
},
{
closed = 1;
nodes = (
(1641,517,ls),
(1731,517,o),
(1756,712,o),
(1756,839,cs),
(1756,965,o),
(1729,1163,o),
(1641,1163,cs),
(1537,1163,ls),
(1521,1163,o),
(1510,1150,o),
(1510,1129,cs),
(1510,1127,l),
(1517,1135,o),
(1521,1136,o),
(1530,1136,cs),
(1608,1136,o),
(1628,964,o),
(1628,839,cs),
(1628,712,o),
(1604,541,o),
(1530,541,cs),
(1521,541,o),
(1515,545,o),
(1510,555,c),
(1510,545,ls),
(1510,530,o),
(1517,517,o),
(1537,517,cs)
);
}
);
userData = {
assembly = "NPUSHB[ ]	/* 43 values pushed */
33 34 59 3 35 32 61 57 51 68 72 67 48 24 25 96 80 81 94 3 100 107 108 83 111 93 118 1 117 86 87 126 3 123 91 125 3 7 8 3 89 9 67
PUSHW[ ]	/* 1 value pushed */
403
NPUSHB[ ]	/* 35 values pushed */
70 244 96 104 78 69 104 68 110 18 106 104 112 107 104 111 119 13 117 104 123 60 42 43 104 32 65 57 104 37 121 84 93 104 1
PUSHW[ ]	/* 1 value pushed */
453
PUSHB[ ]	/* 5 values pushed */
37 74 104 100 32
PUSHW[ ]	/* 1 value pushed */
565
NPUSHB[ ]	/* 27 values pushed */
48 104 49 104 25 104 63 130 100 104 75 125 104 9 89 104 9 123 111 112 75 78 68 37 32 9 35
PUSHW[ ]	/* 1 value pushed */
596
NPUSHB[ ]	/* 64 values pushed */
5 1 3 7 8 35 37 38 52 56 57 59 65 68 69 72 75 80 81 83 84 86 87 91 93 94 99 107 108 110 111 118 119 121 122 126 35 54 13 60 74 112 4 123 114 49 51 61 3 45 24 25 42 3 103 116 21 18 33 34 3 114 116 16
PUSHW[ ]	/* 1 value pushed */
313
PUSHB[ ]	/* 8 values pushed */
123 45 116 29 0 54 116 40
PUSHW[ ]	/* 1 value pushed */
573
PUSHB[ ]	/* 5 values pushed */
123 116 11 21 11
PUSHW[ ]	/* 2 values pushed */
573 29
MDAP[1]	/* MoveDirectAbsPt */
MIRP[00100]	/* MoveIndirectRelPt */
IP[ ]	/* InterpolatePts */
SRP0[ ]	/* SetRefPoint0 */
MIRP[11101]	/* MoveIndirectRelPt */
MIRP[10100]	/* MoveIndirectRelPt */
MIRP[01101]	/* MoveIndirectRelPt */
IP[ ]	/* InterpolatePts */
SRP0[ ]	/* SetRefPoint0 */
MIRP[01101]	/* MoveIndirectRelPt */
SRP0[ ]	/* SetRefPoint0 */
MIRP[11101]	/* MoveIndirectRelPt */
MIRP[01101]	/* MoveIndirectRelPt */
SLOOP[ ]	/* SetLoopVariable */
IP[ ]	/* InterpolatePts */
MDAP[1]	/* MoveDirectAbsPt */
MIRP[01101]	/* MoveIndirectRelPt */
SLOOP[ ]	/* SetLoopVariable */
IP[ ]	/* InterpolatePts */
SRP2[ ]	/* SetRefPoint2 */
SLOOP[ ]	/* SetLoopVariable */
IP[ ]	/* InterpolatePts */
SRP1[ ]	/* SetRefPoint1 */
SRP2[ ]	/* SetRefPoint2 */
SLOOP[ ]	/* SetLoopVariable */
IP[ ]	/* InterpolatePts */
SRP1[ ]	/* SetRefPoint1 */
SLOOP[ ]	/* SetLoopVariable */
IP[ ]	/* InterpolatePts */
SVTCA[0]	/* SetFreedomAndProjectionVectorToAxis */
MDAP[1]	/* MoveDirectAbsPt */
MIRP[01101]	/* MoveIndirectRelPt */
SLOOP[ ]	/* SetLoopVariable */
IP[ ]	/* InterpolatePts */
MIRP[01101]	/* MoveIndirectRelPt */
MDAP[1]	/* MoveDirectAbsPt */
MIRP[01101]	/* MoveIndirectRelPt */
MDAP[1]	/* MoveDirectAbsPt */
MIRP[11101]	/* MoveIndirectRelPt */
MIRP[11101]	/* MoveIndirectRelPt */
MIRP[10101]	/* MoveIndirectRelPt */
MIRP[01101]	/* MoveIndirectRelPt */
MIRP[01101]	/* MoveIndirectRelPt */
MIRP[01101]	/* MoveIndirectRelPt */
SRP0[ ]	/* SetRefPoint0 */
MIRP[01101]	/* MoveIndirectRelPt */
MDAP[1]	/* MoveDirectAbsPt */
MIRP[11101]	/* MoveIndirectRelPt */
MIRP[01101]	/* MoveIndirectRelPt */
IP[ ]	/* InterpolatePts */
IP[ ]	/* InterpolatePts */
SRP0[ ]	/* SetRefPoint0 */
MIRP[01101]	/* MoveIndirectRelPt */
IP[ ]	/* InterpolatePts */
MDAP[1]	/* MoveDirectAbsPt */
MIRP[01101]	/* MoveIndirectRelPt */
IP[ ]	/* InterpolatePts */
IP[ ]	/* InterpolatePts */
MDAP[1]	/* MoveDirectAbsPt */
MIRP[01101]	/* MoveIndirectRelPt */
IP[ ]	/* InterpolatePts */
IP[ ]	/* InterpolatePts */
MDAP[1]	/* MoveDirectAbsPt */
MIRP[01101]	/* MoveIndirectRelPt */
MDAP[1]	/* MoveDirectAbsPt */
MIRP[01101]	/* MoveIndirectRelPt */
IP[ ]	/* InterpolatePts */
IP[ ]	/* InterpolatePts */
MDAP[1]	/* MoveDirectAbsPt */
MIRP[01101]	/* MoveIndirectRelPt */
MDAP[1]	/* MoveDirectAbsPt */
MIRP[01101]	/* MoveIndirectRelPt */
MIRP[00101]	/* MoveIndirectRelPt */
MIRP[00100]	/* MoveIndirectRelPt */
SRP1[ ]	/* SetRefPoint1 */
SRP2[ ]	/* SetRefPoint2 */
SLOOP[ ]	/* SetLoopVariable */
IP[ ]	/* InterpolatePts */
SRP1[ ]	/* SetRefPoint1 */
IP[ ]	/* InterpolatePts */
SRP2[ ]	/* SetRefPoint2 */
SLOOP[ ]	/* SetLoopVariable */
IP[ ]	/* InterpolatePts */
SRP1[ ]	/* SetRefPoint1 */
SRP2[ ]	/* SetRefPoint2 */
IP[ ]	/* InterpolatePts */
SRP1[ ]	/* SetRefPoint1 */
SRP2[ ]	/* SetRefPoint2 */
IP[ ]	/* InterpolatePts */
IP[ ]	/* InterpolatePts */
SRP1[ ]	/* SetRefPoint1 */
SRP2[ ]	/* SetRefPoint2 */
SLOOP[ ]	/* SetLoopVariable */
IP[ ]	/* InterpolatePts */
SRP1[ ]	/* SetRefPoint1 */
SRP2[ ]	/* SetRefPoint2 */
IP[ ]	/* InterpolatePts */
SRP1[ ]	/* SetRefPoint1 */
SRP2[ ]	/* SetRefPoint2 */
IP[ ]	/* InterpolatePts */
SRP1[ ]	/* SetRefPoint1 */
IP[ ]	/* InterpolatePts */
SRP2[ ]	/* SetRefPoint2 */
IP[ ]	/* InterpolatePts */
SRP1[ ]	/* SetRefPoint1 */
SRP2[ ]	/* SetRefPoint2 */
SLOOP[ ]	/* SetLoopVariable */
IP[ ]	/* InterpolatePts */
IUP[1]	/* InterpolateUntPts */
IUP[0]	/* InterpolateUntPts */";
};
width = 1929;
}
);
note = uni0045;
unicode = 69;
}
{
glyphname = I;
layers = (
{
layerId = m01;
shapes = (
{
closed = 1;
nodes = (
(912,-25,o),
(1040,11,o),
(1098,60,c),
(1098,132,ls),
(1098,152,o),
(1285,308,o),
(1362,350,cs),
(1409,376,o),
(1463,461,o),
(1505,489,cs),
(1570,530,o),
(1592,563,o),
(1635,589,cs),
(1670,609,o),
(1685,629,o),
(1685,658,cs),
(1685,708,o),
(1627,752,o),
(1560,752,cs),
(1479,752,o),
(1418,711,o),
(1360,664,c),
(1315,656,o),
(1295,630,o),
(1242,630,cs),
(1216,630,o),
(1193,687,o),
(1193,735,cs),
(1193,798,o),
(1182,856,o),
(1182,892,cs),
(1182,974,o),
(1199,1060,o),
(1214,1138,cs),
(1231,1216,o),
(1264,1389,o),
(1264,1413,cs),
(1264,1488,o),
(1223,1537,o),
(1159,1537,cs),
(1106,1537,o),
(1077,1499,o),
(1055,1410,cs),
(1046,1374,o),
(1025,1265,o),
(1010,1197,cs),
(981,1066,o),
(972,992,o),
(960,970,cs),
(958,967,o),
(957,965,o),
(953,965,cs),
(950,965,o),
(949,967,o),
(949,974,cs),
(949,1008,o),
(946,1113,o),
(946,1176,cs),
(946,1267,o),
(932,1328,o),
(932,1482,cs),
(932,1564,o),
(895,1604,o),
(828,1604,cs),
(739,1604,o),
(728,1523,o),
(728,1438,cs),
(728,1386,o),
(733,1336,o),
(733,1259,cs),
(733,1168,o),
(729,1071,o),
(729,970,cs),
(729,958,o),
(728,953,o),
(717,953,cs),
(714,953,o),
(713,955,o),
(711,958,cs),
(698,984,o),
(690,1054,o),
(676,1158,cs),
(662,1261,o),
(649,1350,o),
(646,1385,cs),
(638,1465,o),
(603,1516,o),
(550,1516,cs),
(457,1516,o),
(451,1438,o),
(451,1356,cs),
(451,1310,o),
(470,1159,o),
(481,1078,cs),
(486,1049,o),
(512,934,o),
(512,900,cs),
(512,897,o),
(510,895,o),
(507,895,cs),
(502,895,o),
(495,905,o),
(478,959,cs),
(460,1025,o),
(426,1096,o),
(410,1148,cs),
(386,1225,o),
(353,1262,o),
(304,1262,cs),
(256,1262,o),
(225,1223,o),
(225,1162,cs),
(225,1116,o),
(266,992,o),
(303,898,cs),
(313,871,o),
(332,824,o),
(332,787,cs),
(332,662,ls),
(332,490,o),
(335,376,o),
(420,275,cs),
(455,234,o),
(463,213,o),
(463,164,cs),
(463,62,l),
(527,4,o),
(637,-25,o),
(797,-25,cs)
);
},
{
closed = 1;
nodes = (
(664,28,o),
(573,48,o),
(516,86,c),
(516,164,ls),
(516,236,o),
(490,274,o),
(461,309,cs),
(389,396,o),
(386,490,o),
(386,661,cs),
(386,787,ls),
(386,833,o),
(362,891,o),
(353,915,cs),
(319,1011,o),
(278,1124,o),
(278,1164,cs),
(278,1195,o),
(288,1208,o),
(304,1208,cs),
(325,1208,o),
(341,1188,o),
(358,1132,cs),
(374,1077,o),
(414,987,o),
(429,943,cs),
(455,868,o),
(474,845,o),
(512,845,cs),
(546,845,o),
(564,876,o),
(564,902,cs),
(564,940,o),
(537,1056,o),
(534,1087,cs),
(528,1151,o),
(504,1295,o),
(504,1351,cs),
(504,1441,o),
(507,1462,o),
(546,1462,cs),
(570,1462,o),
(588,1440,o),
(594,1378,cs),
(597,1345,o),
(613,1232,o),
(623,1145,cs),
(632,1072,o),
(653,989,o),
(659,956,cs),
(667,914,o),
(684,902,o),
(716,902,cs),
(754,902,o),
(783,912,o),
(783,961,cs),
(783,1074,o),
(786,1182,o),
(786,1283,cs),
(786,1347,o),
(781,1395,o),
(781,1438,cs),
(781,1531,o),
(792,1551,o),
(831,1551,cs),
(865,1551,o),
(879,1532,o),
(879,1482,cs),
(879,1324,o),
(892,1264,o),
(892,1176,cs),
(892,1113,o),
(895,1007,o),
(895,961,cs),
(895,926,o),
(922,912,o),
(953,912,cs),
(981,912,o),
(999,921,o),
(1008,950,cs),
(1018,978,o),
(1034,1053,o),
(1063,1186,cs),
(1077,1255,o),
(1097,1362,o),
(1106,1397,cs),
(1124,1464,o),
(1138,1483,o),
(1159,1483,cs),
(1193,1483,o),
(1211,1459,o),
(1211,1413,cs),
(1211,1395,o),
(1176,1225,o),
(1162,1147,cs),
(1149,1069,o),
(1129,982,o),
(1129,892,cs),
(1129,851,o),
(1139,795,o),
(1139,737,cs),
(1139,697,o),
(1147,662,o),
(1162,633,c),
(1144,636,o),
(1127,639,o),
(1104,639,cs),
(1013,639,o),
(926,605,o),
(865,534,c),
(900,493,l),
(949,553,o),
(1024,586,o),
(1104,586,cs),
(1156,586,o),
(1208,577,o),
(1242,577,cs),
(1313,577,o),
(1364,614,o),
(1385,611,c),
(1436,653,o),
(1484,697,o),
(1560,697,cs),
(1597,697,o),
(1632,678,o),
(1632,658,cs),
(1632,652,o),
(1619,642,o),
(1606,633,cs),
(1560,603,o),
(1534,572,o),
(1475,533,cs),
(1426,501,o),
(1371,414,o),
(1339,397,cs),
(1220,339,o),
(1045,179,o),
(1045,132,cs),
(1045,88,l),
(988,53,o),
(888,28,o),
(797,28,cs)
);
}
);
userData = {
assembly = "NPUSHB[ ]	/* 65 values pushed */
159 92 1 84 19 28 35 93 94 5 107 51 0 1 5 6 7 9 10 44 46 48 54 56 58 61 62 67 69 70 72 74 104 113 114 116 117 118 122 27 120 103 64 104 51 80 104 38 107 104 16 97 104 25 88 104 32 120 104 51 16 38 25 4 32
PUSHW[ ]	/* 1 value pushed */
287
NPUSHB[ ]	/* 48 values pushed */
3 0 61 62 67 3 54 41 44 46 56 72 74 5 77 1 70 122 34 7 19 104 116 4 5 100 10 9 22 110 103 118 116 5 114 113 100 116 22 122 116 1 83 116 35 35 34 93
PUSHW[ ]	/* 1 value pushed */
640
NPUSHB[ ]	/* 20 values pushed */
86 116 34 28 48 77 116 41 110 116 22 5 28 34 1 41 6 54 162 13
MDAP[1]	/* MoveDirectAbsPt */
MIRP[01101]	/* MoveIndirectRelPt */
SLOOP[ ]	/* SetLoopVariable */
IP[ ]	/* InterpolatePts */
MIRP[01101]	/* MoveIndirectRelPt */
MDAP[1]	/* MoveDirectAbsPt */
MIRP[01101]	/* MoveIndirectRelPt */
IP[ ]	/* InterpolatePts */
MDAP[1]	/* MoveDirectAbsPt */
MDAP[1]	/* MoveDirectAbsPt */
MIRP[11101]	/* MoveIndirectRelPt */
MIRP[00110]	/* MoveIndirectRelPt */
SRP2[ ]	/* SetRefPoint2 */
IP[ ]	/* InterpolatePts */
SRP0[ ]	/* SetRefPoint0 */
MIRP[00101]	/* MoveIndirectRelPt */
MDAP[1]	/* MoveDirectAbsPt */
MIRP[01101]	/* MoveIndirectRelPt */
MDAP[1]	/* MoveDirectAbsPt */
MIRP[01101]	/* MoveIndirectRelPt */
IP[ ]	/* InterpolatePts */
IP[ ]	/* InterpolatePts */
MDAP[1]	/* MoveDirectAbsPt */
MIRP[01101]	/* MoveIndirectRelPt */
IP[ ]	/* InterpolatePts */
SRP1[ ]	/* SetRefPoint1 */
SRP2[ ]	/* SetRefPoint2 */
IP[ ]	/* InterpolatePts */
IP[ ]	/* InterpolatePts */
SRP1[ ]	/* SetRefPoint1 */
SRP2[ ]	/* SetRefPoint2 */
SLOOP[ ]	/* SetLoopVariable */
IP[ ]	/* InterpolatePts */
SRP1[ ]	/* SetRefPoint1 */
SRP2[ ]	/* SetRefPoint2 */
IP[ ]	/* InterpolatePts */
SRP1[ ]	/* SetRefPoint1 */
SRP2[ ]	/* SetRefPoint2 */
SLOOP[ ]	/* SetLoopVariable */
IP[ ]	/* InterpolatePts */
SRP1[ ]	/* SetRefPoint1 */
SRP2[ ]	/* SetRefPoint2 */
SLOOP[ ]	/* SetLoopVariable */
IP[ ]	/* InterpolatePts */
SVTCA[0]	/* SetFreedomAndProjectionVectorToAxis */
MIAP[1]	/* MoveIndirectAbsPt */
MIRP[01101]	/* MoveIndirectRelPt */
SLOOP[ ]	/* SetLoopVariable */
IP[ ]	/* InterpolatePts */
MIRP[01101]	/* MoveIndirectRelPt */
SRP0[ ]	/* SetRefPoint0 */
MIRP[01101]	/* MoveIndirectRelPt */
MDAP[1]	/* MoveDirectAbsPt */
MIRP[01101]	/* MoveIndirectRelPt */
MDAP[1]	/* MoveDirectAbsPt */
MIRP[01101]	/* MoveIndirectRelPt */
MDAP[1]	/* MoveDirectAbsPt */
MIRP[01101]	/* MoveIndirectRelPt */
MDAP[1]	/* MoveDirectAbsPt */
MIRP[01101]	/* MoveIndirectRelPt */
IP[ ]	/* InterpolatePts */
SRP1[ ]	/* SetRefPoint1 */
SLOOP[ ]	/* SetLoopVariable */
IP[ ]	/* InterpolatePts */
SRP1[ ]	/* SetRefPoint1 */
SRP2[ ]	/* SetRefPoint2 */
SLOOP[ ]	/* SetLoopVariable */
IP[ ]	/* InterpolatePts */
MDAP[1]	/* MoveDirectAbsPt */
IUP[1]	/* InterpolateUntPts */
IUP[0]	/* InterpolateUntPts */
SVTCA[1]	/* SetFreedomAndProjectionVectorToAxis */
DELTAP1[ ]	/* DeltaExceptionP1 */";
};
width = 1826;
}
);
note = uni0049;
unicode = 73;
}
{
glyphname = J;
layers = (
{
layerId = m01;
shapes = (
{
closed = 1;
nodes = (
(1293,-37,o),
(1640,310,o),
(1640,740,cs),
(1640,1170,o),
(1293,1517,o),
(863,1517,cs),
(433,1517,o),
(86,1168,o),
(86,740,cs),
(86,310,o),
(435,-37,o),
(863,-37,cs)
);
},
{
closed = 1;
nodes = (
(1026,317,o),
(1143,397,o),
(1224,556,c),
(1172,585,l),
(1107,467,o),
(1022,377,o),
(863,377,cs),
(704,377,o),
(619,467,o),
(554,585,c),
(502,556,l),
(583,397,o),
(700,317,o),
(863,317,cs)
);
},
{
closed = 1;
nodes = (
(617,832,o),
(653,865,o),
(653,912,cs),
(653,957,o),
(617,995,o),
(570,995,cs),
(523,995,o),
(489,957,o),
(489,912,cs),
(489,865,o),
(525,832,o),
(570,832,cs)
);
},
{
closed = 1;
nodes = (
(476,23,o),
(146,344,o),
(146,740,cs),
(146,1127,o),
(467,1457,o),
(863,1457,cs),
(1255,1457,o),
(1580,1132,o),
(1580,740,cs),
(1580,348,o),
(1255,23,o),
(863,23,cs)
);
},
{
closed = 1;
nodes = (
(1199,832,o),
(1237,865,o),
(1237,912,cs),
(1237,957,o),
(1201,995,o),
(1154,995,cs),
(1107,995,o),
(1073,957,o),
(1073,912,cs),
(1073,865,o),
(1109,832,o),
(1154,832,cs)
);
}
);
userData = {
assembly = "PUSHB[ ]	/* 8 values pushed */
24 29 29 24 27 54 48 36
PUSHW[ ]	/* 4 values pushed */
426 42 27 571
NPUSHB[ ]	/* 10 values pushed */
33 12 130 0 18 130 6 42 33 6
PUSHW[ ]	/* 1 value pushed */
389
PUSHB[ ]	/* 8 values pushed */
0 25 120 24 29 120 30 45
PUSHW[ ]	/* 4 values pushed */
425 39 51 425
NPUSHB[ ]	/* 13 values pushed */
57 21 143 3 15 143 9 24 39 57 30 4 9
PUSHW[ ]	/* 2 values pushed */
530 3
MDAP[1]	/* MoveDirectAbsPt */
MIRP[01101]	/* MoveIndirectRelPt */
SLOOP[ ]	/* SetLoopVariable */
IP[ ]	/* InterpolatePts */
SRP0[ ]	/* SetRefPoint0 */
MIRP[01101]	/* MoveIndirectRelPt */
SRP0[ ]	/* SetRefPoint0 */
MIRP[01101]	/* MoveIndirectRelPt */
MDAP[1]	/* MoveDirectAbsPt */
MIRP[01101]	/* MoveIndirectRelPt */
MDAP[1]	/* MoveDirectAbsPt */
MIRP[01101]	/* MoveIndirectRelPt */
MDAP[1]	/* MoveDirectAbsPt */
MIRP[01101]	/* MoveIndirectRelPt */
MDAP[1]	/* MoveDirectAbsPt */
MIRP[01101]	/* MoveIndirectRelPt */
SVTCA[0]	/* SetFreedomAndProjectionVectorToAxis */
MDAP[1]	/* MoveDirectAbsPt */
MIRP[01101]	/* MoveIndirectRelPt */
IP[ ]	/* InterpolatePts */
IP[ ]	/* InterpolatePts */
SRP0[ ]	/* SetRefPoint0 */
MIRP[01101]	/* MoveIndirectRelPt */
SRP0[ ]	/* SetRefPoint0 */
MIRP[01101]	/* MoveIndirectRelPt */
MDAP[1]	/* MoveDirectAbsPt */
MIRP[01101]	/* MoveIndirectRelPt */
MDAP[1]	/* MoveDirectAbsPt */
MIRP[01101]	/* MoveIndirectRelPt */
IP[ ]	/* InterpolatePts */
IP[ ]	/* InterpolatePts */
SRP1[ ]	/* SetRefPoint1 */
IP[ ]	/* InterpolatePts */
IP[ ]	/* InterpolatePts */
MDAP[1]	/* MoveDirectAbsPt */
MDAP[1]	/* MoveDirectAbsPt */
IUP[1]	/* InterpolateUntPts */
IUP[0]	/* InterpolateUntPts */";
};
width = 1727;
}
);
note = uni004A;
unicode = 74;
}
{
glyphname = K;
layers = (
{
layerId = m01;
shapes = (
{
closed = 1;
nodes = (
(1294,-37,o),
(1641,310,o),
(1641,740,cs),
(1641,1170,o),
(1294,1517,o),
(864,1517,cs),
(434,1517,o),
(87,1168,o),
(87,740,cs),
(87,310,o),
(436,-37,o),
(864,-37,cs)
);
},
{
closed = 1;
nodes = (
(1229,429,l),
(1229,487,l),
(499,487,l),
(499,429,l),
(499,429,l)
);
},
{
closed = 1;
nodes = (
(618,832,o),
(654,865,o),
(654,912,cs),
(654,957,o),
(618,995,o),
(571,995,cs),
(524,995,o),
(490,957,o),
(490,912,cs),
(490,865,o),
(526,832,o),
(571,832,cs)
);
},
{
closed = 1;
nodes = (
(477,23,o),
(147,344,o),
(147,740,cs),
(147,1127,o),
(468,1457,o),
(864,1457,cs),
(1256,1457,o),
(1581,1132,o),
(1581,740,cs),
(1581,348,o),
(1256,23,o),
(864,23,cs)
);
},
{
closed = 1;
nodes = (
(1200,832,o),
(1238,865,o),
(1238,912,cs),
(1238,957,o),
(1202,995,o),
(1155,995,cs),
(1108,995,o),
(1074,957,o),
(1074,912,cs),
(1074,865,o),
(1110,832,o),
(1155,832,cs)
);
}
);
userData = {
assembly = "PUSHB[ ]	/* 3 values pushed */
46 40 28
PUSHW[ ]	/* 1 value pushed */
426
NPUSHB[ ]	/* 13 values pushed */
34 25 130 24 12 130 0 18 130 6 34 24 6
PUSHW[ ]	/* 7 values pushed */
389 0 37 425 31 43 425
PUSHB[ ]	/* 7 values pushed */
49 21 143 3 15 143 9
PUSHW[ ]	/* 1 value pushed */
331
PUSHB[ ]	/* 4 values pushed */
27 49 31 27
PUSHW[ ]	/* 4 values pushed */
375 24 331 3
MDAP[1]	/* MoveDirectAbsPt */
MIRP[10100]	/* MoveIndirectRelPt */
MIRP[01101]	/* MoveIndirectRelPt */
IP[ ]	/* InterpolatePts */
IP[ ]	/* InterpolatePts */
SRP0[ ]	/* SetRefPoint0 */
MIRP[10100]	/* MoveIndirectRelPt */
MIRP[01101]	/* MoveIndirectRelPt */
SRP0[ ]	/* SetRefPoint0 */
MIRP[01101]	/* MoveIndirectRelPt */
MDAP[1]	/* MoveDirectAbsPt */
MIRP[01101]	/* MoveIndirectRelPt */
MDAP[1]	/* MoveDirectAbsPt */
MIRP[01101]	/* MoveIndirectRelPt */
SVTCA[0]	/* SetFreedomAndProjectionVectorToAxis */
MDAP[1]	/* MoveDirectAbsPt */
MIRP[01101]	/* MoveIndirectRelPt */
IP[ ]	/* InterpolatePts */
IP[ ]	/* InterpolatePts */
SRP0[ ]	/* SetRefPoint0 */
MIRP[01101]	/* MoveIndirectRelPt */
SRP0[ ]	/* SetRefPoint0 */
MIRP[01101]	/* MoveIndirectRelPt */
MDAP[1]	/* MoveDirectAbsPt */
MIRP[01101]	/* MoveIndirectRelPt */
MDAP[1]	/* MoveDirectAbsPt */
MIRP[01101]	/* MoveIndirectRelPt */
IP[ ]	/* InterpolatePts */
IP[ ]	/* InterpolatePts */
IUP[1]	/* InterpolateUntPts */
IUP[0]	/* InterpolateUntPts */";
};
width = 1727;
}
);
note = uni004B;
unicode = 75;
}
{
glyphname = L;
layers = (
{
layerId = m01;
shapes = (
{
closed = 1;
nodes = (
(1293,-38,o),
(1640,309,o),
(1640,739,cs),
(1640,1169,o),
(1293,1516,o),
(863,1516,cs),
(433,1516,o),
(86,1167,o),
(86,739,cs),
(86,309,o),
(435,-38,o),
(863,-38,cs)
);
},
{
closed = 1;
nodes = (
(619,473,o),
(704,560,o),
(863,560,cs),
(1022,560,o),
(1107,473,o),
(1172,354,c),
(1224,383,l),
(1143,542,o),
(1026,623,o),
(863,623,cs),
(700,623,o),
(583,542,o),
(502,383,c),
(554,354,l),
(554,354,l)
);
},
{
closed = 1;
nodes = (
(617,831,o),
(653,864,o),
(653,911,cs),
(653,956,o),
(617,994,o),
(570,994,cs),
(523,994,o),
(489,956,o),
(489,911,cs),
(489,864,o),
(525,831,o),
(570,831,cs)
);
},
{
closed = 1;
nodes = (
(476,22,o),
(146,343,o),
(146,739,cs),
(146,1126,o),
(467,1456,o),
(863,1456,cs),
(1255,1456,o),
(1580,1131,o),
(1580,739,cs),
(1580,347,o),
(1255,22,o),
(863,22,cs)
);
},
{
closed = 1;
nodes = (
(1199,831,o),
(1237,864,o),
(1237,911,cs),
(1237,956,o),
(1201,994,o),
(1154,994,cs),
(1107,994,o),
(1073,956,o),
(1073,911,cs),
(1073,864,o),
(1109,831,o),
(1154,831,cs)
);
}
);
userData = {
assembly = "PUSHB[ ]	/* 8 values pushed */
25 32 32 25 12 54 48 36
PUSHW[ ]	/* 1 value pushed */
426
NPUSHB[ ]	/* 9 values pushed */
42 12 130 0 18 130 6 42 6
PUSHW[ ]	/* 5 values pushed */
370 28 571 34 364
PUSHB[ ]	/* 8 values pushed */
0 24 120 25 32 120 31 45
PUSHW[ ]	/* 4 values pushed */
425 39 51 425
NPUSHB[ ]	/* 13 values pushed */
57 21 143 3 15 143 9 25 39 57 31 4 9
PUSHW[ ]	/* 2 values pushed */
530 3
MDAP[1]	/* MoveDirectAbsPt */
MIRP[01101]	/* MoveIndirectRelPt */
SLOOP[ ]	/* SetLoopVariable */
IP[ ]	/* InterpolatePts */
SRP0[ ]	/* SetRefPoint0 */
MIRP[01101]	/* MoveIndirectRelPt */
SRP0[ ]	/* SetRefPoint0 */
MIRP[01101]	/* MoveIndirectRelPt */
MDAP[1]	/* MoveDirectAbsPt */
MIRP[01101]	/* MoveIndirectRelPt */
MDAP[1]	/* MoveDirectAbsPt */
MIRP[01101]	/* MoveIndirectRelPt */
MDAP[1]	/* MoveDirectAbsPt */
MIRP[01101]	/* MoveIndirectRelPt */
MDAP[1]	/* MoveDirectAbsPt */
MIRP[01101]	/* MoveIndirectRelPt */
SVTCA[0]	/* SetFreedomAndProjectionVectorToAxis */
MDAP[1]	/* MoveDirectAbsPt */
MIRP[10100]	/* MoveIndirectRelPt */
MIRP[11101]	/* MoveIndirectRelPt */
MIRP[00100]	/* MoveIndirectRelPt */
IP[ ]	/* InterpolatePts */
SRP0[ ]	/* SetRefPoint0 */
MIRP[01101]	/* MoveIndirectRelPt */
SRP0[ ]	/* SetRefPoint0 */
MIRP[01101]	/* MoveIndirectRelPt */
MDAP[1]	/* MoveDirectAbsPt */
MIRP[01101]	/* MoveIndirectRelPt */
IP[ ]	/* InterpolatePts */
IP[ ]	/* InterpolatePts */
SRP1[ ]	/* SetRefPoint1 */
IP[ ]	/* InterpolatePts */
IP[ ]	/* InterpolatePts */
MDAP[1]	/* MoveDirectAbsPt */
MDAP[1]	/* MoveDirectAbsPt */
IUP[1]	/* InterpolateUntPts */
IUP[0]	/* InterpolateUntPts */";
};
width = 1727;
}
);
note = uni004C;
unicode = 76;
}
{
glyphname = M;
layers = (
{
layerId = m01;
shapes = (
{
closed = 1;
nodes = (
(1044,-37,o),
(1294,211,o),
(1294,518,cs),
(1294,822,o),
(1044,1070,o),
(732,1070,cs),
(710,1070,o),
(678,1063,o),
(655,1063,cs),
(645,1063,o),
(636,1069,o),
(624,1077,cs),
(589,1103,o),
(547,1147,o),
(500,1147,cs),
(477,1147,o),
(452,1140,o),
(431,1132,c),
(407,1168,o),
(395,1209,o),
(395,1248,cs),
(395,1365,o),
(491,1450,o),
(604,1450,cs),
(847,1450,o),
(1279,1182,o),
(1510,1182,cs),
(1540,1182,o),
(1638,1193,o),
(1638,1231,cs),
(1638,1255,o),
(1619,1264,o),
(1607,1264,cs),
(1576,1264,o),
(1559,1250,o),
(1510,1250,cs),
(1300,1250,o),
(881,1517,o),
(607,1517,cs),
(436,1517,o),
(320,1392,o),
(320,1245,cs),
(320,1192,o),
(337,1142,o),
(364,1096,c),
(311,1058,o),
(287,1017,o),
(287,962,cs),
(287,940,o),
(296,913,o),
(296,892,cs),
(296,856,o),
(280,841,o),
(262,812,cs),
(210,731,o),
(174,630,o),
(174,518,cs),
(174,211,o),
(426,-37,o),
(732,-37,cs)
);
},
{
closed = 1;
nodes = (
(1092,310,o),
(1080,343,o),
(1080,374,cs),
(1080,389,o),
(1081,403,o),
(1081,413,cs),
(1081,627,o),
(938,822,o),
(717,875,cs),
(690,882,o),
(551,885,o),
(551,920,cs),
(551,981,o),
(674,992,o),
(732,992,cs),
(987,992,o),
(1213,781,o),
(1213,518,cs),
(1213,499,o),
(1213,476,o),
(1210,456,cs),
(1205,430,o),
(1169,310,o),
(1121,310,cs)
);
},
{
closed = 1;
nodes = (
(1640,1060,o),
(1676,1122,o),
(1676,1171,cs),
(1676,1187,o),
(1669,1194,o),
(1662,1194,cs),
(1636,1194,o),
(1587,1137,o),
(1580,1125,cs),
(1575,1115,o),
(1571,1105,o),
(1571,1094,cs),
(1571,1077,o),
(1587,1060,o),
(1607,1060,cs)
);
},
{
closed = 1;
nodes = (
(1782,1021,o),
(1797,1043,o),
(1797,1070,cs),
(1797,1101,o),
(1782,1151,o),
(1760,1170,c),
(1751,1176,o),
(1744,1180,o),
(1739,1180,cs),
(1720,1180,o),
(1715,1132,o),
(1715,1096,cs),
(1715,1065,o),
(1720,1021,o),
(1756,1021,cs)
);
},
{
closed = 1;
nodes = (
(1749,1211,o),
(1772,1231,o),
(1772,1255,cs),
(1772,1283,o),
(1749,1303,o),
(1724,1303,cs),
(1698,1303,o),
(1678,1283,o),
(1678,1255,cs),
(1678,1231,o),
(1698,1211,o),
(1724,1211,cs)
);
},
{
closed = 1;
nodes = (
(1672,1313,o),
(1678,1320,o),
(1678,1332,cs),
(1678,1375,o),
(1631,1447,o),
(1595,1447,cs),
(1577,1447,o),
(1556,1433,o),
(1556,1418,cs),
(1556,1401,o),
(1559,1387,o),
(1570,1375,cs),
(1580,1363,o),
(1636,1313,o),
(1662,1313,cs)
);
},
{
closed = 1;
nodes = (
(1905,1117,o),
(1919,1134,o),
(1919,1152,cs),
(1919,1190,o),
(1847,1223,o),
(1811,1223,cs),
(1797,1223,o),
(1792,1219,o),
(1792,1211,cs),
(1792,1187,o),
(1844,1137,o),
(1856,1127,c),
(1864,1122,o),
(1874,1117,o),
(1886,1117,cs)
);
},
{
closed = 1;
nodes = (
(1765,1334,o),
(1809,1397,o),
(1809,1435,cs),
(1809,1459,o),
(1794,1481,o),
(1772,1481,cs),
(1751,1481,o),
(1739,1462,o),
(1734,1445,cs),
(1731,1437,o),
(1727,1409,o),
(1727,1385,cs),
(1727,1360,o),
(1731,1334,o),
(1746,1334,cs)
);
},
{
closed = 1;
nodes = (
(1902,1269,o),
(1950,1288,o),
(1950,1322,cs),
(1950,1344,o),
(1927,1363,o),
(1907,1363,cs),
(1864,1363,o),
(1797,1310,o),
(1797,1289,cs),
(1797,1283,o),
(1804,1277,o),
(1814,1274,cs),
(1825,1271,o),
(1837,1269,o),
(1849,1269,cs)
);
}
);
userData = {
assembly = "NPUSHB[ ]	/* 45 values pushed */
27 41 42 44 48 4 47 18 0 12 14 27 39 43 46 49 50 51 52 11 37 23 53 54 56 57 59 60 6 6 1 11 55 58 61 5 32 130 23 37 130 18 18 23 47
PUSHW[ ]	/* 1 value pushed */
389
NPUSHB[ ]	/* 30 values pushed */
6 11 29 47 48 49 50 51 52 54 55 56 57 58 11 53 45 41 42 43 59 60 61 6 44 3 11 14 9 3
PUSHW[ ]	/* 3 values pushed */
335 1 306
NPUSHB[ ]	/* 11 values pushed */
39 143 14 46 29 44 116 45 45 14 53
PUSHW[ ]	/* 2 values pushed */
597 9
MDAP[1]	/* MoveDirectAbsPt */
MIRP[01101]	/* MoveIndirectRelPt */
IP[ ]	/* InterpolatePts */
IP[ ]	/* InterpolatePts */
MDAP[1]	/* MoveDirectAbsPt */
MIRP[01101]	/* MoveIndirectRelPt */
IP[ ]	/* InterpolatePts */
IP[ ]	/* InterpolatePts */
MDAP[1]	/* MoveDirectAbsPt */
MIRP[11101]	/* MoveIndirectRelPt */
MIRP[10100]	/* MoveIndirectRelPt */
MIRP[00100]	/* MoveIndirectRelPt */
SRP1[ ]	/* SetRefPoint1 */
SRP2[ ]	/* SetRefPoint2 */
IP[ ]	/* InterpolatePts */
SRP1[ ]	/* SetRefPoint1 */
SRP2[ ]	/* SetRefPoint2 */
SLOOP[ ]	/* SetLoopVariable */
IP[ ]	/* InterpolatePts */
SRP1[ ]	/* SetRefPoint1 */
SRP2[ ]	/* SetRefPoint2 */
SLOOP[ ]	/* SetLoopVariable */
IP[ ]	/* InterpolatePts */
MDAP[1]	/* MoveDirectAbsPt */
MDAP[1]	/* MoveDirectAbsPt */
SVTCA[0]	/* SetFreedomAndProjectionVectorToAxis */
MDAP[1]	/* MoveDirectAbsPt */
MIRP[01101]	/* MoveIndirectRelPt */
IP[ ]	/* InterpolatePts */
IP[ ]	/* InterpolatePts */
MDAP[1]	/* MoveDirectAbsPt */
MIRP[01101]	/* MoveIndirectRelPt */
MDAP[1]	/* MoveDirectAbsPt */
MIRP[01101]	/* MoveIndirectRelPt */
SLOOP[ ]	/* SetLoopVariable */
IP[ ]	/* InterpolatePts */
SRP1[ ]	/* SetRefPoint1 */
SLOOP[ ]	/* SetLoopVariable */
IP[ ]	/* InterpolatePts */
SRP1[ ]	/* SetRefPoint1 */
SRP2[ ]	/* SetRefPoint2 */
SLOOP[ ]	/* SetLoopVariable */
IP[ ]	/* InterpolatePts */
SRP1[ ]	/* SetRefPoint1 */
SRP2[ ]	/* SetRefPoint2 */
SLOOP[ ]	/* SetLoopVariable */
IP[ ]	/* InterpolatePts */
MDAP[1]	/* MoveDirectAbsPt */
IUP[1]	/* InterpolateUntPts */
IUP[0]	/* InterpolateUntPts */";
};
width = 2275;
}
);
note = uni004D;
unicode = 77;
}
